<svg width="23" height="27" viewBox="0 0 23 27" fill="none" xmlns="http://www.w3.org/2000/svg">
  <path
    d="M11.5009 26.9033C10.8818 26.9033 10.3701 26.4433 10.2891 25.8464L10.278 25.6804L10.279 4.18388L2.54462 11.9499C2.06808 12.4285 1.2938 12.4302 0.815209 11.9537C0.380126 11.5205 0.339194 10.8412 0.693375 10.3617L0.811484 10.2243L10.6336 0.359712C10.6965 0.296626 10.7644 0.241832 10.8362 0.195327C10.8578 0.182193 10.8799 0.16882 10.9025 0.156144C10.9218 0.144486 10.9419 0.13395 10.9622 0.124009C10.9917 0.110206 11.0222 0.0967169 11.0534 0.0844698C11.0774 0.0745192 11.1007 0.0662108 11.1242 0.0586329C11.1534 0.0496226 11.1845 0.0408698 11.2161 0.0333395C11.2381 0.0277415 11.2593 0.0233088 11.2806 0.0194407C11.3123 0.0140028 11.3451 0.00937369 11.3782 0.00607207C11.4035 0.00322058 11.4286 0.00150396 11.4537 0.000554101C11.4689 0.000309959 11.4849 9.67072e-07 11.5009 9.65673e-07L11.5482 0.00061322C11.5722 0.00155163 11.5962 0.00319004 11.6201 0.00553417L11.5009 9.65673e-07C11.578 9.58927e-07 11.6535 0.0071497 11.7267 0.0208197C11.7442 0.0239897 11.7622 0.0277662 11.78 0.031949C11.8169 0.040637 11.8523 0.0506754 11.8871 0.0622339C11.9043 0.0679083 11.9228 0.0745172 11.9411 0.0815801C11.9779 0.0958719 12.013 0.111403 12.0471 0.128491C12.0632 0.13643 12.08 0.14532 12.0967 0.15463C12.1238 0.169913 12.1496 0.185655 12.1748 0.202302C12.1926 0.214047 12.2111 0.227054 12.2294 0.240636L12.2435 0.25122C12.2865 0.284165 12.3273 0.319907 12.3656 0.358172L12.3667 0.359641L22.1905 10.2242C22.6671 10.7027 22.6655 11.477 22.1869 11.9536C21.7519 12.3868 21.0724 12.4249 20.5944 12.0687L20.4575 11.95L12.7247 4.18714L12.7237 25.6804C12.7237 26.3558 12.1762 26.9033 11.5009 26.9033Z"
    fill="currentColor" />
</svg>
