<svg fill="none" height="6" viewBox="0 0 10 6" width="10" xmlns="http://www.w3.org/2000/svg"><path d="m9.84016.540538-.32756-.32984c-.10309-.103009-.24025-.1597578-.38683-.1597578-.14651 0-.28383.0567488-.38692.1597578l-3.73661 3.736782-3.74093-3.740929c-.10293-.103009-.24024-.159676-.38675-.159676-.146505 0-.283905.056667-.386914.159676l-.327645.327808c-.2133348.213172-.2133348.560411 0 .773581l4.454019 4.47004c.10293.10293.24008.17545.38789.17545h.00171c.14658 0 .28374-.07261.38667-.17545l4.44987-4.45792c.10309-.10293.15968-.24423.15984-.390739 0-.146586-.05675-.285937-.15984-.388783z" fill="#fff"/></svg>