<svg fill="none" height="40" viewBox="0 0 40 40" width="40" xmlns="http://www.w3.org/2000/svg" xmlns:xlink="http://www.w3.org/1999/xlink"><clipPath id="a"><path d="m0 0h17.735v17.735h-17.735z" transform="matrix(.00000004 1 1 -.00000004 11.1328 11.1328)"/></clipPath><circle fill="#fff" r="19.5" transform="matrix(-1 0 0 1 20 20)"/><g clip-path="url(#a)"><path d="m15.6372 28.5844-.5849-.581c-.1827-.1828-.2834-.4261-.2834-.686s.1007-.5034.2834-.6862l6.6271-6.6269-6.6345-6.6346c-.1827-.1825-.2832-.426-.2832-.6859 0-.2598.1005-.5035.2832-.6861l.5814-.5811c.378-.3784.9939-.3784 1.3719 0l7.9276 7.8992c.1826.1825.3112.4258.3112.6879v.003c0 .26-.1288.5033-.3112.6858l-7.9061 7.8919c-.1825.1828-.4331.2831-.693.2834-.2599 0-.5071-.1006-.6895-.2834z" fill="#c0c0c0"/></g></svg>