<svg fill="none" height="56" viewBox="0 0 56 56" width="56" xmlns="http://www.w3.org/2000/svg"><g fill="#fff"><path d="m53.2527 46.1639-6.4313-.9216-3.4614-10.5945c2.9079-1.7286 4.0202-6.4457 2.4683-11.1868l-3.1417-9.6114c-.0476.0907-.1051.1719-.1671.253-.1574.191-.3389.3677-.5347.5156-.3677.2865-.7638.5443-1.1746.7685-.4872.2674-.9931.5108-1.5039.7258-.3149.1339-.6302.2578-.9404.3773-.8117.3057-1.609.5539-2.3727.7637-.3821.1051-.7546.2006-1.1175.2818-.3629.0859-.7113.1622-1.0503.2242h-.0048c-.673.1291-1.2984.2198-1.8524.2721-.4823.0524-.9643.062-1.4468.0336-.1766-.0144-.3533-.0431-.5299-.0811-.1291-.0288-.253-.0811-.3629-.1479-.0144-.0096-.0288-.0192-.0432-.0336-.0096-.0095-.0192-.0143-.0287-.0239-.0096-.0096-.0192-.0144-.024-.024s-.0144-.0144-.0192-.0192l-.0096-.0096c.0288.0336.0619.062.0955.0859l.0432.0288.0288.0144c.0143.0048.0239.0144.0383.024l.0336.0192c.0144.0048.024.0143.0384.0191l.0335.0144.0384.0144.0432.0144c.2054.0572.4152.0955.6302.1051.4824.024.9644 0 1.442-.0619.6207-.0812 1.2318-.1959 1.8381-.3485.0475-.0144.1003-.024.1526-.0384.2866-.0715.5823-.1527.8833-.2386.3533-.1051.7162-.2198 1.0887-.3485.745-.253 1.5183-.5491 2.2964-.8928.1339-.0572.2626-.1147.3965-.1767.2577-.1195.5203-.2434.7781-.3725.3917-.1958.7829-.4056 1.1602-.6302.1911-.1147.3773-.229.5587-.3533.1815-.1243.3629-.253.53-.3917.1623-.1291.3105-.2769.444-.4392.0572-.0668.1003-.1431.1383-.2242.0144-.0288.0192-.062.024-.0907.0048-.0144.0048-.0336 0-.0476v-.0048-.0096l-.0096-.0192c-.0048-.0048-.0048-.0096-.0096-.0144s-.0096-.0096-.0096-.0144c-.0192-.0239-.0476-.0431-.0715-.0619-.0764-.0432-.1575-.0763-.2434-.1003-.2007-.0524-.4105-.0811-.6159-.0907-.215-.0144-.4344-.0144-.659-.0048-.2242.0096-.4393.0239-.6639.0431-.4392.0432-.8784.1051-1.308.1767-.4297.0715-.8593.1575-1.275.253-.8356.1862-1.633.4012-2.3823.6398-.3821.1147-.745.2338-1.0982.3629-.3533.1291-.6827.253-.998.3869-.5779.2338-1.141.5059-1.6902.8069-.4248.229-.8261.4964-1.2034.8021-.2865.2386-.4872.4776-.5731.673-.0048.0144-.0096.024-.0144.0384l-.0096.0288c-.0048.0096-.0048.0192-.0096.0239-.0048.0192-.0096.0336-.0144.0476-.0048.0144-.0048.0192-.0048.0288-.0048.0288-.0048.0571-.0048.0859v.0096.0096.0048c0 .0096 0 .0144.0048.0192.0048.0192.0096.0431.0144.0619l3.3231 10.1606c1.5515 4.7311 5.2375 7.8728 8.6035 7.5527l3.4663 10.5945-4.6408 4.5453c.3009.9168 3.4331.5823 7.0472-.6015 3.6145-1.1841 6.3457-2.7645 6.0448-3.6812zm-12.3757-12.2704c-3.4759.1671-5.7771-3.2943-7.1475-6.4744-.7018-1.6426-1.251-3.3423-1.6378-5.0848.7637 1.9196 1.5663 3.5142 2.3727 4.8462 2.392 3.939 4.8127 5.5241 6.2216 6.1543.7781.3437 1.2509.4013 1.2509.4013-.3437.0859-.7018.1383-1.0598.1574z"/><path d="m26.8199 18.1697c-.2386.062-.4872.1003-.7354.1099-.468.0192-.936-.0048-1.4036-.0619-.5539-.0668-1.103-.1623-1.6474-.2866-.3342-.0763-.6591-.1575-.9788-.2434-.8357-.229-1.6282-.492-2.3727-.7685-.3725-.1383-.7306-.277-1.0743-.4249-.3437-.143-.673-.2865-.9836-.4296h-.0048c-.6206-.2913-1.1841-.5823-1.6661-.864-.4201-.2386-.8213-.5108-1.1938-.8213-.1383-.1147-.2674-.2386-.3821-.3773-.0859-.1003-.1575-.215-.2054-.3341-.0192-.0524-.0336-.1051-.0384-.1575v-.0192.0336.0096c0 .0096 0 .0192.0048.024s.0048.0191.0048.0287c0 0 .0048.0144.0048.0192s.0048.0144.0048.024.0048.0144.0048.0192.0096.0192.0144.0288c.0096.0239.0192.0431.0288.0667.0191.0432.0431.0811.0715.1195.1383.191.3057.3581.492.5012.3772.3009.7829.5635 1.2082.7877.5491.2961 1.1174.5635 1.6997.7925l.1431.0572c.2721.1099.5587.215.8544.3197.3485.1243.7114.2386 1.0888.3533.7497.229 1.5518.4392 2.3871.6159.1431.0287.2818.0619.4248.0859.2818.0571.5636.1051.8501.1527.4296.0715.8689.129 1.3129.167.2198.0192.4392.0336.6638.0384.2198.0048.4393.0048.6591-.0096.2102-.0096.4152-.0432.6158-.0955.086-.024.1671-.0572.2434-.1051.0288-.0144.0524-.0384.0716-.062.0096-.0144.0192-.0288.0287-.0431v-.0048-.0048l.0048-.0192v-.0144-.0192c-.0048-.0336-.0095-.0619-.0239-.0907-.0336-.0811-.0812-.1575-.1383-.2242-.1339-.1623-.2866-.3058-.4488-.4344-.1671-.1383-.3485-.2626-.53-.3869-.1814-.1243-.3725-.2386-.5635-.3485-.3821-.2198-.7733-.4296-1.1698-.6207-.3965-.191-.7878-.3725-1.1794-.5395-.7829-.3341-1.5615-.6255-2.306-.8737-.3725-.1243-.7402-.2386-1.0935-.3389s-.7018-.191-1.036-.2674c-.6062-.1478-1.2221-.2577-1.8428-.3341-.4776-.0619-.9596-.0811-1.442-.0523-.1291.0096-.2578.024-.3869.0475l-.0523.0096c-.0192.0048-.0384.0096-.0524.0144l-.0144.0048-.0523.0144c-.0288.0096-.0524.0144-.0764.024l-.0431.0144c-.0144.0048-.0288.0096-.0384.0144l-.0336.0143c-.0144.0048-.0239.0096-.0383.0192s-.024.0096-.0336.0192l-.024.0144-.0192.0144-.0239.0144c-.0096.0048-.0144.0096-.024.0144l-.0192.0191c-.0144.0096-.0288.024-.0384.0336l-.024.024c-.0095.0096-.0143.0144-.0191.024l-.0144.0192c-.0288.0383-.0476.0763-.062.1195v.0048l-3.2372 10.1792c-1.50875 4.7555-.3533 9.4631 2.5638 11.1634l-3.3791 10.6302-6.42173.974c-.29135.9216 2.44947 2.4779 6.07318 3.6285 3.62415 1.1506 6.76065 1.4611 7.05685.5396l-4.6792-4.5026 3.3711-10.618c3.3659.2913 7.0279-2.884 8.5371-7.6395l3.0605-9.6398c-.0911.0476-.1866.0811-.2821.1099zm-12.8914 15.1065c-2.9219-1.8908-2.7645-6.0493-2.0194-9.43.3916-1.7429.9404-3.4426 1.6426-5.0848-.5012 2.0055-.7829 3.7671-.9024 5.319-.3581 4.5933.6778 7.2958 1.4611 8.6326.4296.7354.7781 1.0551.7781 1.0551-.3345-.1291-.659-.2962-.96-.492z"/><path d="m35.3474 9.4089c-.4344.10991-.8688.21022-1.2984.32453-.4296.1147-.8641.21981-1.2985.32937-.4344.1099-.864.2242-1.294.3389l-.8309.2242-.2865-.83092c-.1431-.42005-.2962-.84048-.4441-1.26049-.1478-.42002-.3009-.84048-.4536-1.26049l-.4536-1.25569-.5203-1.43237-.5156 1.43237-.4536 1.26049-.229.63027-.2242.63027c-.1479.42004-.301.84047-.4441 1.26049l-.2913.83087-.8309-.2242-.6494-.1718-.6495-.1671c-.4296-.1147-.8641-.21981-1.2984-.32932-.4345-.10991-.8641-.21502-1.2985-.32453l-.9072-.22421.5347.73058.7926 1.07908c.2673.3581.5299.7162.8021 1.0743.1338.1766.2673.3581.4056.5347l.4057.53c.1338.1766.2721.3533.4104.5299l.2054.2626.2103.2626-.1575-.2962-.1623-.2913c-.1099-.1959-.215-.3917-.3293-.5871l-.3293-.5823c-.1099-.1959-.2198-.3869-.3341-.5823-.2242-.3869-.4488-.7734-.6779-1.1554l-.215-.3629c.1431.0475.2866.0955.4297.143.4248.1383.8452.2818 1.2701.4201l1.2701.4108 1.2749.4057.4392.1383.1719-.4488.4824-1.251c.1622-.41526.3149-.83571.4728-1.251l.2338-.62546.1766-.48239c.1383.36769.2722.74017.4153 1.10784.1574.41525.3105.83569.4728 1.25101l.4823 1.2509.1719.4489.4392-.1383 1.2749-.4057c.4249-.1339.8501-.2721 1.275-.4104.4248-.1383.85-.2818 1.2701-.4201.143-.0475.2817-.0955.4248-.143l-.215.3581c-.2242.3868-.4536.7685-.6778 1.1554-.2243.3868-.4441.7733-.6639 1.165-.1099.1958-.2198.3917-.3245.5871l-.1623.2914-.1574.2961.2102-.2626.2054-.2625c.1383-.1767.277-.3533.4105-.53.2721-.3533.5443-.7114.8117-1.0647.2721-.3581.5347-.7161.8021-1.0742l.7925-1.07913.5395-.73537z"/></g></svg>