<svg width="106" height="74" viewBox="0 0 106 74" fill="none" xmlns="http://www.w3.org/2000/svg">
<g filter="url(#filter0_d_1374_6052)">
<rect x="7" y="28" width="87.6139" height="35.6035" rx="1.67571" fill="url(#paint0_linear_1374_6052)"/>
<path d="M17.4836 40.1284C17.3952 40.8844 17.1154 41.4686 16.6441 41.881C16.176 42.2901 15.5526 42.4947 14.7736 42.4947C13.9292 42.4947 13.2517 42.1919 12.7411 41.5864C12.2339 40.981 11.9802 40.1709 11.9802 39.1563V38.469C11.9802 37.8046 12.098 37.2204 12.3337 36.7164C12.5726 36.2124 12.9097 35.8262 13.345 35.5578C13.7803 35.2862 14.2843 35.1503 14.8571 35.1503C15.6164 35.1503 16.2251 35.3631 16.6833 35.7885C17.1415 36.2107 17.4083 36.7966 17.4836 37.5461H16.5361C16.4542 36.9766 16.2759 36.5642 16.0009 36.3089C15.7293 36.0536 15.348 35.926 14.8571 35.926C14.2549 35.926 13.7819 36.1486 13.4383 36.5937C13.0979 37.0388 12.9277 37.6721 12.9277 38.4936V39.1858C12.9277 39.9615 13.0897 40.5784 13.4137 41.0366C13.7377 41.4948 14.191 41.7239 14.7736 41.7239C15.2973 41.7239 15.6982 41.6061 15.9764 41.3704C16.2579 41.1315 16.4444 40.7175 16.5361 40.1284H17.4836ZM24.2682 42.3965H23.3207V39.0925H19.7173V42.3965H18.7747V35.2485H19.7173V38.3217H23.3207V35.2485H24.2682V42.3965ZM29.9778 40.5309H26.9831L26.3105 42.3965H25.3385L28.068 35.2485H28.8928L31.6273 42.3965H30.6602L29.9778 40.5309ZM27.2678 39.7553H29.6979L28.4804 36.412L27.2678 39.7553ZM36.8901 36.0242H34.5925V42.3965H33.6548V36.0242H31.3622V35.2485H36.8901V36.0242ZM42.6144 41.1446L44.6566 35.2485H45.6876L43.0366 42.3965H42.202L39.5559 35.2485H40.5819L42.6144 41.1446ZM51.9961 39.0532C51.9961 39.7536 51.8782 40.3657 51.6426 40.8893C51.4069 41.4097 51.0731 41.8074 50.6411 42.0823C50.2091 42.3572 49.705 42.4947 49.129 42.4947C48.5694 42.4947 48.0719 42.3572 47.6366 42.0823C47.2013 41.8074 46.8609 41.4097 46.6155 40.8893C46.3733 40.3689 46.2505 39.77 46.2473 39.0925V38.6016C46.2473 37.9143 46.3667 37.3088 46.6056 36.7851C46.8446 36.2582 47.1817 35.854 47.617 35.5725C48.0555 35.2911 48.5563 35.1503 49.1192 35.1503C49.9047 35.1503 50.5511 35.404 51.0584 35.9113C51.3726 35.8884 51.605 35.7705 51.7555 35.5578C51.9093 35.3418 51.9862 35.0178 51.9862 34.5858H52.8061C52.8061 35.6756 52.3757 36.3204 51.515 36.52C51.8324 37.083 51.9928 37.767 51.9961 38.5721V39.0532ZM51.0633 38.5918C51.0633 37.7474 50.8931 37.0977 50.5527 36.6428C50.2156 36.1878 49.7378 35.9604 49.1192 35.9604C48.5235 35.9604 48.0539 36.1878 47.7102 36.6428C47.3699 37.0944 47.1948 37.7228 47.1849 38.5279V39.0532C47.1849 39.8747 47.3568 40.5211 47.7004 40.9924C48.0473 41.4604 48.5235 41.6945 49.129 41.6945C49.7541 41.6945 50.232 41.4637 50.5625 41.0022C50.8964 40.5408 51.0633 39.8895 51.0633 39.0483V38.5918ZM49.6445 33.3584H50.7442L49.4285 34.8018H48.697L49.6445 33.3584ZM54.4949 42.3965H53.5523V35.2485H54.4949V42.3965Z" fill="#111111"/>
<path d="M18.1199 49.0375H15.7749V55.3965H13.8913V49.0375H11.5892V47.5832H18.1199V49.0375ZM25.0477 47.5832V48.8282C25.3089 48.8103 25.511 48.7513 25.6541 48.6511C25.7972 48.5509 25.8992 48.4096 25.96 48.2272C26.0208 48.0411 26.0512 47.6816 26.0512 47.1486H27.1513C27.1513 48.0501 26.9814 48.6958 26.6415 49.0858C26.3052 49.4757 25.774 49.6832 25.0477 49.7083V52.6973C25.0477 53.2768 24.9243 53.7795 24.6775 54.2052C24.4306 54.6273 24.0764 54.9493 23.6149 55.1711C23.1534 55.3929 22.6079 55.5038 21.9782 55.5038C21.0266 55.5038 20.2771 55.257 19.7298 54.7633C19.1824 54.2696 18.9034 53.5934 18.8926 52.7348V47.5832H20.7869V52.7724C20.8084 53.6274 21.2055 54.0549 21.9782 54.0549C22.3682 54.0549 22.6633 53.9476 22.8637 53.7329C23.064 53.5183 23.1642 53.1695 23.1642 52.6865V47.5832H25.0477ZM32.598 53.2715L34.1543 47.5832H36.2578L33.6284 55.3965H31.5677L28.9597 47.5832H31.0472L32.598 53.2715ZM40.8621 53.9369H38.2809L37.8301 55.3965H35.8178L38.6834 47.5832H40.4542L43.3413 55.3965H41.3182L40.8621 53.9369ZM38.7317 52.4826H40.4113L39.5688 49.7727L38.7317 52.4826ZM39.1234 46.027H40.0088L41.5114 47.1969H40.3362L39.5688 46.5744L38.7961 47.1969H37.6262L39.1234 46.027ZM42.0641 45.0879H43.3574L42.0695 46.5636H41.125L42.0641 45.0879ZM50.4408 55.3965H48.568L45.799 50.5347V55.3965H43.9155V47.5832H45.799L48.5626 52.445V47.5832H50.4408V55.3965ZM57.4008 53.2715L58.957 47.5832H61.0606L58.4312 55.3965H56.3705L53.7625 47.5832H55.85L57.4008 53.2715ZM63.6418 55.3965H61.7636V47.5832H63.6418V55.3965ZM69.7969 52.0855H66.8347V53.9476H70.3335V55.3965H64.9511V47.5832H70.3442V49.0375H66.8347V50.6849H69.7969V52.0855ZM70.092 46.9983V47.0681H68.6646L67.8114 46.3383L66.9581 47.0681H65.5629V46.9768L67.2962 45.4904H68.3319L70.092 46.9983ZM77.6262 55.3965H75.7534L72.9844 50.5347V55.3965H71.1009V47.5832H72.9844L75.748 52.445V47.5832H77.6262V55.3965Z" fill="url(#paint1_linear_1374_6052)"/>
</g>
<path fill-rule="evenodd" clip-rule="evenodd" d="M86.0004 0C74.7325 0 66 8.25367 66 19.4007C66 25.2318 68.3904 30.2702 72.2818 33.7511C72.6078 34.0449 72.8049 34.4513 72.821 34.89L72.9297 38.4474C72.9659 39.5822 74.137 40.3186 75.1752 39.8639L79.1431 38.1134C79.4811 37.9645 79.8554 37.9363 80.2095 38.0329C82.0325 38.5359 83.9762 38.8015 86.0004 38.8015C97.2682 38.8015 106.001 30.5478 106.001 19.4007C106.001 8.25367 97.2682 0 86.0004 0Z" fill="url(#paint2_linear_1374_6052)"/>
<path fill-rule="evenodd" clip-rule="evenodd" d="M73.9918 25.075L79.8671 15.755C80.8007 14.274 82.8048 13.9038 84.2052 14.9541L88.8773 18.4592C89.3079 18.7812 89.8955 18.7771 90.322 18.4552L96.632 13.6664C97.473 13.0265 98.5757 14.0366 98.0083 14.93L92.1369 24.246C91.2033 25.727 89.1993 26.0972 87.7988 25.0469L83.1267 21.5418C82.6961 21.2198 82.1086 21.2239 81.682 21.5458L75.368 26.3386C74.527 26.9785 73.4243 25.9684 73.9918 25.075Z" fill="white"/>
<defs>
<filter id="filter0_d_1374_6052" x="0.297143" y="24.6486" width="101.02" height="49.0092" filterUnits="userSpaceOnUse" color-interpolation-filters="sRGB">
<feFlood flood-opacity="0" result="BackgroundImageFix"/>
<feColorMatrix in="SourceAlpha" type="matrix" values="0 0 0 0 0 0 0 0 0 0 0 0 0 0 0 0 0 0 127 0" result="hardAlpha"/>
<feOffset dy="3.35143"/>
<feGaussianBlur stdDeviation="3.35143"/>
<feColorMatrix type="matrix" values="0 0 0 0 0 0 0 0 0 0 0 0 0 0 0 0 0 0 0.2 0"/>
<feBlend mode="normal" in2="BackgroundImageFix" result="effect1_dropShadow_1374_6052"/>
<feBlend mode="normal" in="SourceGraphic" in2="effect1_dropShadow_1374_6052" result="shape"/>
</filter>
<linearGradient id="paint0_linear_1374_6052" x1="51.2407" y1="42.8348" x2="50.9235" y2="63.6053" gradientUnits="userSpaceOnUse">
<stop stop-color="#FAFAFA"/>
<stop offset="1" stop-color="#E1E3EA"/>
</linearGradient>
<linearGradient id="paint1_linear_1374_6052" x1="17.3308" y1="49.9915" x2="57.6879" y2="2.14796" gradientUnits="userSpaceOnUse">
<stop stop-color="#1853AB"/>
<stop offset="1" stop-color="#0097CC"/>
</linearGradient>
<linearGradient id="paint2_linear_1374_6052" x1="86.0004" y1="0" x2="86.0004" y2="40.0007" gradientUnits="userSpaceOnUse">
<stop stop-color="#00B2FF"/>
<stop offset="1" stop-color="#006AFF"/>
</linearGradient>
</defs>
</svg>
