<svg fill="none" height="40" viewBox="0 0 40 40" width="40" xmlns="http://www.w3.org/2000/svg"
  xmlns:xlink="http://www.w3.org/1999/xlink">
  <linearGradient id="a" gradientUnits="userSpaceOnUse" x1="20" x2="20" y1="0" y2="40.001">
    <stop offset="0" stop-color="#00b2ff" />
    <stop offset="1" stop-color="#006aff" />
  </linearGradient>
  <g clip-rule="evenodd" fill-rule="evenodd">
    <path
      d="m20 0c-11.267 0-20 8.254-20 19.4 0 5.832 2.39 10.87 6.282 14.351.326.294.523.7.539 1.139l.109 3.557a1.603 1.603 0 0 0 2.245 1.417l3.968-1.75a1.596 1.596 0 0 1 1.066-.081c1.823.503 3.767.768 5.791.768 11.268 0 20-8.253 20-19.4s-8.731-19.401-20-19.401z"
      fill="url(#a)" />
    <path
      d="m7.992 25.075 5.875-9.32a3.003 3.003 0 0 1 4.338-.8l4.672 3.504c.43.322 1.018.318 1.445-.004l6.31-4.789c.841-.64 1.944.37 1.376 1.264l-5.871 9.316a3.003 3.003 0 0 1 -4.338.8l-4.672-3.504a1.201 1.201 0 0 0 -1.445.004l-6.314 4.793c-.841.64-1.944-.37-1.376-1.264z"
      fill="#fff" />
  </g>
</svg>
