<svg fill="none" height="22" viewBox="0 0 22 22" width="22" xmlns="http://www.w3.org/2000/svg" xmlns:xlink="http://www.w3.org/1999/xlink"><filter id="a" color-interpolation-filters="sRGB" filterUnits="userSpaceOnUse" height="42" width="42" x="-10" y="-10"><feFlood flood-opacity="0" result="BackgroundImageFix"/><feGaussianBlur in="BackgroundImage" stdDeviation="5"/><feComposite in2="SourceAlpha" operator="in" result="effect1_backgroundBlur_1414_8850"/><feBlend in="SourceGraphic" in2="effect1_backgroundBlur_1414_8850" mode="normal" result="shape"/></filter><linearGradient id="b" gradientUnits="userSpaceOnUse" x1="11.0712" x2="11.0712" y1="1.65918" y2="20.3826"><stop offset="0" stop-color="#fa1111"/><stop offset="1" stop-color="#da0808"/></linearGradient><g filter="url(#a)"><circle cx="11" cy="11" fill="#fff" fill-opacity=".18" r="11"/></g><path d="m19.8669 11.0209c0 4.8975-3.9413 8.8617-8.7957 8.8617-4.85448 0-8.79581-3.9642-8.79581-8.8617 0-4.89754 3.94133-8.86172 8.79581-8.86172 4.8544 0 8.7957 3.96418 8.7957 8.86172z" fill="url(#b)" stroke="#fff"/><path d="m11.002 9.58967c.4636-.45709.9186-.90703 1.3753-1.35698.3142-.31068.6249-.62314.9409-.93025.4103-.39996 1.0198-.3946 1.3993.00893.388.41245.3777 1.05344-.0395 1.47125-.7366.73742-1.4817 1.46588-2.2853 2.26048.0859.0553.17.0893.2301.15.6868.6731 1.3753 1.3462 2.0535 2.0283.4945.4964.4 1.3088-.182 1.6498-.3743.2196-.8448.1553-1.1761-.1696-.692-.6803-1.3805-1.3641-2.0707-2.0462-.079-.0786-.158-.1553-.2455-.2393-.7538.7464-1.48692 1.4874-2.23895 2.2069-.16654.1589-.3846.2982-.60093.35-.44642.1071-.86364-.1339-1.05765-.5428-.19059-.4035-.12019-.8606.20947-1.1927.54771-.5535 1.104-1.0963 1.65858-1.6427.19402-.1911.38804-.3803.63871-.6285-.08928-.0625-.17513-.1071-.24209-.1732-.66961-.6571-1.33751-1.31591-2.0037-1.97655-.44984-.44816-.48246-1.06952-.08069-1.5034.38803-.41959.9924-.41959 1.43538.0125.75718.74813 1.51267 1.50161 2.28187 2.26402z" fill="#fff"/></svg>