<svg fill="none" height="41" viewBox="0 0 41 41" width="41" xmlns="http://www.w3.org/2000/svg"><path d="m20.5.5c-3.9556 0-7.8224 1.17298-11.1114 3.37061-3.28898 2.19762-5.85243 5.3212-7.36618 8.97569-1.513754 3.6545-1.909821 7.6759-1.138117 11.5555.771707 3.8796 2.676517 7.4433 5.473567 10.2403 2.79705 2.7971 6.36073 4.7019 10.24033 5.4736s7.9009.3756 11.5555-1.1381c3.6545-1.5138 6.7781-4.0772 8.9757-7.3662s3.3706-7.1558 3.3706-11.1114c-.0061-5.3025-2.1152-10.386-5.8646-14.13537-3.7494-3.7494-8.8329-5.858502-14.1354-5.86463zm9.5252 16.4979-11.283 10.7692c-.2869.273-.6677.4252-1.0637.4252s-.7768-.1522-1.0637-.4252l-5.64-5.3846c-.2947-.2822-.4653-.6699-.4743-1.0778-.009-.408.1442-.8028.4261-1.0978s.6693-.4661 1.0772-.4757c.408-.0095.803.1432 1.0984.4247l4.5763 4.3705 10.2193-9.7551c.2954-.2815.6904-.4342 1.0984-.4247.4079.0096.7953.1806 1.0772.4757.2819.295.4351.6898.4261 1.0977-.009.408-.1796.7956-.4743 1.0779z" fill="#02bd20"/></svg>