<svg fill="none" height="22" viewBox="0 0 22 22" width="22" xmlns="http://www.w3.org/2000/svg"><circle cx="11" cy="11" fill="#fff" fill-opacity=".18" r="11"/><path d="m19.8669 11.0209c0 4.8975-3.9413 8.8617-8.7957 8.8617-4.85448 0-8.79581-3.9642-8.79581-8.8617 0-4.89754 3.94133-8.86172 8.79581-8.86172 4.8544 0 8.7957 3.96418 8.7957 8.86172z" fill="#07bd89" stroke="#fff"/><path d="m10.1567 12.6304c.2406-.3124.4662-.6047.6919-.8985 1.0884-1.4184 2.1734-2.83961 3.2635-4.25654.443-.57599 1.309-.61055 1.7155-.0648.2506.33839.219.67966-.0365 1.0123-.7798 1.01373-1.5579 2.03034-2.336 3.04554-.7865 1.0267-1.5729 2.0534-2.361 3.0801-.4695.612-1.25263.6336-1.76033.0446-1.03364-1.1995-2.0623-2.4004-3.09097-3.6028-.37828-.4421-.30694-.9734.16094-1.27147.47285-.29952 1.07014-.20736 1.45008.23327.70846.8208 1.41193 1.6459 2.11706 2.4695.05472.0663.11282.1296.18582.2088z" fill="#fff"/></svg>