<svg fill="none" height="9" viewBox="0 0 10 9" width="10" xmlns="http://www.w3.org/2000/svg"><path d="m4.06593 5.98186c.21871-.28406.42384-.5498.62897-.81685.98944-1.28943 1.97588-2.58147 2.96683-3.86958.40272-.523629 1.19006-.555046 1.55959-.05891.22775.30763.1991.61787-.03318.92027-.70891.92158-1.4163 1.84577-2.1237 2.76866-.71493.93336-1.42987 1.86672-2.14632 2.80008-.42685.55635-1.13877.57599-1.60031.04058-.93967-1.09045-1.87482-2.1822-2.809971-3.27527-.343894-.40188-.279037-.88492.146306-1.1559.429865-.27228.972855-.1885 1.318255.21207.64405.74616 1.28357 1.49626 1.9246 2.24504.04978.06021.10257.11781.16893.18981z" fill="#fff"/></svg>