<svg width="18" height="18" viewBox="0 0 18 18" fill="none" xmlns="http://www.w3.org/2000/svg">
  <g clip-path="url(#clip0_1374_5899)">
    <path
      d="M13.3628 17.5844L13.9477 17.0034C14.1304 16.8206 14.2311 16.5773 14.2311 16.3174C14.2311 16.0575 14.1304 15.814 13.9477 15.6312L7.32056 9.00429L13.9551 2.36975C14.1378 2.18721 14.2383 1.94367 14.2383 1.68385C14.2383 1.42402 14.1378 1.18034 13.9551 0.997654L13.3737 0.416575C12.9957 0.0382249 12.3798 0.0382249 12.0018 0.416575L4.07416 8.31579C3.89162 8.49833 3.763 8.74157 3.763 9.00371L3.763 9.00674C3.763 9.26671 3.89176 9.50995 4.07416 9.6925L11.9803 17.5844C12.1628 17.7672 12.4134 17.8675 12.6733 17.8678C12.9332 17.8678 13.1804 17.7672 13.3628 17.5844Z"
      fill="currentColor" />
  </g>
  <defs>
    <clipPath id="clip0_1374_5899">
      <rect width="17.735" height="17.735" fill="white" transform="translate(17.8672 0.132812) rotate(90)" />
    </clipPath>
  </defs>
</svg>
