<svg width="48" height="49" viewBox="0 0 48 49" fill="none" xmlns="http://www.w3.org/2000/svg">
  <path
    d="M39.3723 22.8161C39.6509 23.3355 40.1478 23.703 40.7261 23.8174C41.3044 23.9318 41.9036 23.7812 42.3592 23.407C42.8148 23.0326 43.0789 22.4741 43.0789 21.8845C43.0789 21.295 42.8148 20.7362 42.3592 20.3621C41.9035 19.9879 41.3043 19.8373 40.7261 19.9517C40.1478 20.0661 39.6509 20.4336 39.3723 20.953H35.7461V17.3857H39.3723C39.6509 17.9053 40.1478 18.2726 40.7261 18.3872C41.3044 18.5015 41.9036 18.351 42.3592 17.9765C42.8148 17.6023 43.0789 17.0438 43.0789 16.4541C43.0789 15.8645 42.8148 15.306 42.3592 14.9316C41.9035 14.5574 41.3043 14.4068 40.7261 14.5212C40.1478 14.6356 39.6509 15.0031 39.3723 15.5227H35.7461V14.013C35.7461 13.716 35.6279 13.4312 35.4179 13.2212C35.2082 13.0115 34.9235 12.8934 34.6264 12.8934H33.1168V9.26711C33.6364 8.98854 34.0039 8.49163 34.1182 7.91337C34.2326 7.3348 34.0821 6.73559 33.7079 6.28C33.3334 5.82464 32.775 5.56055 32.1854 5.56055C31.5956 5.56055 31.0371 5.82466 30.6629 6.28C30.2884 6.73562 30.1379 7.33483 30.2523 7.91337C30.3669 8.49167 30.7341 8.98857 31.2538 9.26711V12.8934H27.6865V9.26711C28.2058 8.98854 28.5734 8.49163 28.6877 7.91337C28.8021 7.33507 28.6516 6.73586 28.2774 6.28027C27.9032 5.82465 27.3445 5.56082 26.7549 5.56082C26.1653 5.56082 25.6069 5.82466 25.2324 6.28027C24.8582 6.7359 24.7077 7.33511 24.8221 7.91337C24.9364 8.49167 25.3039 8.98857 25.8233 9.26711V12.8934H22.2555V9.26711C22.7749 8.98854 23.1424 8.49163 23.2568 7.91337C23.3711 7.33507 23.2206 6.73586 22.8464 6.28027C22.472 5.82465 21.9135 5.56082 21.3239 5.56082C20.7344 5.56082 20.1756 5.82466 19.8014 6.28027C19.4272 6.7359 19.2767 7.33511 19.3911 7.91337C19.5055 8.49167 19.8729 8.98857 20.3924 9.26711V12.8934H16.8251V9.26711C17.3447 8.98854 17.712 8.49163 17.8263 7.91337C17.9407 7.33511 17.7902 6.73586 17.416 6.28027C17.0418 5.82465 16.4831 5.56082 15.8935 5.56082C15.3039 5.56082 14.7455 5.82466 14.3713 6.28027C13.9968 6.7359 13.8463 7.33511 13.9607 7.91337C14.075 8.49163 14.4425 8.98857 14.9621 9.26711V12.8934H13.4525C13.1554 12.8934 12.8707 13.0115 12.6609 13.2212C12.4509 13.4312 12.3328 13.716 12.3328 14.013V15.5227H8.70656C8.42799 15.003 7.93108 14.6355 7.35282 14.5212C6.77456 14.4069 6.17531 14.5574 5.71973 14.9318C5.2641 15.306 5 15.8645 5 16.454C5 17.0439 5.26411 17.6023 5.71973 17.9765C6.17535 18.3507 6.77456 18.5015 7.35282 18.3872C7.93113 18.2725 8.42802 17.9053 8.70656 17.3857H12.3328V20.953H8.70656C8.42799 20.4336 7.93108 20.0661 7.35282 19.9517C6.77452 19.8373 6.17531 19.9878 5.71973 20.362C5.2641 20.7362 5 21.295 5 21.8845C5 22.4741 5.26411 23.0326 5.71973 23.407C6.17535 23.7812 6.77456 23.9318 7.35282 23.8174C7.93113 23.703 8.42802 23.3355 8.70656 22.8161H12.3328V26.3839H8.70656C8.42799 25.8646 7.93108 25.497 7.35282 25.3827C6.77452 25.2683 6.17531 25.4188 5.71973 25.793C5.2641 26.1675 5 26.7259 5 27.3155C5 27.9051 5.26411 28.4638 5.71973 28.838C6.17535 29.2122 6.77456 29.3627 7.35282 29.2484C7.93113 29.134 8.42802 28.7665 8.70656 28.2471H12.3328V31.8144H8.70656C8.42799 31.2947 7.93108 30.9275 7.35282 30.8131C6.77452 30.6985 6.17531 30.8493 5.71973 31.2235C5.2641 31.5977 5 32.1564 5 32.7459C5 33.3355 5.26411 33.894 5.71973 34.2682C6.17535 34.6426 6.77456 34.7932 7.35282 34.6788C7.93108 34.5644 8.42802 34.1969 8.70656 33.6773H12.3328V35.187C12.3328 35.484 12.4509 35.7688 12.6609 35.9788C12.8707 36.1885 13.1554 36.3066 13.4525 36.3066H14.9621V39.9329C14.4425 40.2115 14.075 40.7084 13.9607 41.2866C13.8463 41.8652 13.9968 42.4644 14.371 42.9197C14.7455 43.3753 15.3039 43.6394 15.8935 43.6394C16.4833 43.6394 17.0418 43.3753 17.416 42.9197C17.7905 42.4644 17.941 41.8652 17.8266 41.2866C17.712 40.7083 17.3447 40.2114 16.8251 39.9329V36.3066H20.3924V39.9329C19.8728 40.2115 19.5055 40.7084 19.3911 41.2866C19.2765 41.8649 19.4273 42.4644 19.8015 42.9197C20.1757 43.3753 20.7344 43.6394 21.324 43.6394C21.9135 43.6394 22.4723 43.3753 22.8465 42.9197C23.2207 42.4644 23.3712 41.8649 23.2568 41.2866C23.1425 40.7083 22.775 40.2114 22.2556 39.9329V36.3066H25.8234V39.9329C25.304 40.2115 24.9365 40.7084 24.8221 41.2866C24.7077 41.8649 24.8583 42.4641 25.2325 42.9197C25.6069 43.3753 26.1654 43.6392 26.755 43.6392C27.3445 43.6392 27.9033 43.3753 28.2775 42.9197C28.6517 42.4641 28.8022 41.8649 28.6878 41.2866C28.5734 40.7083 28.2059 40.2114 27.6865 39.9329V36.3066H31.2538V39.9329C30.7342 40.2115 30.3669 40.7084 30.2526 41.2866C30.1382 41.8649 30.2887 42.4641 30.6629 42.9197C31.0371 43.3753 31.5958 43.6392 32.1854 43.6392C32.775 43.6392 33.3334 43.3753 33.7076 42.9197C34.0821 42.4641 34.2326 41.8649 34.1182 41.2866C34.0039 40.7084 33.6364 40.2114 33.1168 39.9329V36.3066H34.6264C34.9235 36.3066 35.2082 36.1885 35.4179 35.9788C35.6279 35.7688 35.7461 35.484 35.7461 35.187V33.6773H39.3723C39.6509 34.1969 40.1478 34.5645 40.7261 34.6788C41.3043 34.7931 41.9036 34.6426 42.3592 34.2682C42.8148 33.894 43.0789 33.3355 43.0789 32.7459C43.0789 32.1564 42.8148 31.5977 42.3592 31.2235C41.9035 30.8493 41.3043 30.6985 40.7261 30.8131C40.1478 30.9275 39.6509 31.2947 39.3723 31.8144H35.7461V28.2471H39.3723C39.6509 28.7665 40.1478 29.134 40.7261 29.2484C41.3044 29.363 41.9036 29.2122 42.3592 28.838C42.8148 28.4638 43.0789 27.9051 43.0789 27.3155C43.0789 26.726 42.8148 26.1675 42.3592 25.793C41.9035 25.4188 41.3043 25.2683 40.7261 25.3827C40.1478 25.497 39.6509 25.8645 39.3723 26.3839H35.7461V22.8161L39.3723 22.8161ZM32.7651 33.3261H15.3137V15.8746H32.7651V33.3261Z"
    fill="currentColor" />
  <path
    d="M17.8287 25.2755H19.4506V29.9265C19.4506 30.0907 19.5157 30.2482 19.6317 30.3642C19.7476 30.4802 19.9051 30.5453 20.0691 30.5453H22.802V26.8944C22.802 26.4524 23.038 26.044 23.4207 25.823C23.8035 25.602 24.2752 25.602 24.6579 25.823C25.0407 26.044 25.2764 26.4524 25.2764 26.8944V30.5453H28.0093C28.1733 30.5453 28.3308 30.4802 28.4467 30.3642C28.5627 30.248 28.6281 30.0907 28.6278 29.9265V25.2755H30.2499C30.5082 25.2755 30.7393 25.1153 30.8296 24.8734C30.9198 24.6315 30.8502 24.3589 30.6549 24.1898L24.4444 18.8075C24.2119 18.6058 23.8667 18.6058 23.6342 18.8075L17.4234 24.1898C17.2281 24.3589 17.1588 24.6315 17.249 24.8734C17.3393 25.1153 17.5705 25.2757 17.8287 25.2755H17.8287Z"
    fill="currentColor" />
</svg>
