<svg width="48" height="49" viewBox="0 0 48 49" fill="none" xmlns="http://www.w3.org/2000/svg">
  <path
    d="M13.3856 19.0414C13.3856 21.5501 11.3519 23.5838 8.84317 23.5838C6.33448 23.5838 4.30078 21.5501 4.30078 19.0414C4.30078 16.5327 6.33448 14.499 8.84317 14.499C11.3519 14.499 13.3856 16.5327 13.3856 19.0414Z"
    fill="currentColor" />
  <path
    d="M12.086 19.0412C12.086 19.2411 12.073 19.4411 12.0469 19.641C12.0643 19.5236 12.0773 19.4106 12.0947 19.2933C12.0382 19.7019 11.9295 20.093 11.773 20.4712C11.8165 20.3669 11.86 20.2626 11.9034 20.1583C11.7904 20.4191 11.6557 20.6712 11.4948 20.9103C11.4774 20.9363 11.3905 21.0928 11.3644 21.0972C11.3949 21.0928 11.5992 20.8059 11.4296 21.0102C11.3384 21.1189 11.2427 21.2232 11.1427 21.3232C11.0428 21.4232 10.9384 21.5188 10.8298 21.6101C10.7472 21.6753 10.5777 21.7753 10.9167 21.5449C10.8559 21.5884 10.795 21.6362 10.7298 21.6753C10.4907 21.8361 10.2386 21.9709 9.9778 22.0839L10.2908 21.9535C9.9126 22.1143 9.51704 22.2186 9.11281 22.2752C9.23018 22.2578 9.34319 22.2447 9.46056 22.2273C9.06066 22.2795 8.65641 22.2795 8.25653 22.2273C8.37389 22.2447 8.4869 22.2578 8.60427 22.2752C8.19567 22.2187 7.8045 22.11 7.42631 21.9535L7.73928 22.0839C7.47848 21.9709 7.22636 21.8361 6.98729 21.6753C6.96121 21.6579 6.80472 21.571 6.80037 21.5449C6.80472 21.5753 7.09161 21.7796 6.88731 21.6101C6.77864 21.5188 6.67431 21.4232 6.57434 21.3232C6.47436 21.2232 6.37874 21.1189 6.28745 21.0102C6.22225 20.9276 6.12227 20.7581 6.35265 21.0972C6.30918 21.0363 6.26137 20.9755 6.22225 20.9103C6.06142 20.6712 5.92666 20.4191 5.81365 20.1583L5.94405 20.4712C5.78322 20.0931 5.6789 19.6975 5.62239 19.2933C5.63977 19.4106 5.65281 19.5236 5.6702 19.641C5.61804 19.2411 5.61804 18.8369 5.6702 18.437C5.65281 18.5543 5.63977 18.6674 5.62239 18.7847C5.67889 18.3761 5.78756 17.985 5.94405 17.6068L5.81365 17.9197C5.92667 17.6589 6.06142 17.4068 6.22225 17.1677C6.23963 17.1417 6.32657 16.9852 6.35265 16.9808C6.32222 16.9852 6.11792 17.2721 6.28745 17.0678C6.37873 16.9591 6.47436 16.8548 6.57434 16.7548C6.67431 16.6548 6.77864 16.5592 6.88731 16.4679C6.9699 16.4027 7.13943 16.3027 6.80037 16.5331C6.86122 16.4896 6.92208 16.4418 6.98729 16.4027C7.22636 16.2419 7.47848 16.1071 7.73928 15.9941C7.63496 16.0376 7.53063 16.081 7.42631 16.1245C7.80448 15.9637 8.20005 15.8593 8.60427 15.8028C8.4869 15.8202 8.37389 15.8333 8.25653 15.8506C8.65643 15.7985 9.06067 15.7985 9.46056 15.8506C9.34319 15.8333 9.23018 15.8202 9.11281 15.8028C9.52141 15.8593 9.91259 15.968 10.2908 16.1245C10.1865 16.081 10.0821 16.0376 9.9778 15.9941C10.2386 16.1071 10.4907 16.2419 10.7298 16.4027C10.7559 16.4201 10.9124 16.507 10.9167 16.5331C10.9124 16.5027 10.6255 16.2984 10.8298 16.4679C10.9384 16.5592 11.0428 16.6548 11.1427 16.7548C11.2427 16.8548 11.3383 16.9591 11.4296 17.0678C11.4948 17.1504 11.5948 17.3199 11.3644 16.9808C11.4079 17.0417 11.4557 17.1025 11.4948 17.1677C11.6557 17.4068 11.7904 17.6589 11.9034 17.9197C11.86 17.8154 11.8165 17.7111 11.773 17.6068C11.9339 17.9849 12.0382 18.3805 12.0947 18.7847C12.0773 18.6674 12.0643 18.5543 12.0469 18.437C12.0686 18.6413 12.0817 18.8412 12.086 19.0412C12.0904 19.7236 12.6815 20.3757 13.39 20.3452C14.0942 20.3148 14.6984 19.7714 14.6941 19.0412C14.6854 17.8806 14.3463 16.6809 13.6639 15.7333C12.9292 14.7117 11.9686 13.9728 10.7906 13.5294C8.59552 12.7078 5.89615 13.4294 4.40955 15.2464C3.59666 16.2375 3.12722 17.372 3.01857 18.65C2.91859 19.8149 3.22721 21.0451 3.82708 22.0448C4.40956 23.0142 5.29628 23.8487 6.32648 24.3183C7.51747 24.8573 8.77373 25.0138 10.0561 24.766C12.3121 24.3313 14.2464 22.3622 14.5941 20.0845C14.6463 19.7411 14.6898 19.3977 14.6941 19.0456C14.6985 18.3632 14.0899 17.7112 13.3901 17.7416C12.6772 17.772 12.0904 18.311 12.0861 19.0413L12.086 19.0412Z"
    fill="currentColor" />
  <path
    d="M25.8136 31.7945C25.8136 35.0328 23.1881 37.6583 19.9498 37.6583C16.7114 37.6583 14.0859 35.0328 14.0859 31.7945C14.0859 28.5561 16.7114 25.9307 19.9498 25.9307C23.1881 25.9307 25.8136 28.5561 25.8136 31.7945Z"
    fill="currentColor" />
  <path
    d="M24.505 31.7943C24.505 32.0552 24.4876 32.316 24.4528 32.5768C24.4702 32.4594 24.4833 32.3464 24.5007 32.229C24.4268 32.7507 24.292 33.2592 24.0877 33.7417L24.2181 33.4287C24.0747 33.7591 23.9051 34.0808 23.7008 34.3807C23.6487 34.459 23.5922 34.5372 23.5357 34.6111C23.4183 34.7763 23.7182 34.3894 23.6183 34.5068C23.5878 34.5416 23.5574 34.5807 23.527 34.6155C23.414 34.7546 23.2922 34.885 23.1662 35.011C23.0401 35.1371 22.9054 35.2588 22.7706 35.3718C22.7402 35.3979 22.7098 35.4196 22.6837 35.4414C22.5098 35.5848 22.901 35.2805 22.7924 35.3588C22.7141 35.4109 22.6402 35.4718 22.562 35.5239C22.2533 35.7326 21.9273 35.9065 21.5839 36.0543L21.8969 35.9239C21.41 36.1282 20.9058 36.2673 20.3842 36.3368C20.5016 36.3194 20.6146 36.3064 20.732 36.289C20.2103 36.3542 19.6887 36.3542 19.1714 36.289C19.2888 36.3064 19.4018 36.3194 19.5192 36.3368C18.9976 36.2629 18.489 36.1282 18.0065 35.9239L18.3195 36.0543C17.9891 35.9108 17.6675 35.7413 17.3675 35.537C17.2892 35.4848 17.211 35.4283 17.1371 35.3718C16.9719 35.2544 17.3588 35.5544 17.2414 35.4544C17.2067 35.424 17.1675 35.3935 17.1328 35.3631C16.9937 35.2501 16.8633 35.1284 16.7372 35.0023C16.6111 34.8763 16.4894 34.7415 16.3764 34.6068C16.3503 34.5763 16.3286 34.5459 16.3069 34.5198C16.1634 34.346 16.4677 34.7372 16.3895 34.6285C16.3373 34.5503 16.2764 34.4764 16.2243 34.3981C16.0156 34.0895 15.8418 33.7635 15.694 33.4201C15.7374 33.5244 15.7809 33.6287 15.8244 33.733C15.6201 33.2462 15.481 32.7419 15.4114 32.2204C15.4288 32.3377 15.4418 32.4507 15.4592 32.5681C15.394 32.0465 15.394 31.5249 15.4592 31.0076C15.4418 31.1249 15.4288 31.238 15.4114 31.3553C15.4853 30.8337 15.6201 30.3251 15.8244 29.8426C15.7809 29.947 15.7374 30.0513 15.694 30.1556C15.8374 29.8253 16.0069 29.5036 16.2112 29.2036C16.2634 29.1254 16.3199 29.0471 16.3764 28.9732C16.4938 28.8081 16.1938 29.1949 16.2938 29.0776C16.3242 29.0428 16.3547 29.0037 16.3851 28.9689C16.4981 28.8298 16.6198 28.6994 16.7459 28.5733C16.8719 28.4473 17.0067 28.3256 17.1414 28.2125C17.1719 28.1865 17.2023 28.1647 17.2284 28.143C17.4023 27.9996 17.011 28.3038 17.1197 28.2256C17.198 28.1734 17.2719 28.1126 17.3501 28.0604C17.6587 27.8518 17.9847 27.6779 18.3282 27.5301C18.2238 27.5736 18.1195 27.617 18.0152 27.6605C18.502 27.4562 19.0063 27.3171 19.5279 27.2476C19.4105 27.2649 19.2975 27.278 19.1801 27.2954C19.7017 27.2302 20.2233 27.2302 20.7406 27.2954C20.6233 27.278 20.5103 27.2649 20.3929 27.2476C20.9145 27.3215 21.4231 27.4562 21.9056 27.6605C21.8012 27.617 21.6969 27.5736 21.5926 27.5301C21.9229 27.6735 22.2446 27.8431 22.5446 28.0474C22.6228 28.0995 22.7011 28.156 22.775 28.2125C22.9401 28.3299 22.5533 28.03 22.6706 28.13C22.7054 28.1604 22.7445 28.1908 22.7793 28.2212C22.9184 28.3343 23.0488 28.456 23.1749 28.582C23.3009 28.7081 23.4226 28.8428 23.5357 28.9776C23.5617 29.008 23.5835 29.0384 23.6052 29.0645C23.7487 29.2384 23.4444 28.8472 23.5226 28.9559C23.5748 29.0341 23.6356 29.108 23.6878 29.1862C23.8964 29.4949 24.0703 29.8209 24.2181 30.1643L24.0877 29.8513C24.292 30.3382 24.4311 30.8424 24.5007 31.364C24.4833 31.2466 24.4702 31.1336 24.4528 31.0163C24.4876 31.2727 24.505 31.5335 24.505 31.7943C24.5093 32.4768 25.1005 33.1288 25.809 33.0984C26.5132 33.0679 27.1174 32.5246 27.1131 31.7943C27.1044 30.3599 26.6784 28.895 25.8395 27.7257C24.9484 26.4782 23.7574 25.5653 22.3185 25.035C19.6017 24.0352 16.3069 24.9263 14.4769 27.1693C13.4988 28.369 12.9207 29.7643 12.7947 31.3118C12.6773 32.7506 13.0511 34.2546 13.7988 35.4847C14.5204 36.6757 15.6115 37.6973 16.885 38.2711C18.3282 38.9188 19.867 39.11 21.4231 38.8057C24.2095 38.2624 26.5654 35.8542 26.9957 33.0375C27.0609 32.6246 27.1088 32.2116 27.1088 31.7943C27.1131 31.1119 26.5045 30.4598 25.8047 30.4903C25.1005 30.5207 24.5094 31.0641 24.505 31.7943L24.505 31.7943Z"
    fill="currentColor" />
  <path
    d="M38.6272 15.8595C38.6272 18.0634 36.8406 19.8499 34.6369 19.8499C32.433 19.8499 30.6465 18.0633 30.6465 15.8595C30.6465 13.6557 32.4331 11.8691 34.6369 11.8691C36.8407 11.8691 38.6272 13.6557 38.6272 15.8595Z"
    fill="currentColor" />
  <path
    d="M37.3228 15.8594C37.3228 16.0419 37.3098 16.2202 37.288 16.4027C37.3054 16.2854 37.3185 16.1723 37.3359 16.055C37.2837 16.4027 37.1924 16.7418 37.0577 17.0678L37.1881 16.7548C37.0881 16.9808 36.9751 17.2025 36.836 17.4112C36.8055 17.459 36.7708 17.5024 36.7403 17.5503C36.6099 17.7372 36.9707 17.2808 36.7882 17.4894C36.7056 17.5807 36.6273 17.6763 36.5404 17.7633C36.4621 17.8415 36.3752 17.9197 36.2883 17.9936C36.0666 18.1805 36.4361 17.8937 36.3535 17.9502C36.297 17.9849 36.2448 18.0284 36.1926 18.0632C35.984 18.2023 35.7667 18.3153 35.5363 18.4153L35.8492 18.2849C35.5232 18.4196 35.1842 18.5109 34.8365 18.5631C34.9538 18.5457 35.0668 18.5326 35.1842 18.5153C34.8234 18.5631 34.4626 18.5631 34.1019 18.5153C34.2192 18.5326 34.3322 18.5457 34.4496 18.5631C34.1019 18.5109 33.7628 18.4196 33.4368 18.2849L33.7498 18.4153C33.5237 18.3153 33.3021 18.2023 33.0934 18.0632C33.0456 18.0328 33.0021 17.998 32.9543 17.9676C32.7674 17.8372 33.2238 18.1979 33.0152 18.0154C32.9239 17.9328 32.8283 17.8545 32.7413 17.7676C32.6631 17.6894 32.5848 17.6024 32.5109 17.5155C32.324 17.2938 32.6109 17.6633 32.5544 17.5807C32.5196 17.5242 32.4762 17.472 32.4414 17.4199C32.3023 17.2112 32.1893 16.9939 32.0893 16.7635C32.1328 16.8678 32.1762 16.9721 32.2197 17.0765C32.085 16.7504 31.9937 16.4114 31.9415 16.0637C31.9589 16.181 31.9719 16.294 31.9893 16.4114C31.9415 16.0506 31.9415 15.6898 31.9893 15.3291C31.9719 15.4464 31.9589 15.5594 31.9415 15.6768C31.9937 15.3291 32.085 14.99 32.2197 14.664C32.1762 14.7683 32.1328 14.8727 32.0893 14.977C32.1893 14.751 32.3023 14.5293 32.4414 14.3206C32.4718 14.2728 32.5066 14.2293 32.537 14.1815C32.6674 13.9946 32.3066 14.451 32.4892 14.2424C32.5718 14.1511 32.65 14.0555 32.737 13.9685C32.8152 13.8903 32.9022 13.812 32.9891 13.7382C33.2108 13.5512 32.8413 13.8381 32.9239 13.7816C32.9804 13.7469 33.0326 13.7034 33.0847 13.6686C33.2934 13.5295 33.5107 13.4165 33.7411 13.3165C33.6368 13.36 33.5324 13.4035 33.4281 13.4469C33.7541 13.3122 34.0932 13.2209 34.4409 13.1687C34.3235 13.1861 34.2105 13.1991 34.0932 13.2165C34.454 13.1687 34.8147 13.1687 35.1755 13.2165C35.0581 13.1991 34.9451 13.1861 34.8278 13.1687C35.1755 13.2209 35.5146 13.3122 35.8406 13.4469C35.7362 13.4034 35.6319 13.36 35.5276 13.3165C35.7536 13.4165 35.9753 13.5295 36.1839 13.6686C36.2318 13.699 36.2752 13.7338 36.323 13.7642C36.51 13.8946 36.0535 13.5339 36.2622 13.7164C36.3535 13.799 36.4491 13.8772 36.536 13.9642C36.6143 14.0424 36.6925 14.1294 36.7664 14.2163C36.9533 14.438 36.6664 14.0685 36.7229 14.1511C36.7577 14.2076 36.8012 14.2598 36.836 14.3119C36.9751 14.5206 37.0881 14.7379 37.1881 14.9683L37.0577 14.6553C37.1924 14.9813 37.2837 15.3204 37.3359 15.6681C37.3185 15.5508 37.3054 15.4377 37.288 15.3204C37.3098 15.4943 37.3228 15.6768 37.3228 15.8594C37.3272 16.5418 37.9183 17.1938 38.6268 17.1634C39.331 17.133 39.9352 16.5896 39.9309 15.8594C39.9222 14.8031 39.6135 13.712 38.9876 12.8514C38.3139 11.9255 37.4489 11.2604 36.3752 10.8605C34.4018 10.1259 31.9589 10.7779 30.6243 12.408C29.8723 13.3252 29.442 14.3728 29.3508 15.5551C29.2725 16.594 29.5551 17.6937 30.0897 18.5805C30.6157 19.4541 31.4111 20.2018 32.3414 20.6278C33.4281 21.1234 34.58 21.2625 35.7536 21.0321C38.1748 20.5539 39.9092 18.2849 39.9266 15.8594C39.9309 15.1769 39.3224 14.5249 38.6225 14.5553C37.9184 14.5858 37.3316 15.1248 37.3228 15.8594H37.3228Z"
    fill="currentColor" />
  <path
    d="M10.7076 23.5572C11.9943 24.9482 13.2809 26.3435 14.5675 27.7345C14.7457 27.9301 14.9283 28.1257 15.1065 28.317C15.5716 28.8212 16.4888 28.8212 16.9496 28.317C17.4451 27.778 17.4451 27.0086 16.9496 26.4739C15.6629 25.0829 14.3763 23.6876 13.0897 22.2966C12.9115 22.101 12.7289 21.9054 12.5507 21.7141C12.0856 21.2099 11.1684 21.2099 10.7076 21.7141C10.2121 22.2488 10.2121 23.0181 10.7076 23.5572Z"
    fill="currentColor" />
  <path
    d="M25.2301 28.7601C26.0821 27.7995 26.9341 26.8432 27.786 25.8826C29.1422 24.3569 30.4984 22.8311 31.8547 21.301C32.1633 20.9533 32.4719 20.6055 32.7805 20.2578C33.2326 19.7492 33.3195 18.9103 32.7805 18.4147C32.285 17.9583 31.42 17.8713 30.9374 18.4147C30.0854 19.3753 29.2334 20.3316 28.3815 21.2923C27.0253 22.818 25.6691 24.3437 24.3128 25.8738C24.0042 26.2216 23.6956 26.5693 23.387 26.9171C22.9349 27.4256 22.848 28.2646 23.387 28.7601C23.8782 29.2122 24.7476 29.3035 25.2301 28.7601Z"
    fill="currentColor" />
  <path
    d="M44.5081 25.0749C44.5081 26.1743 43.6166 27.0657 42.5172 27.0657C41.4178 27.0657 40.5264 26.1743 40.5264 25.0749C40.5264 23.9754 41.4178 23.084 42.5172 23.084C43.6166 23.084 44.5081 23.9754 44.5081 25.0749Z"
    fill="currentColor" />
  <path
    d="M43.2042 25.0749C43.2042 25.1575 43.1998 25.2357 43.1911 25.314C43.2085 25.1966 43.2216 25.0836 43.239 24.9662C43.2172 25.1401 43.1738 25.3096 43.1086 25.4748L43.239 25.1618C43.1911 25.2792 43.1303 25.3792 43.0694 25.4922C42.939 25.7269 43.2694 25.2705 43.1216 25.4313C43.0825 25.4748 43.0477 25.5183 43.0086 25.5574C42.9695 25.5965 42.926 25.6356 42.8825 25.6704C42.7174 25.8225 43.1477 25.4965 42.9651 25.6009C42.8478 25.6704 42.7391 25.7356 42.613 25.7878L42.926 25.6574C42.7608 25.7226 42.5956 25.766 42.4174 25.7878C42.5348 25.7704 42.6478 25.7573 42.7652 25.74C42.6043 25.7573 42.4435 25.7573 42.2827 25.74C42.4 25.7573 42.5131 25.7704 42.6304 25.7878C42.4565 25.766 42.287 25.7226 42.1218 25.6574L42.4348 25.7878C42.3174 25.74 42.2175 25.6791 42.1045 25.6182C41.8697 25.4878 42.3262 25.8182 42.1653 25.6704C42.1218 25.6313 42.0784 25.5965 42.0393 25.5574C42.0001 25.5183 41.961 25.4748 41.9262 25.4313C41.7741 25.2662 42.1001 25.6965 41.9958 25.5139C41.9262 25.3966 41.861 25.2879 41.8089 25.1618C41.8523 25.2662 41.8958 25.3705 41.9393 25.4748C41.8741 25.3096 41.8306 25.1445 41.8089 24.9662C41.8263 25.0836 41.8393 25.1966 41.8567 25.314C41.8393 25.1531 41.8393 24.9923 41.8567 24.8315C41.8393 24.9488 41.8263 25.0619 41.8089 25.1792C41.8306 25.0054 41.8741 24.8358 41.9393 24.6707C41.8958 24.775 41.8523 24.8793 41.8089 24.9836C41.8567 24.8663 41.9176 24.7663 41.9784 24.6533C42.1088 24.4185 41.7785 24.875 41.9262 24.7141C41.9654 24.6707 42.0001 24.6272 42.0393 24.5881C42.0784 24.549 42.1219 24.5098 42.1653 24.475C42.3305 24.3229 41.9002 24.6489 42.0827 24.5446C42.2001 24.475 42.3088 24.4098 42.4348 24.3577C42.3305 24.4012 42.2262 24.4446 42.1218 24.4881C42.287 24.4229 42.4522 24.3794 42.6304 24.3577C42.513 24.3751 42.4 24.3881 42.2827 24.4055C42.4435 24.3881 42.6043 24.3881 42.7652 24.4055C42.6478 24.3881 42.5348 24.3751 42.4174 24.3577C42.5913 24.3794 42.7608 24.4229 42.926 24.4881C42.8217 24.4446 42.7174 24.4011 42.613 24.3577C42.7304 24.4055 42.8304 24.4664 42.9434 24.5272C43.1781 24.6576 42.7217 24.3273 42.8825 24.475C42.926 24.5142 42.9695 24.5489 43.0086 24.5881C43.0477 24.6272 43.0868 24.6707 43.1216 24.7141C43.2737 24.8793 42.9477 24.449 43.052 24.6315C43.1216 24.7489 43.1868 24.8576 43.239 24.9836L43.1086 24.6706C43.1738 24.8358 43.2172 25.001 43.239 25.1792C43.2216 25.0619 43.2085 24.9488 43.1911 24.8315C43.1998 24.9141 43.2042 24.9923 43.2042 25.0749C43.2129 25.7573 43.7954 26.4094 44.5082 26.3789C45.208 26.3485 45.8253 25.8051 45.8122 25.0749C45.7905 23.6448 44.8951 22.432 43.5606 21.9539C42.3522 21.5192 40.8526 21.9234 40.0397 22.9145C39.5615 23.4926 39.292 24.1447 39.2355 24.8923C39.1834 25.527 39.3616 26.2181 39.692 26.7615C40.0136 27.2918 40.4961 27.7656 41.0612 28.022C41.7611 28.3437 42.4652 28.4263 43.2259 28.2872C44.7386 28.0133 45.7948 26.5615 45.8166 25.0705C45.8253 24.3881 45.2081 23.7361 44.5126 23.7665C43.791 23.8013 43.2172 24.3403 43.2042 25.0749L43.2042 25.0749Z"
    fill="currentColor" />
  <path
    d="M36.5764 19.8931C37.6848 21.1233 38.7976 22.3491 39.9061 23.5793C40.0626 23.7531 40.2191 23.9227 40.3755 24.0965C40.8363 24.6051 41.7579 24.5964 42.2186 24.0965C42.7185 23.5532 42.7098 22.7925 42.2186 22.2534C41.1102 21.0232 39.9974 19.7975 38.8889 18.5673C38.7325 18.3935 38.576 18.2239 38.4195 18.0501C37.9587 17.5415 37.0372 17.5502 36.5764 18.0501C36.0809 18.5891 36.0896 19.3498 36.5764 19.8931Z"
    fill="currentColor" />
</svg>
