<svg width="48" height="49" viewBox="0 0 48 49" fill="none" xmlns="http://www.w3.org/2000/svg">
  <g clip-path="url(#clip0_1414_9847)">
    <path
      d="M24.2016 24.1572C24.6541 23.7047 24.604 22.9502 24.1515 22.5478C23.6989 22.0953 22.9445 22.1454 22.5421 22.5979L20.3293 24.9615L19.4243 24.0059C18.9718 23.5534 18.2677 23.5029 17.8149 23.9558C17.3624 24.4083 17.3118 25.1123 17.7647 25.5652L19.525 27.4257C19.726 27.6772 20.028 27.7779 20.3798 27.7779C20.6815 27.7779 20.9832 27.6271 21.2347 27.4257L24.2016 24.1572Z"
      fill="currentColor" />
    <path
      d="M18.268 36.9309C18.268 37.434 18.6703 37.7858 19.1228 37.7858H22.8944C23.3975 37.7858 23.7493 37.3834 23.7493 36.9309V34.9697C24.554 34.7182 25.3587 34.4165 26.0627 34.0141L27.4708 35.4222C27.823 35.7744 28.3758 35.7744 28.6778 35.4222L31.3431 32.7569C31.6953 32.4047 31.6953 31.8519 31.3431 31.5499L29.935 30.1418C30.3374 29.4378 30.6892 28.6331 30.8906 27.8284H32.8518C33.3549 27.8284 33.7067 27.426 33.7067 26.9735V23.2019C33.7067 22.6989 33.3043 22.3471 32.8518 22.3471H30.8906C30.6391 21.5424 30.3374 20.7376 29.935 20.0336L31.3431 18.6255C31.6953 18.2733 31.6953 17.7205 31.3431 17.4185L28.6778 14.7532C28.3256 14.4011 27.7728 14.4011 27.4708 14.7532L26.0627 16.1613C25.3587 15.759 24.554 15.4071 23.7493 15.2057V13.2445C23.7493 12.7415 23.3469 12.3896 22.8944 12.3896H19.1228C18.6198 12.3896 18.268 12.792 18.268 13.2445V15.2057C17.4633 15.4573 16.6585 15.7589 15.9545 16.1613L14.5464 14.7532C14.1942 14.4011 13.6414 14.4011 13.3394 14.7532L10.6741 17.4185C10.322 17.7707 10.322 18.3235 10.6741 18.6255L12.0822 20.0336C11.6799 20.7376 11.328 21.5423 11.1266 22.3471H9.1654C8.66238 22.3471 8.31055 22.7494 8.31055 23.2019V26.9735C8.31055 27.4766 8.7129 27.8284 9.1654 27.8284H11.1266C11.3782 28.6331 11.6798 29.4378 12.0822 30.1418L10.6741 31.5499C10.322 31.9021 10.322 32.4549 10.6741 32.7569L13.3394 35.4222C13.6916 35.7744 14.2444 35.7744 14.5464 35.4222L15.9545 34.0141C16.6585 34.4165 17.4632 34.7683 18.268 34.9697V36.9309ZM14.7475 25.0126C14.7475 21.5426 17.5636 18.7768 20.9833 18.7768C24.4533 18.7768 27.2192 21.5928 27.2192 25.0126C27.2192 28.432 24.4532 31.2484 20.9833 31.2484C17.5639 31.2484 14.7475 28.4825 14.7475 25.0126Z"
      fill="currentColor" />
    <path
      d="M2.62783 25.0124C2.62783 14.9045 10.8751 6.65719 20.9831 6.65719H21.0332L20.1282 7.5622C19.6252 8.06522 19.6252 8.8194 20.1282 9.32247C20.3797 9.57398 20.6814 9.67465 21.0332 9.67465C21.3349 9.67465 21.6871 9.57398 21.9382 9.32247L25.0058 6.25488C25.2573 6.00337 25.358 5.70169 25.358 5.34987C25.358 4.99768 25.2072 4.69601 25.0058 4.44486L21.9382 1.37727C21.4352 0.874243 20.681 0.874243 20.178 1.37727C19.6749 1.8803 19.6749 2.63448 20.178 3.13754L21.083 4.04255H21.0328C9.51769 4.19304 0.164062 13.547 0.164062 25.0128C0.164062 30.8463 2.4775 36.2271 6.70163 40.1999C6.95315 40.4009 7.25482 40.552 7.55649 40.552C7.90868 40.552 8.21035 40.4012 8.4615 40.1497C8.91402 39.6467 8.91401 38.8423 8.41134 38.3894C4.68991 34.8693 2.62836 30.1421 2.62836 25.0127L2.62783 25.0124Z"
      fill="currentColor" />
    <path
      d="M41.803 25.0126C41.803 19.1791 39.4896 13.7983 35.2654 9.82555C34.7624 9.37304 33.958 9.37304 33.5052 9.87571C33.0526 10.4293 33.0526 11.1834 33.5557 11.6865C37.2771 15.1564 39.3386 19.9337 39.3386 25.0129C39.3386 35.1208 31.0914 43.3681 20.9834 43.3681H20.9332L21.8383 42.4631C22.3413 41.9601 22.3413 41.2059 21.8383 40.7028C21.3352 40.1998 20.581 40.1998 20.078 40.7028L17.0104 43.7704C16.7589 44.0219 16.6582 44.3236 16.6582 44.6754C16.6582 45.0276 16.809 45.3293 17.0104 45.5804L20.078 48.648C20.3295 48.8995 20.6312 49.0002 20.983 49.0002C21.2847 49.0002 21.6368 48.8995 21.888 48.648C22.391 48.145 22.391 47.3908 21.888 46.8877L20.983 45.9827H21.0332C32.4486 45.8322 41.8031 36.4782 41.8031 25.0125L41.803 25.0126Z"
      fill="currentColor" />
  </g>
  <defs>
    <clipPath id="clip0_1414_9847">
      <rect width="48" height="48" fill="white" transform="translate(0 0.560547)" />
    </clipPath>
  </defs>
</svg>
