<svg width="250" height="250" viewBox="0 0 250 250" fill="none" xmlns="http://www.w3.org/2000/svg">
<path d="M117.919 178.455C155.629 178.455 186.199 148.016 186.199 110.468C186.199 72.9194 155.629 42.4805 117.919 42.4805C80.2084 42.4805 49.6382 72.9194 49.6382 110.468C49.6382 148.016 80.2084 178.455 117.919 178.455Z" fill="#F5F5FA"/>
<path d="M119.618 138.992V179.803C119.618 186.868 113.865 192.596 106.769 192.596H44.7204C39.4451 192.596 35.1682 196.855 35.1682 202.107V228.432C35.1682 229.339 34.4308 230.073 33.5204 230.073C32.61 230.073 31.8726 229.339 31.8726 228.432V202.107C31.8726 195.042 37.6253 189.315 44.7204 189.315H106.77C112.045 189.315 116.321 185.057 116.321 179.805V138.992H119.618Z" fill="url(#paint0_linear_6959_109110)"/>
<path d="M124.209 146.254V153.872C124.209 155.692 122.728 157.165 120.901 157.165H115.036C114.027 157.165 113.124 156.716 112.519 156.009V156.007C112.026 155.432 111.728 154.687 111.728 153.872V146.254H124.209Z" fill="url(#paint1_linear_6959_109110)"/>
<path d="M130.729 128.496V143.713C130.729 146.063 128.816 147.969 126.454 147.969H109.484C107.124 147.969 105.21 146.063 105.21 143.713V128.496H130.729Z" fill="url(#paint2_linear_6959_109110)"/>
<path d="M103.691 125.145H132.248C132.558 125.145 132.809 125.394 132.809 125.703V127.936C132.809 128.244 132.558 128.494 132.248 128.494H103.691C103.381 128.494 103.13 128.244 103.13 127.936V125.703C103.13 125.396 103.381 125.145 103.691 125.145Z" fill="#82A9EA"/>
<path d="M114.139 125.146H109.79V114.79C109.79 113.594 110.763 112.625 111.964 112.625C113.164 112.625 114.138 113.594 114.138 114.79V125.146H114.139Z" fill="url(#paint3_linear_6959_109110)"/>
<path d="M126.148 125.146H121.798V114.79C121.798 113.594 122.772 112.625 123.972 112.625C125.173 112.625 126.146 113.594 126.146 114.79V125.146H126.148Z" fill="url(#paint4_linear_6959_109110)"/>
<path opacity="0.3" d="M130.73 128.496V143.713C130.73 146.063 128.816 147.969 126.455 147.969H109.484C107.124 147.969 105.21 146.063 105.21 143.713C123.535 142.446 125.217 128.496 125.217 128.496H130.73Z" fill="#82A9EA"/>
<path d="M130.73 128.496H105.21V129.723H130.73V128.496Z" fill="#7798D0"/>
<path d="M130.729 134.93V143.715C130.729 146.065 128.815 147.971 126.454 147.971H114.541C126.572 147.971 130.729 134.93 130.729 134.93Z" fill="url(#paint5_linear_6959_109110)"/>
<path d="M124.209 147.969H111.729V148.764H124.209V147.969Z" fill="#7093CD"/>
<path d="M114.14 123.629H109.791V125.145H114.14V123.629Z" fill="#82A9EA"/>
<path d="M126.148 123.629H121.798V125.145H126.148V123.629Z" fill="#82A9EA"/>
<path d="M124.209 147.97V153.874C124.209 155.694 122.728 157.167 120.902 157.167H115.036C114.027 157.167 113.125 156.718 112.519 156.01V156.009C121.662 157.126 123.058 147.969 123.058 147.969H124.209V147.97Z" fill="#82A9EA"/>
<path d="M218.151 21.5636C218.151 22.4701 217.412 23.2054 216.502 23.2054H129.17C123.894 23.2054 119.617 27.4639 119.617 32.7166V75.8446H116.321V32.7155C116.321 25.6499 122.073 19.9219 129.17 19.9219H216.502C217.413 19.9219 218.151 20.6571 218.151 21.5636Z" fill="url(#paint6_linear_6959_109110)"/>
<path d="M123.84 73.0508V65.8836C123.84 64.1716 122.446 62.7852 120.728 62.7852H115.209C114.261 62.7852 113.411 63.2079 112.842 63.8735V63.8746C112.378 64.4155 112.098 65.1164 112.098 65.8836V73.0508H123.84Z" fill="url(#paint7_linear_6959_109110)"/>
<path d="M129.974 89.7589V75.4411C129.974 73.2301 128.174 71.4375 125.952 71.4375H109.986C107.766 71.4375 105.965 73.2301 105.965 75.4411V89.7578H129.974V89.7589Z" fill="url(#paint8_linear_6959_109110)"/>
<path d="M104.536 92.9093H131.403C131.694 92.9093 131.93 92.6741 131.93 92.3838V90.2832C131.93 89.9929 131.694 89.7578 131.403 89.7578H104.536C104.244 89.7578 104.008 89.9929 104.008 90.2832V92.3838C104.008 92.6741 104.244 92.9093 104.536 92.9093Z" fill="#82A9EA"/>
<path opacity="0.3" d="M129.974 89.7589V75.4411C129.974 73.2301 128.174 71.4375 125.952 71.4375H109.986C107.766 71.4375 105.965 73.2301 105.965 75.4411C123.205 76.6332 124.788 89.7578 124.788 89.7578H129.974V89.7589Z" fill="#82A9EA"/>
<path d="M129.974 88.6055H105.965V89.7601H129.974V88.6055Z" fill="#ABC1E6"/>
<path d="M129.974 83.7077V75.4411C129.974 73.2301 128.174 71.4375 125.952 71.4375H114.744C126.063 71.4375 129.974 83.7077 129.974 83.7077Z" fill="url(#paint9_linear_6959_109110)"/>
<path d="M123.84 70.6914H112.099V71.4398H123.84V70.6914Z" fill="#81A0D4"/>
<path d="M123.841 71.4381V65.8836C123.841 64.1716 122.447 62.7852 120.729 62.7852H115.21C114.261 62.7852 113.412 63.2079 112.842 63.8735V63.8746C121.444 62.8238 122.758 71.4392 122.758 71.4392H123.841V71.4381Z" fill="#82A9EA"/>
<path d="M89.2338 101.68H82.4503C81.9344 101.68 81.5166 101.264 81.5166 100.75C81.5166 100.236 81.9344 99.8203 82.4503 99.8203H89.2338C89.7497 99.8203 90.1675 100.236 90.1675 100.75C90.1685 101.264 89.7497 101.68 89.2338 101.68Z" fill="url(#paint10_linear_6959_109110)"/>
<path d="M97.8429 93.1098C97.327 93.1098 96.9092 92.6938 96.9092 92.1801V85.4258C96.9092 84.9121 97.327 84.4961 97.8429 84.4961C98.3588 84.4961 98.7765 84.9121 98.7765 85.4258V92.1801C98.7765 92.6938 98.3588 93.1098 97.8429 93.1098Z" fill="url(#paint11_linear_6959_109110)"/>
<path d="M91.6193 95.4858C91.3805 95.4858 91.1418 95.3952 90.9587 95.2139L86.2995 90.5746C85.9353 90.211 85.9353 89.6228 86.2995 89.2602C86.6636 88.8976 87.2554 88.8976 87.6196 89.2602L92.2788 93.8995C92.643 94.2621 92.643 94.8513 92.2788 95.2139C92.0977 95.3942 91.858 95.4858 91.6193 95.4858Z" fill="url(#paint12_linear_6959_109110)"/>
<path d="M146.703 122.598H153.487C154.003 122.598 154.42 123.014 154.42 123.527C154.42 124.041 154.003 124.457 153.487 124.457H146.703C146.187 124.457 145.77 124.041 145.77 123.527C145.77 123.014 146.188 122.598 146.703 122.598Z" fill="url(#paint13_linear_6959_109110)"/>
<path d="M138.094 131.168C138.61 131.168 139.028 131.584 139.028 132.098V138.852C139.028 139.366 138.61 139.782 138.094 139.782C137.578 139.782 137.161 139.366 137.161 138.852V132.098C137.16 131.585 137.578 131.168 138.094 131.168Z" fill="url(#paint14_linear_6959_109110)"/>
<path d="M144.319 128.797C144.558 128.797 144.796 128.888 144.979 129.069L149.639 133.708C150.003 134.071 150.003 134.66 149.639 135.022C149.274 135.385 148.683 135.385 148.318 135.022L143.659 130.383C143.295 130.021 143.294 129.431 143.659 129.069C143.84 128.888 144.08 128.797 144.319 128.797Z" fill="url(#paint15_linear_6959_109110)"/>
<defs>
<linearGradient id="paint0_linear_6959_109110" x1="75.745" y1="138.992" x2="75.745" y2="230.073" gradientUnits="userSpaceOnUse">
<stop stop-color="#D9E5FA"/>
<stop offset="1" stop-color="#7EA6E9"/>
</linearGradient>
<linearGradient id="paint1_linear_6959_109110" x1="117.968" y1="146.254" x2="117.968" y2="157.165" gradientUnits="userSpaceOnUse">
<stop stop-color="#D9E5FA"/>
<stop offset="1" stop-color="#7EA6E9"/>
</linearGradient>
<linearGradient id="paint2_linear_6959_109110" x1="117.97" y1="128.496" x2="117.97" y2="147.969" gradientUnits="userSpaceOnUse">
<stop stop-color="#D9E5FA"/>
<stop offset="1" stop-color="#7EA6E9"/>
</linearGradient>
<linearGradient id="paint3_linear_6959_109110" x1="111.964" y1="112.625" x2="111.964" y2="125.146" gradientUnits="userSpaceOnUse">
<stop stop-color="#D9E5FA"/>
<stop offset="1" stop-color="#7EA6E9"/>
</linearGradient>
<linearGradient id="paint4_linear_6959_109110" x1="123.973" y1="112.625" x2="123.973" y2="125.146" gradientUnits="userSpaceOnUse">
<stop stop-color="#D9E5FA"/>
<stop offset="1" stop-color="#7EA6E9"/>
</linearGradient>
<linearGradient id="paint5_linear_6959_109110" x1="122.635" y1="134.93" x2="122.635" y2="147.971" gradientUnits="userSpaceOnUse">
<stop stop-color="#D9E5FA"/>
<stop offset="1" stop-color="#648AC8"/>
</linearGradient>
<linearGradient id="paint6_linear_6959_109110" x1="167.236" y1="19.9219" x2="167.236" y2="75.8446" gradientUnits="userSpaceOnUse">
<stop stop-color="#D9E5FA"/>
<stop offset="1" stop-color="#7EA6E9"/>
</linearGradient>
<linearGradient id="paint7_linear_6959_109110" x1="117.969" y1="62.7852" x2="117.969" y2="73.0508" gradientUnits="userSpaceOnUse">
<stop stop-color="#D9E5FA"/>
<stop offset="1" stop-color="#7EA6E9"/>
</linearGradient>
<linearGradient id="paint8_linear_6959_109110" x1="117.97" y1="71.4375" x2="117.97" y2="89.7589" gradientUnits="userSpaceOnUse">
<stop stop-color="#D9E5FA"/>
<stop offset="1" stop-color="#7EA6E9"/>
</linearGradient>
<linearGradient id="paint9_linear_6959_109110" x1="122.359" y1="71.4375" x2="122.359" y2="83.7077" gradientUnits="userSpaceOnUse">
<stop stop-color="#D9E5FA"/>
<stop offset="1" stop-color="#648AC8"/>
</linearGradient>
<linearGradient id="paint10_linear_6959_109110" x1="85.842" y1="99.8203" x2="85.842" y2="101.68" gradientUnits="userSpaceOnUse">
<stop stop-color="#D9E5FA"/>
<stop offset="1" stop-color="#7EA6E9"/>
</linearGradient>
<linearGradient id="paint11_linear_6959_109110" x1="97.8429" y1="84.4961" x2="97.8429" y2="93.1098" gradientUnits="userSpaceOnUse">
<stop stop-color="#D9E5FA"/>
<stop offset="1" stop-color="#7EA6E9"/>
</linearGradient>
<linearGradient id="paint12_linear_6959_109110" x1="89.2891" y1="88.9883" x2="89.2891" y2="95.4858" gradientUnits="userSpaceOnUse">
<stop stop-color="#D9E5FA"/>
<stop offset="1" stop-color="#7EA6E9"/>
</linearGradient>
<linearGradient id="paint13_linear_6959_109110" x1="150.095" y1="122.598" x2="150.095" y2="124.457" gradientUnits="userSpaceOnUse">
<stop stop-color="#D9E5FA"/>
<stop offset="1" stop-color="#7EA6E9"/>
</linearGradient>
<linearGradient id="paint14_linear_6959_109110" x1="138.094" y1="131.168" x2="138.094" y2="139.782" gradientUnits="userSpaceOnUse">
<stop stop-color="#D9E5FA"/>
<stop offset="1" stop-color="#7EA6E9"/>
</linearGradient>
<linearGradient id="paint15_linear_6959_109110" x1="146.649" y1="128.797" x2="146.649" y2="135.294" gradientUnits="userSpaceOnUse">
<stop stop-color="#D9E5FA"/>
<stop offset="1" stop-color="#7EA6E9"/>
</linearGradient>
</defs>
</svg>
