<svg fill="none" height="30" viewBox="0 0 31 30" width="31" xmlns="http://www.w3.org/2000/svg"><path d="m30.5 15c0-8.28512-6.7149-15-15-15-8.28512 0-15 6.71488-15 15 0 7.4883 5.48438 13.6934 12.6562 14.8184v-10.4825h-3.80857v-4.3359h3.80857v-3.3047c0-3.7588 2.2384-5.83592 5.6661-5.83592 1.6406 0 3.3574.29296 3.3574.29296v3.69141h-1.8926c-1.8633 0-2.4433 1.15725-2.4433 2.34375v2.8125h4.1601l-.665 4.3359h-3.4951v10.4825c7.1718-1.125 12.6562-7.3301 12.6562-14.8184z" fill="#1877f2"/><path d="m21.3389 19.3359.665-4.3359h-4.1601v-2.8125c0-1.1865.58-2.34375 2.4434-2.34375h1.8925v-3.69141s-1.7168-.29296-3.3574-.29296c-3.4277 0-5.666 2.07712-5.666 5.83592v3.3047h-3.80864v4.3359h3.80864v10.4825c.7646.1201 1.5469.1816 2.3437.1816.7969 0 1.5792-.0615 2.3438-.1816v-10.4825z" fill="#fff"/></svg>