
<svg width="48" height="49" viewBox="0 0 48 49" fill="none" xmlns="http://www.w3.org/2000/svg">
  <path
    d="M44.25 17.8105C44.25 23.548 40.9312 29.4355 34.3875 35.323C31.4161 37.9943 28.1807 40.3565 24.7312 42.373C24.5072 42.4961 24.2557 42.5607 24 42.5607C23.7443 42.5607 23.4928 42.4961 23.2687 42.373C22.6687 42.0355 11.9438 35.9418 6.65625 27.2043C6.5862 27.0907 6.54771 26.9605 6.54476 26.8271C6.54181 26.6937 6.5745 26.562 6.63947 26.4454C6.70443 26.3288 6.79931 26.2317 6.91432 26.1641C7.02934 26.0964 7.16032 26.0607 7.29375 26.0605H13.5C13.7493 26.0628 13.9951 26.0022 14.2147 25.8842C14.4343 25.7662 14.6206 25.5947 14.7562 25.3855L16.5 22.7605L21.2438 29.8855C21.4273 30.1591 21.6948 30.3656 22.006 30.4738C22.3171 30.582 22.655 30.5862 22.9688 30.4855C23.2959 30.3693 23.578 30.1527 23.775 29.8668L26.3063 26.0605H29.9437C30.333 26.0667 30.7101 25.925 30.9989 25.664C31.2877 25.403 31.4668 25.0422 31.5 24.6543C31.5128 24.4496 31.4835 24.2444 31.4139 24.0514C31.3443 23.8585 31.2358 23.6819 31.0952 23.5325C30.9546 23.3831 30.7849 23.2642 30.5965 23.183C30.4082 23.1018 30.2051 23.0601 30 23.0605H25.5C25.2507 23.0583 25.0049 23.1189 24.7853 23.2369C24.5657 23.3549 24.3794 23.5264 24.2438 23.7355L22.5 26.3605L17.7562 19.2355C17.5727 18.962 17.3052 18.7555 16.994 18.6473C16.6829 18.5391 16.345 18.5349 16.0312 18.6355C15.7041 18.7518 15.422 18.9684 15.225 19.2543L12.6937 23.0605H5.2125C5.05341 23.0599 4.89864 23.0087 4.77056 22.9143C4.64248 22.82 4.54773 22.6873 4.5 22.5355C4.01699 21.0065 3.76422 19.414 3.75 17.8105C3.75 15.4494 4.49292 13.148 5.87353 11.2326C7.25413 9.31707 9.20243 7.88453 11.4424 7.13786C13.6824 6.39119 16.1006 6.36824 18.3544 7.07227C20.6082 7.7763 22.5833 9.1716 24 11.0605C25.4167 9.1716 27.3918 7.7763 29.6456 7.07227C31.8994 6.36824 34.3176 6.39119 36.5576 7.13786C38.7976 7.88453 40.7459 9.31707 42.1265 11.2326C43.5071 13.148 44.25 15.4494 44.25 17.8105Z"
    fill="currentColor" />

</svg>
