<svg fill="none" height="35" viewBox="0 0 40 35" width="40" xmlns="http://www.w3.org/2000/svg" xmlns:xlink="http://www.w3.org/1999/xlink"><filter id="a" color-interpolation-filters="sRGB" filterUnits="userSpaceOnUse" height="37.7012" width="43.0415" x="-1.54688" y="-.3125"><feFlood flood-opacity="0" result="BackgroundImageFix"/><feColorMatrix in="SourceAlpha" result="hardAlpha" type="matrix" values="0 0 0 0 0 0 0 0 0 0 0 0 0 0 0 0 0 0 127 0"/><feOffset dy="1"/><feGaussianBlur stdDeviation="1"/><feComposite in2="hardAlpha" operator="out"/><feColorMatrix type="matrix" values="0 0 0 0 0 0 0 0 0 0 0 0 0 0 0 0 0 0 0.25 0"/><feBlend in2="BackgroundImageFix" mode="normal" result="effect1_dropShadow_1374_5841"/><feBlend in="SourceGraphic" in2="effect1_dropShadow_1374_5841" mode="normal" result="shape"/></filter><filter id="b" color-interpolation-filters="sRGB" filterUnits="userSpaceOnUse" height="12.1133" width="12.2114" x="12.6953" y="15.0039"><feFlood flood-opacity="0" result="BackgroundImageFix"/><feColorMatrix in="SourceAlpha" result="hardAlpha" type="matrix" values="0 0 0 0 0 0 0 0 0 0 0 0 0 0 0 0 0 0 127 0"/><feOffset dy="1"/><feGaussianBlur stdDeviation="1"/><feComposite in2="hardAlpha" operator="out"/><feColorMatrix type="matrix" values="0 0 0 0 0 0 0 0 0 0 0 0 0 0 0 0 0 0 0.25 0"/><feBlend in2="BackgroundImageFix" mode="normal" result="effect1_dropShadow_1374_5841"/><feBlend in="SourceGraphic" in2="effect1_dropShadow_1374_5841" mode="normal" result="shape"/></filter><filter id="c" color-interpolation-filters="sRGB" filterUnits="userSpaceOnUse" height="12.1016" width="12.2044" x="15.0469" y="17.3242"><feFlood flood-opacity="0" result="BackgroundImageFix"/><feColorMatrix in="SourceAlpha" result="hardAlpha" type="matrix" values="0 0 0 0 0 0 0 0 0 0 0 0 0 0 0 0 0 0 127 0"/><feOffset dy="1"/><feGaussianBlur stdDeviation="1"/><feComposite in2="hardAlpha" operator="out"/><feColorMatrix type="matrix" values="0 0 0 0 0 0 0 0 0 0 0 0 0 0 0 0 0 0 0.25 0"/><feBlend in2="BackgroundImageFix" mode="normal" result="effect1_dropShadow_1374_5841"/><feBlend in="SourceGraphic" in2="effect1_dropShadow_1374_5841" mode="normal" result="shape"/></filter><clipPath id="d"><path d="m.453125.6875h39.0423v33.7021h-39.0423z"/></clipPath><g clip-path="url(#d)"><g filter="url(#a)"><path d="m5.41279 20.9057c-.56431 0-1.08981 0-1.61608 0-.78787 0-1.57573.0015-2.36281-.0008-.41218-.0015-.724992-.1788-.894984-.554-.173873-.3821-.072965-.7236.208027-1.0198.159125-.1673.326787-.3269.491347-.4888 5.92565-5.8595 11.85131-11.71901 17.77771-17.57852.073-.07213.1452-.14579.2197-.21639.5014-.478829.9873-.483433 1.4865.00767 1.3917 1.36819 2.7773 2.74329 4.1659 4.11455.097.09515.2003.18416.361.33149 0-.46731-.0016-.8579 0-1.24848.0031-.76198.3438-1.10882 1.1014-1.11036 1.5369-.0023 3.0731-.00307 4.61 0 .7436.00154 1.0952.34531 1.096 1.07583.0023 2.43865.0148 4.87729-.0101 7.31591-.0054.5088.1304.8679.5053 1.2324 2.1564 2.0933 4.2832 4.2158 6.4194 6.3284.0729.0721.1467.1434.2173.2179.2787.2939.3959.6284.2298 1.0167-.17.3967-.4906.5755-.9191.5755-1.162.0008-2.3248 0-3.4868.0008-.1405 0-.2809 0-.4766 0v.465 11.8357c0 .8663-.3167 1.1825-1.1845 1.1825-8.9234.0007-17.846.0007-26.76942.0007-.83987 0-1.16899-.3269-1.16899-1.1602-.00077-3.945 0-7.8907 0-11.8357 0-.1504 0-.3 0-.488zm14.67441-17.97446c-5.4972 5.43516-10.9144 10.79126-16.33008 16.14586.74517 0 1.52837-.0008 2.31158 0 .8748.0008 1.19382.3139 1.1946 1.1718.00078 3.958.00078 7.9152.00078 11.8732v.4128h25.42352c0-.1504 0-.2754 0-.4013 0-1.6084 0-3.2175 0-4.8259 0-2.3872-.0016-4.7744.0015-7.1624.0008-.7075.3579-1.0636 1.0665-1.0674.7235-.0046 1.4461 0 2.1696-.0023.1071 0 .2142-.0146.3749-.0269-.139-.1435-.2337-.2455-.3322-.343-1.7434-1.7242-3.4814-3.4554-5.2372-5.1673-.3656-.3569-.5363-.7329-.5317-1.2485.0217-2.2852.0093-4.57038.0093-6.85556 0-.14733 0-.29466 0-.43202-1.0696 0-2.081 0-3.1087 0 0 .89857-.0024 1.76568.0007 2.63356.0016.40516-.1513.72208-.5216.91238-.3951.20258-.7739.10896-1.1798-.29083-1.6083-1.58688-3.2159-3.17607-4.8196-4.76833-.1909-.188-.3555-.40132-.4921-.55786z" fill="#fff"/></g><path d="m20.0887 2.93164c.1366.15654.3019.36986.4913.55863 1.6037 1.59226 3.2105 3.18068 4.8196 4.76833.4052.39979.7839.49341 1.1798.29083.3703-.18954.5232-.50645.5216-.91238-.0038-.86788-.0007-1.73499-.0007-2.63356h3.1087v.43202c0 2.28518.0124 4.57039-.0093 6.85549-.0047.5165.1653.8917.5317 1.2485 1.7558 1.7128 3.493 3.4431 5.2372 5.1674.0985.0974.1932.1987.3322.343-.1607.0115-.2678.0261-.3749.0268-.7235.0023-1.4461-.0023-2.1696.0023-.7086.0039-1.0657.3599-1.0665 1.0674-.0023 2.3873-.0015 4.7745-.0015 7.1625v4.8259.4013c-8.4771 0-16.927 0-25.42353 0 0-.1412 0-.277 0-.4128 0-3.958 0-7.9153-.00078-11.8733 0-.8579-.3198-1.171-1.1946-1.1717-.7832-.0008-1.56718 0-2.31158 0 5.41568-5.3554 10.83369-10.7115 16.33089-16.14666zm7.01 18.29676c.0039-3.8874-3.1825-7.0458-7.1125-7.0504s-7.1303 3.1484-7.1334 7.0289c-.0039 3.8874 3.1825 7.0458 7.1117 7.0512 3.93.0054 7.1303-3.1484 7.1342-7.0297z" fill="#fff"/><g filter="url(#b)"><path d="m22.9067 16.9373c-2.4303 2.4041-4.8451 4.7929-7.2576 7.1801-1.2001-1.4403-1.509-4.4153.5061-6.4972 1.9925-2.0588 5.0345-1.9951 6.7515-.6829z" fill="#fff"/></g><g filter="url(#c)"><path d="m17.0469 25.499c2.4303-2.4034 4.8451-4.7898 7.2569-7.1748 1.2031 1.458 1.4911 4.42-.5147 6.4895-2.0003 2.0642-5.0454 1.9783-6.7422.6853z" fill="#fff"/></g></g></svg>