<svg fill="none" height="24" viewBox="0 0 24 24" width="24" xmlns="http://www.w3.org/2000/svg"><path d="m20.0062 10.2759-7.5-6.81559c-.1382-.12649-.3188-.19664-.5062-.19664s-.368.07015-.5063.19664l-7.49995 6.81559c-.07547.0713-.13592.157-.17778.252s-.06429.1974-.06597.3012v8.6718c0 .1989.07902.3897.21967.5304.14065.1406.33142.2196.53033.2196h15c.1989 0 .3897-.079.5303-.2196.1407-.1407.2197-.3315.2197-.5304v-8.6718c-.0017-.1038-.0241-.2062-.066-.3012-.0418-.095-.1023-.1807-.1778-.252z" stroke="#000" stroke-linecap="round" stroke-linejoin="round" stroke-width="1.5"/></svg>