
<svg width="48" height="49" viewBox="0 0 48 49" fill="none" xmlns="http://www.w3.org/2000/svg">
  <path
    d="M33.0003 44.0608C33.0003 44.4587 32.8423 44.8402 32.561 45.1215C32.2797 45.4028 31.8982 45.5608 31.5003 45.5608H16.5003C16.1025 45.5608 15.721 45.4028 15.4397 45.1215C15.1584 44.8402 15.0003 44.4587 15.0003 44.0608C15.0003 43.663 15.1584 43.2815 15.4397 43.0002C15.721 42.7189 16.1025 42.5608 16.5003 42.5608H31.5003C31.8982 42.5608 32.2797 42.7189 32.561 43.0002C32.8423 43.2815 33.0003 43.663 33.0003 44.0608ZM40.5003 20.0608C40.5053 22.5601 39.9405 25.0277 38.8489 27.2759C37.7572 29.5242 36.1674 31.4941 34.2003 33.0358C33.8288 33.3163 33.5272 33.6788 33.319 34.0952C33.1108 34.5115 33.0018 34.9703 33.0003 35.4358V36.5608C33.0003 37.3565 32.6843 38.1195 32.1216 38.6821C31.559 39.2448 30.796 39.5608 30.0003 39.5608H18.0003C17.2047 39.5608 16.4416 39.2448 15.879 38.6821C15.3164 38.1195 15.0003 37.3565 15.0003 36.5608V35.4358C14.999 34.9769 14.8938 34.5242 14.6924 34.1118C14.4911 33.6993 14.1989 33.3379 13.8378 33.0546C11.8748 31.5235 10.2847 29.5671 9.18694 27.3327C8.08922 25.0983 7.51255 22.644 7.50033 20.1546C7.44408 11.2108 14.6816 3.76708 23.6066 3.56083C25.807 3.50574 27.9961 3.89195 30.0448 4.69669C32.0935 5.50143 33.9602 6.70838 35.5349 8.24632C37.1095 9.78426 38.3602 11.622 39.213 13.6512C40.0658 15.6803 40.5035 17.8598 40.5003 20.0608ZM34.3503 18.2983C33.9866 16.1549 32.9643 14.1779 31.4253 12.6423C29.8863 11.1066 27.9071 10.0886 25.7628 9.72958C25.5683 9.69757 25.3694 9.70419 25.1774 9.74905C24.9855 9.79392 24.8042 9.87616 24.644 9.99107C24.4838 10.106 24.3479 10.2513 24.2439 10.4188C24.1398 10.5862 24.0698 10.7726 24.0378 10.9671C24.0058 11.1616 24.0124 11.3605 24.0573 11.5525C24.1022 11.7444 24.1844 11.9257 24.2993 12.0859C24.4142 12.2461 24.5596 12.382 24.727 12.486C24.8945 12.5901 25.0808 12.6601 25.2753 12.6921C26.8037 12.9479 28.214 13.6744 29.3098 14.7701C30.4055 15.8659 31.132 17.2762 31.3878 18.8046C31.4496 19.1522 31.632 19.4669 31.903 19.6932C32.1739 19.9196 32.516 20.0431 32.8691 20.0421H33.1316C33.3275 20.0105 33.5151 19.9399 33.6832 19.8345C33.8513 19.729 33.9965 19.5909 34.1101 19.4282C34.2238 19.2656 34.3037 19.0818 34.3449 18.8877C34.3862 18.6936 34.388 18.4932 34.3503 18.2983Z"
    fill="currentColor" />

</svg>
