<svg fill="none" height="30" viewBox="0 0 31 30" width="31" xmlns="http://www.w3.org/2000/svg"><rect fill="#d8dce7" height="30" rx="15" width="30" x=".5"/><g stroke="#545866" stroke-linecap="round" stroke-linejoin="round" stroke-width="1.6"><path d="m15.0705 10.0383 1.9146-1.91526c.3951-.39554.8641-.70934 1.3804-.92348s1.0697-.32443 1.6287-.32456c.5589-.00013 1.1124.1099 1.6288.3238s.9856.52749 1.3808.92284.7087.86471.9225 1.38129c.2138.51657.3238 1.07027.3237 1.62937s-.1104 1.1127-.3244 1.6292c-.2141.5164-.5278.9857-.9232 1.3808l-2.7351 2.7361c-.3951.3952-.8642.7087-1.3804.9226s-1.0695.324-1.6283.324c-.5587 0-1.112-.1101-1.6282-.324-.5163-.2139-.9853-.5274-1.3804-.9226"/><path d="m15.9295 19.9617-1.9146 1.9153c-.3951.3955-.8641.7093-1.3804.9234-.5163.2142-1.0697.3245-1.6287.3246-.5589.0001-1.11235-.1099-1.62875-.3238-.51641-.2139-.98562-.5275-1.38083-.9228-.39522-.3954-.7087-.8648-.92253-1.3813-.21383-.5166-.32382-1.0703-.32369-1.6294s.11038-1.1127.32445-1.6292c.21407-.5164.52777-.9857.92317-1.3808l2.73508-2.7361c.3951-.3952.8642-.7087 1.3804-.9226s1.0695-.324 1.6283-.324c.5587 0 1.112.1101 1.6282.324s.9853.5274 1.3804.9226"/></g></svg>