<svg fill="none" height="13" viewBox="0 0 157 13" width="157" xmlns="http://www.w3.org/2000/svg"><path d="m.8 3.22133v7.13997h.9v-5.93997h.02l2.23 5.93997h.81l2.23-5.93997h.02v5.93997h.9v-7.13997h-1.3l-2.26 6-2.25-6zm13.1309 7.11997c-.1466.0867-.35.13-.61.13-.22 0-.3966-.06-.53-.18-.1266-.1266-.19-.32997-.19-.60997-.2333.28-.5066.48337-.82.60997-.3066.12-.64.18-1 .18-.2333 0-.4566-.0266-.67-.08-.20663-.0533-.38663-.1366-.53996-.25-.15334-.1133-.27667-.25997-.37-.43997-.08667-.18667-.13-.41-.13-.67 0-.29334.05-.53334.15-.72.1-.18667.23-.33667.39-.45.16666-.12.35333-.21.55996-.27.2134-.06.43-.11.65-.15.2334-.04667.4534-.08.66-.1.2134-.02667.4-.06.56-.1.16-.04667.2867-.11.38-.19.0934-.08667.14-.21.14-.37 0-.18667-.0366-.33667-.11-.45-.0666-.11334-.1566-.2-.27-.26-.1066-.06-.23-.1-.37-.12-.1333-.02-.2666-.03-.4-.03-.36 0-.66.07-.9.21-.24.13333-.37.39-.39.77h-.84996c.01333-.32.08-.59.2-.81s.28-.39667.48-.53c.19996-.14.42666-.24.67996-.3.26-.06.5367-.09.83-.09.2334 0 .4634.01666.69.05.2334.03333.4434.10333.63.21.1867.1.3367.24333.45.43.1134.18666.17.43.17.73v2.66c0 .2.01.34666.03.44.0267.09333.1067.14.24.14.0734 0 .16-.01667.26-.05zm-1.38-2.64997c-.1066.08-.2466.14-.42.18-.1733.03333-.3566.06333-.55.09-.1866.02-.3766.04666-.57.08-.1933.02666-.3666.07333-.52.14-.1533.06666-.28.16333-.38.29-.0933.12-.13996.28666-.13996.5 0 .14.02666.26.07996.36.06.09333.1334.17.22.23.0934.06.2.10333.32.13.12.02666.2467.04.38.04.28 0 .52-.03667.72-.11.2-.08.3634-.17667.49-.29.1267-.12.22-.24667.28-.38.06-.14.09-.27.09-.39zm2.7911.13c0-.25334.0267-.5.08-.74.0534-.24.14-.45334.26-.64.12-.18667.28-.33667.48-.45.2-.11334.4434-.17.73-.17.2934 0 .5434.05666.75.17.2067.10666.3734.25.5.43.1334.18.23.39.29.63.06.23333.09.47666.09.73 0 .24-.03.47666-.09.71-.0533.23333-.1433.44333-.27.63-.1266.18-.29.32666-.49.44-.2.11333-.4433.17-.73.17-.2733 0-.5133-.05334-.72-.16-.2-.10667-.3666-.25-.5-.43-.1266-.18-.2233-.38334-.29-.61-.06-.23334-.09-.47-.09-.71zm4 2.53997v-7.13997h-.85v2.66h-.02c-.0933-.15334-.21-.28-.35-.38-.1333-.10667-.2766-.19-.43-.25-.1533-.06667-.3066-.11334-.46-.14-.1533-.02667-.2966-.04-.43-.04-.3933 0-.74.07333-1.04.22-.2933.14-.54.33333-.74.58-.1933.24-.34.52333-.44.85-.0933.32666-.14.67333-.14 1.04 0 .36666.05.71333.15 1.04.1.32666.2467.61333.44.86.2.24666.4467.44337.74.58997.3.1467.65.22 1.05.22.36 0 .69-.0633.99-.19.3-.1266.52-.33331.66-.61997h.02v.69997zm4.8978-3.07997h-2.97c.0133-.2.0566-.38667.13-.56.0733-.18.1733-.33667.3-.47.1266-.13334.2766-.23667.45-.31.18-.08.38-.12.6-.12.2133 0 .4066.04.58.12.18.07333.3333.17666.46.31.1333.12666.2366.28.31.46.08.18.1266.37.14.57zm.82 1.44h-.84c-.0734.34-.2267.59333-.46.76-.2267.16666-.52.25-.88.25-.28 0-.5234-.04667-.73-.14-.2067-.09334-.3767-.21667-.51-.37-.1334-.16-.23-.34-.29-.54-.06-.20667-.0867-.42334-.08-.65h3.87c.0133-.31334-.0167-.64334-.09-.99-.0667-.34667-.1934-.66667-.38-.96-.18-.29334-.4234-.53334-.73-.72-.3-.19334-.68-.29-1.14-.29-.3534 0-.68.06666-.98.2-.2934.13333-.55.32-.77.56-.2134.24-.38.52333-.5.85-.12.32666-.18.68666-.18 1.08.0133.39333.07.75666.17 1.09.1066.33333.2633.62.47.86.2066.24.46.42667.76.55997.3066.1334.6666.2 1.08.2.5866 0 1.0733-.1466 1.46-.44.3866-.29331.6366-.72997.75-1.30997zm3.7743-5.5v7.13997h.85v-.68997h.02c.0933.15333.2066.28333.34.38997.14.1.2866.18.44.24.1533.06.3066.1034.46.13.16.0267.3033.04.43.04.3933 0 .7366-.07 1.03-.21.3-.14.5466-.32997.74-.56997.2-.24667.3466-.53334.44-.86.1-.32667.15-.67334.15-1.04 0-.36667-.05-.71334-.15-1.04-.1-.32667-.25-.61334-.45-.86-.1934-.25334-.44-.45334-.74-.6-.2934-.14667-.64-.22-1.04-.22-.36 0-.69.06666-.99.2-.3.12666-.52.33333-.66.62h-.02v-2.67zm4 4.51c0 .25333-.0267.5-.08.74-.0534.24-.14.45333-.26.64-.12.18666-.28.33666-.48.45-.1934.11333-.4367.17-.73.17-.2934 0-.5434-.05334-.75-.16-.2067-.11334-.3767-.26-.51-.44-.1267-.18-.22-.38667-.28-.62-.06-.24-.09-.48667-.09-.74 0-.24.0266-.47667.08-.71.06-.23334.1533-.44.28-.62.1266-.18667.29-.33667.49-.45.2-.11334.4433-.17.73-.17.2733 0 .51.05333.71.16.2066.10666.3733.25.5.43.1333.18.23.38666.29.62.0666.22666.1.46.1.7zm3.9277 3.31997c-.1.2534-.2.4667-.3.64-.0933.1734-.2.3134-.32.42-.1133.1134-.2433.1934-.39.24-.14.0534-.3033.08-.49.08-.1 0-.2-.0066-.3-.02-.1-.0133-.1967-.0366-.29-.07v-.78c.0733.0334.1567.06.25.08.1.0267.1833.04.25.04.1733 0 .3167-.0433.43-.13.12-.08.21-.1966.27-.35l.35-.87-2.05-5.13997h.96l1.51 4.23h.02l1.45-4.23h.9zm38.5812-2.85997c0-.63467-.1867-1.11067-.56-1.428-.364-.32667-.882-.518-1.554-.574l-1.12-.098c-.3827-.03734-.644-.126-.784-.266-.1307-.14934-.196-.33134-.196-.546 0-.27067.1073-.49.322-.658s.5367-.252.966-.252c.336 0 .6533.042.952.126.308.07466.574.20533.798.392l.896-.91c-.3267-.28934-.714-.49467-1.162-.616-.448-.12134-.938-.182-1.47-.182-.3733 0-.7233.05133-1.05.154-.3173.09333-.5973.23333-.84.42-.2427.17733-.434.40133-.574.672-.14.27066-.21.57866-.21.924 0 .62533.182 1.09666.546 1.414.364.308.882.49 1.554.546l1.134.098c.3453.028.588.11666.728.266.1493.14.224.33133.224.574 0 .336-.1493.58333-.448.742-.2987.15866-.6673.238-1.106.238-.3547 0-.714-.04667-1.078-.14-.3547-.10267-.6767-.30334-.966-.602l-.938.938c.42.41066.8773.68597 1.372.82597.4947.1307 1.0313.196 1.61.196.42 0 .812-.0466 1.176-.14.364-.0933.6767-.2333.938-.41997.2613-.196.4667-.434.616-.714s.224-.60667.224-.98zm4.5676 2.16997v-1.21797h-.588c-.2707 0-.4713-.07-.602-.21-.1213-.14934-.182-.35467-.182-.616v-3.836h1.372v-1.092h-1.372v-2.156h-1.428v2.156h-.812v1.092h.812v3.906c0 .252.0373.49933.112.742.084.23333.2053.44333.364.63.1587.17733.3593.32197.602.43397s.532.168.868.168zm6.9708 0v-4.74597c0-1.624-.9753-2.436-2.926-2.436-.588 0-1.078.07466-1.47.224-.3827.14-.742.406-1.078.798l.938.882c.196-.252.406-.42934.63-.532.224-.10267.532-.154.924-.154.56 0 .9567.112 1.19.336.2427.21466.364.546.364.994v.504h-1.876c-.8213 0-1.4373.19133-1.848.574-.4013.38266-.602.87266-.602 1.47 0 .62533.1867 1.134.56 1.526.2147.21467.4713.37797.77.48997.308.1027.686.154 1.134.154.4387 0 .798-.056 1.078-.168s.5507-.29864.812-.55997v.64397zm-1.428-2.56197c0 .49466-.1027.84466-.308 1.05-.1867.18666-.3873.30333-.602.35-.2147.03733-.4573.056-.728.056-.448 0-.7793-.084-.994-.252-.2053-.17734-.308-.42934-.308-.756 0-.32667.1073-.57867.322-.756.2147-.17734.532-.266.952-.266h1.666zm8.7678 1.638-.98-.938c-.224.24266-.4386.41533-.644.518-.196.10266-.434.154-.714.154-.56 0-.9986-.21-1.316-.63-.1586-.196-.2706-.42934-.336-.7-.056-.27067-.084-.616-.084-1.036s.028-.76067.084-1.022c.0654-.27067.1774-.504.336-.7.3174-.42.756-.63 1.316-.63.28 0 .518.05133.714.154.2054.10266.42.27533.644.518l.98-.952c-.336-.35467-.686-.60667-1.05-.756-.364-.15867-.7933-.238-1.288-.238-.4013 0-.7933.06533-1.176.196-.3733.13066-.7093.34066-1.008.63-.2893.28-.5273.65333-.714 1.12-.1773.45733-.266 1.01733-.266 1.68 0 .66266.0887 1.22733.266 1.694.1867.45733.4247.83066.714 1.12.2987.28933.6347.49937 1.008.62997.3827.1307.7747.196 1.176.196.4947 0 .924-.0793 1.288-.238.364-.1586.714-.41531 1.05-.76997zm7.8868.92397-2.7719-4.31197 2.4639-2.786h-1.736l-2.7579 3.276v-6.146002h-1.428v9.967972h1.428v-2.08597l1.05-1.19 1.9879 3.27597zm11.495-9.967972h-1.596l-2.296 7.252002-2.296-7.252002h-1.568l3.276 9.967972h1.176zm2.681 1.470002v-1.512002h-1.512v1.512002zm-.042 8.49797v-7.09797h-1.428v7.09797zm7.919-3.13597v-.63c0-.504-.07-.966-.21-1.386-.131-.42-.327-.77934-.588-1.078-.252-.29867-.565-.532-.938-.7s-.798-.252-1.274-.252c-.915 0-1.647.31733-2.198.952-.541.62533-.812 1.51666-.812 2.674 0 .672.084 1.24133.252 1.708.168.46666.392.84466.672 1.134.289.28.625.48537 1.008.61597.392.1214.812.182 1.26.182.308 0 .583-.0233.826-.07.252-.0466.481-.1166.686-.21.215-.0933.411-.20531.588-.33597.187-.14.373-.30334.56-.49l-.91-.854c-.252.252-.504.43866-.756.56-.243.112-.565.168-.966.168-.588 0-1.036-.17734-1.344-.532-.308-.35467-.462-.84-.462-1.456zm-1.414-.994h-3.192c.009-.21467.023-.38734.042-.518.019-.14.065-.28934.14-.448.112-.27067.289-.48534.532-.644.252-.168.546-.252.882-.252s.625.084.868.252c.243.15866.42.37333.532.644.075.15866.121.308.14.448.028.13066.047.30333.056.518zm6.273 4.12997v-1.21797h-.588c-.271 0-.471-.07-.602-.21-.121-.14934-.182-.35467-.182-.616v-3.836h1.372v-1.092h-1.372v-2.156h-1.428v2.156h-.812v1.092h.812v3.906c0 .252.037.49933.112.742.084.23333.205.44333.364.63.159.17733.359.32197.602.43397s.532.168.868.168zm7.571 0v-4.53597c0-.40134-.051-.76534-.154-1.092-.103-.336-.289-.63934-.56-.91-.215-.20534-.471-.364-.77-.476-.289-.112-.616-.168-.98-.168-.355 0-.7.06533-1.036.196-.327.13066-.611.33133-.854.602v-.714h-1.4v7.09797h1.428v-4.32597c0-.54134.145-.938.434-1.19.289-.26134.635-.392 1.036-.392s.737.126 1.008.378c.28.252.42.65333.42 1.204v4.32597zm7.425 0v-4.74597c0-1.624-.975-2.436-2.926-2.436-.588 0-1.078.07466-1.47.224-.383.14-.742.406-1.078.798l.938.882c.196-.252.406-.42934.63-.532.224-.10267.532-.154.924-.154.56 0 .957.112 1.19.336.243.21466.364.546.364.994v.504h-1.876c-.821 0-1.437.19133-1.848.574-.401.38266-.602.87266-.602 1.47 0 .62533.187 1.134.56 1.526.215.21467.471.37797.77.48997.308.1027.686.154 1.134.154.439 0 .798-.056 1.078-.168s.551-.29864.812-.55997v.64397zm-1.428-2.56197c0 .49466-.103.84466-.308 1.05-.187.18666-.387.30333-.602.35-.215.03733-.457.056-.728.056-.448 0-.779-.084-.994-.252-.205-.17734-.308-.42934-.308-.756 0-.32667.107-.57867.322-.756.215-.17734.532-.266.952-.266h1.666zm13.71 2.56197v-4.53597c0-.40134-.061-.76534-.182-1.092-.112-.336-.303-.63934-.574-.91-.215-.20534-.476-.364-.784-.476s-.644-.168-1.008-.168c-.915 0-1.657.34533-2.226 1.036-.448-.69067-1.12-1.036-2.016-1.036-.355 0-.7.07-1.036.21-.327.13066-.611.32666-.854.588v-.714h-1.4v7.09797h1.428v-4.32597c0-.54134.145-.938.434-1.19.289-.26134.635-.392 1.036-.392s.737.126 1.008.378c.28.252.42.65333.42 1.204v4.32597h1.428v-4.39597c0-.252.037-.47134.112-.658.084-.196.191-.35467.322-.476.14-.13067.299-.224.476-.28.177-.06534.364-.098.56-.098.401 0 .737.126 1.008.378.28.252.42.65333.42 1.204v4.32597z" fill="#fefefe"/><path d="m47.797 7.21133v-6.818002h-1.512v6.706002c0 .65333-.1633 1.148-.49 1.484-.3173.336-.756.504-1.316.504-.364 0-.6487-.056-.854-.168-.196-.112-.3827-.25667-.56-.434l-1.008.994c.3453.34533.7047.59267 1.078.74197.3827.1494.8307.224 1.344.224.4573 0 .8867-.07 1.288-.21.4013-.1493.7513-.35931 1.05-.62997.308-.27067.546-.60667.714-1.008.1773-.40134.266-.86334.266-1.386zm9.6613 3.14997-3.654-9.967972h-1.218l-3.654 9.967972h1.61l.686-2.00197h3.934l.686 2.00197zm-2.716-3.28997h-3.066l1.554-4.424zm12.922 3.28997v-9.967972h-1.512l-2.856 6.202002-2.912-6.202002h-1.512v9.967972h1.512v-6.66397l2.352 4.858h1.12l2.296-4.858v6.66397z" fill="#ff6f00"/></svg>