<svg width="48" height="49" viewBox="0 0 48 49" fill="none" xmlns="http://www.w3.org/2000/svg">
  <path
    d="M24.0256 4.56139C23.9826 4.55972 23.9394 4.56056 23.8961 4.56363C23.5859 4.59069 23.2969 4.73269 23.0859 4.96174L18.7114 9.66576C18.4879 9.90429 18.3668 10.2209 18.3741 10.5477C18.3813 10.8744 18.5161 11.1852 18.7499 11.4136C18.9837 11.6421 19.2975 11.7702 19.6242 11.7699H20.9913V18.2366C20.9927 18.5664 21.1241 18.8822 21.3573 19.1154C21.5905 19.3487 21.9064 19.4804 22.2364 19.4818H25.7517C26.0832 19.4829 26.4015 19.3523 26.6367 19.1191C26.8722 18.8856 27.005 18.5681 27.0064 18.2367V11.77H28.3636C28.6915 11.7728 29.0076 11.6464 29.243 11.4184C29.4787 11.1902 29.6154 10.8789 29.6235 10.551C29.6316 10.2229 29.5105 9.90517 29.2862 9.66577L24.9117 4.96176C24.6826 4.71401 24.3629 4.56978 24.0256 4.56141L24.0256 4.56139ZM9.91847 18.947C9.61715 18.9565 9.32924 19.0743 9.10798 19.279L4.40147 23.6438C4.14564 23.8804 4 24.2132 4 24.5617C4 24.9104 4.14564 25.243 4.40147 25.4796L9.10798 29.8444C9.34707 30.0634 9.66177 30.1811 9.98596 30.1725C10.3101 30.1638 10.6181 30.0293 10.8452 29.7981C11.072 29.5665 11.2004 29.2557 11.2023 28.9315V27.5644H17.669C17.9988 27.563 18.3149 27.4314 18.5481 27.1984C18.7811 26.9652 18.9128 26.6491 18.9142 26.3193V22.804C18.9153 22.4726 18.785 22.1542 18.5515 21.9187C18.318 21.6835 18.0005 21.5505 17.6691 21.5494H11.2024V20.1943C11.2018 19.8573 11.0654 19.5347 10.8235 19.2999C10.5819 19.0652 10.2555 18.9377 9.91848 18.947L9.91847 18.947ZM37.977 18.947C37.6561 18.9621 37.3534 19.1002 37.1316 19.3323C36.9098 19.5647 36.786 19.8733 36.7854 20.1944V21.5495H30.3288C29.9957 21.5481 29.6757 21.68 29.4403 21.9155C29.2045 22.151 29.0728 22.471 29.0739 22.804V26.3193C29.0753 26.6508 29.2081 26.9682 29.4436 27.2017C29.6788 27.4352 29.9974 27.5655 30.3289 27.5644H36.7858V28.9315H36.7855C36.7855 29.2582 36.9133 29.572 37.1418 29.8058C37.3702 30.0393 37.6813 30.1744 38.008 30.1816C38.3347 30.1889 38.6514 30.0678 38.8899 29.8443L43.5964 25.4796C43.8523 25.243 43.9979 24.9104 43.9979 24.5616C43.9979 24.2132 43.8523 23.8804 43.5964 23.6437L38.8899 19.279C38.6428 19.0499 38.3135 18.93 37.9771 18.947L37.977 18.947ZM23.9991 20.4435C21.7399 20.4435 19.8734 22.2977 19.8734 24.557C19.8734 26.8162 21.7396 28.6824 23.9991 28.6824C26.2584 28.6824 28.1148 26.8162 28.1148 24.557C28.1148 22.2977 26.2584 20.4435 23.9991 20.4435ZM22.2368 29.6419C21.9067 29.6433 21.5909 29.7747 21.3576 30.0079C21.1244 30.2411 20.993 30.5569 20.9916 30.8867V37.3534H19.6245C19.2978 37.3534 18.984 37.4812 18.7502 37.7097C18.5164 37.9382 18.3816 38.2493 18.3744 38.576C18.3671 38.9027 18.4882 39.2193 18.7117 39.4579L23.0862 44.1644C23.3225 44.4171 23.6532 44.5605 23.9991 44.5605C24.345 44.5605 24.6756 44.4171 24.9119 44.1644L29.2865 39.4579C29.5108 39.2185 29.6318 38.9005 29.6238 38.5726C29.6157 38.2448 29.479 37.9332 29.2432 37.7052C29.0078 37.477 28.6917 37.3509 28.3639 37.3534H27.0066V30.8867C27.0052 30.5553 26.8724 30.2381 26.6369 30.0045C26.4017 29.771 26.0834 29.6404 25.752 29.6418L22.2368 29.6419Z"
    fill="currentColor" />
</svg>
