<svg fill="none" height="32" viewBox="0 0 32 32" width="32" xmlns="http://www.w3.org/2000/svg" xmlns:xlink="http://www.w3.org/1999/xlink"><linearGradient id="a" gradientUnits="userSpaceOnUse" x1="-8.31026" x2="34.7479" y1="2" y2="8.18664"><stop offset="0" stop-color="#2b3990"/><stop offset=".18872" stop-color="#00a3dc"/><stop offset="1" stop-color="#7fd10e"/></linearGradient><path d="m16 2c-2.9164.00331-5.7123 1.1633-7.77452 3.22548-2.06218 2.06218-3.22217 4.85812-3.22548 7.77452 0 9.4125 10 16.525 10.425 16.825.1703.1134.3704.1739.575.1739s.4047-.0605.575-.1739c.425-.3 10.425-7.4125 10.425-16.825-.0033-2.9164-1.1633-5.71234-3.2255-7.77452s-4.8581-3.22217-7.7745-3.22548zm0 7c.7911 0 1.5645.2346 2.2223.67412.6578.43948 1.1705 1.06428 1.4732 1.79518.3028.7309.382 1.5351.2276 2.3111-.1543.7759-.5353 1.4886-1.0947 2.048s-1.2721.9404-2.048 1.0947c-.776.1544-1.5802.0752-2.3111-.2276-.7309-.3027-1.3557-.8154-1.7952-1.4732s-.6741-1.4312-.6741-2.2223c0-1.0609.4214-2.0783 1.1716-2.8284.7501-.75017 1.7675-1.1716 2.8284-1.1716z" fill="url(#a)"/></svg>