<svg fill="none" height="30" viewBox="0 0 31 30" width="31" xmlns="http://www.w3.org/2000/svg" xmlns:xlink="http://www.w3.org/1999/xlink"><linearGradient id="a" gradientUnits="userSpaceOnUse" x1="15.5" x2="15.5" y1="0" y2="30"><stop offset="0" stop-color="#00b2ff"/><stop offset="1" stop-color="#006aff"/></linearGradient><g clip-rule="evenodd" fill-rule="evenodd"><path d="m15.5 0c-8.4507 0-15 6.19014-15 14.5503 0 4.3732 1.79276 8.1519 4.71127 10.7626.24446.2203.39235.5251.40442.8541l.08149 2.668c.02717.8511.90544 1.4034 1.68411 1.0624l2.97581-1.3129c.2536-.1117.5342-.1328.7998-.0604 1.3672.3773 2.825.5765 4.3431.5765 8.4507 0 15-6.1901 15-14.5503 0-8.36016-6.5493-14.5503-15-14.5503z" fill="url(#a)"/><path d="m6.49186 18.8061 4.40644-6.9899c.7002-1.1107 2.2032-1.3883 3.2535-.6006l3.504 2.6288c.323.2414.7636.2384 1.0835-.0031l4.7324-3.5915c.6308-.47989 1.4578.2777 1.0322.9477l-4.4034 6.9869c-.7002 1.1107-2.2032 1.3883-3.2535.6006l-3.504-2.6288c-.323-.2414-.7636-.2384-1.0835.003l-4.73545 3.5946c-.63078.4799-1.45775-.2777-1.03219-.9477z" fill="#fff"/></g></svg>