<svg fill="none" height="40" viewBox="0 0 40 40" width="40" xmlns="http://www.w3.org/2000/svg" xmlns:xlink="http://www.w3.org/1999/xlink"><linearGradient id="a"><stop offset="0" stop-color="#04d99c"/><stop offset=".275084" stop-color="#07bd89"/><stop offset=".891281" stop-color="#006e8c"/></linearGradient><linearGradient id="b" gradientUnits="userSpaceOnUse" x1="31.7788" x2="34.0638" xlink:href="#a" y1="15.8285" y2="15.8377"/><linearGradient id="c" gradientUnits="userSpaceOnUse" x1="28.2163" x2="44.5112" xlink:href="#a" y1="15.6105" y2="19.3154"/><linearGradient id="d" gradientUnits="userSpaceOnUse" x1="24.2788" x2="26.5637" xlink:href="#a" y1="8.05232" y2="8.06618"/><linearGradient id="e" gradientUnits="userSpaceOnUse" x1="21.8942" x2="33.0624" xlink:href="#a" y1="8.11046" y2="9.80331"/><linearGradient id="f" gradientUnits="userSpaceOnUse" x1="4.76971" x2="69.2003" xlink:href="#a" y1="24.4795" y2="26.4327"/><g stroke-width="1.5"><g stroke-linecap="round" stroke-linejoin="round"><path d="m31.75 18.75v-7.5" stroke="url(#b)"/><path d="m35.5 15h-7.5" stroke="url(#c)"/><path d="m24.25 5v5" stroke="url(#d)"/><path d="m26.75 7.5h-5" stroke="url(#e)"/></g><path d="m24.4762 25.744c2.1521.5633 4.3965.6431 6.5732.2406-.6945 1.8077-1.7683 3.4515-3.1546 4.8179-1.6954 1.671-3.7991 2.8687-6.1015 3.4737-2.3023.605-4.723.5962-7.0209-.0254-2.2979-.6217-4.3929-1.8346-6.07616-3.5179-1.68329-1.6833-2.89617-3.7782-3.51785-6.0761s-.63046-4.7186-.02545-7.021 1.80267-4.406 3.47371-6.1015c1.36635-1.3863 3.01015-2.46007 4.81795-3.15452-.4025 2.17662-.3228 4.42102.2405 6.57322.6791 2.5945 2.0366 4.9616 3.933 6.858 1.8965 1.8964 4.2635 3.2539 6.8581 3.933z" stroke="url(#f)"/></g></svg>