<svg fill="none" height="32" viewBox="0 0 32 32" width="32" xmlns="http://www.w3.org/2000/svg" xmlns:xlink="http://www.w3.org/1999/xlink"><linearGradient id="a" gradientUnits="userSpaceOnUse" x1="-40.1037" x2="30.082" y1="17.0867" y2="17.1347"><stop offset=".0302504" stop-color="#3b53e6"/><stop offset=".461458" stop-color="#0097cc"/><stop offset="1" stop-color="#68e13e"/></linearGradient><path d="m27.9832 5.8971v-.00001l-.0014.00489-6.55 23.23752-.0006.0019c-.0817.2945-.2522.5566-.4882.7508-.2314.1904-.5149.3064-.8131.3329h-.1533c-.0002 0-.0005 0-.0007 0-.2823-.0007-.5586-.0812-.7972-.2319-.2386-.1508-.4297-.3657-.5516-.6202-.0001-.0003-.0003-.0007-.0005-.001l-4.4598-9.4194c-.0001-.0002-.0002-.0004-.0003-.0006-.0009-.0021-.0011-.0045-.0007-.0068.0004-.0024.0015-.0045.0031-.0063.0001-.0001.0002-.0002.0003-.0004l6.4021-6.402c.1459-.1347.2637-.297.3465-.4776.0846-.1848.1308-.3848.1358-.5879s-.0313-.4052-.1067-.5938c-.0755-.1887-.1885-.3601-.3322-.5038-.1436-.1437-.315-.2567-.5037-.3321s-.3907-.1118-.5938-.1068c-.2032.005-.4032.0513-.5879.1359-.1807.0828-.3431.2007-.4778.3467l-6.4019 6.4144c-.0001.0001-.0003.0002-.0004.0003-.0009.0008-.0019.0015-.0029.002-.0011.0005-.0022.0009-.0033.0011-.0023.0004-.0047.0001-.0069-.0008l-9.37166-4.4359-.00037-.0002c-.27851-.1315-.51234-.3419-.67255-.6049-.15945-.2619-.239-.5645-.22895-.8708.01738-.311.13193-.6087.32754-.8511.19652-.2435.46484-.4189.7668-.5011l.00424-.0012 23.28755-6.56251.0016-.00048c.3055-.08724.6308-.07524.929.03428.2962.10876.5505.30813.7268.56967.118.18897.195.40069.2258.62141.0311.22289.0145.44985-.0487.66583z" fill="url(#a)" stroke="#53c1de"/></svg>