<svg fill="none" height="32" viewBox="0 0 32 32" width="32" xmlns="http://www.w3.org/2000/svg" xmlns:xlink="http://www.w3.org/1999/xlink"><linearGradient id="a" gradientUnits="userSpaceOnUse" x1="-33.8437" x2="30.3665" y1="15.5183" y2="15.5623"><stop offset=".0302504" stop-color="#3b53e6"/><stop offset=".461458" stop-color="#0097cc"/><stop offset="1" stop-color="#68e13e"/></linearGradient><linearGradient id="b"><stop offset="0" stop-color="#2b3990"/><stop offset=".18872" stop-color="#00a3dc"/><stop offset="1" stop-color="#7fd10e"/></linearGradient><linearGradient id="c" gradientUnits="userSpaceOnUse" x1="10.5682" x2="39.1515" xlink:href="#b" y1="-.874677" y2="10.7703"/><linearGradient id="d" gradientUnits="userSpaceOnUse" x1="12.0861" x2="31.8316" xlink:href="#b" y1="4.49427" y2="12.5601"/><path d="m27.75 19.7995-5.8625-2.5c-.3025-.1356-.6345-.1918-.9648-.1633-.3303.0284-.6478.1405-.9227.3258l-.5031.3348c-1.6322 1.0859-3.8129 1.3117-5.2024-.0712-1.386-1.3795-1.1758-3.5552-.106-5.192l.349-.5341c.1841-.2751.2965-.5919.327-.9215.0306-.3296-.0217-.6617-.152-.966l-2.5125-5.86248c-.1753-.39586-.4722-.72558-.8475-.94134-.3754-.21577-.8097-.30637-1.24-.25866-1.68801.22113-3.23829 1.04772-4.3626 2.32607-1.12431 1.27836-1.74615 2.9215-1.7499 4.62393 0 9.92498 8.075 17.99998 18 17.99998 1.7024-.0037 3.3456-.6256 4.6239-1.7499 1.2784-1.1243 2.105-2.6746 2.3261-4.3626.0477-.4303-.0429-.8646-.2587-1.24-.2157-.3753-.5454-.6722-.9413-.8475z" fill="url(#a)"/><g fill-opacity=".88"><path d="m19.6755 5.96295c1.5221.41585 2.9096 1.22141 4.0253 2.33718 1.1158 1.11576 1.9213 2.50317 2.3372 4.02527.0552.2138.1795.4032.3536.5389.1741.1356.3882.2099.6089.2111.0888-.0001.1772-.0127.2625-.0375.1271-.0332.2463-.0915.3506-.1714s.1916-.1799.2568-.294c.0652-.114.107-.24.1229-.3704.0159-.1305.0056-.2627-.0303-.3892-.5-1.86409-1.4816-3.56388-2.8463-4.92861-1.3648-1.36474-3.0646-2.34637-4.9287-2.84634-.1304-.04752-.2693-.06736-.4079-.05826-.1385.00911-.2736.04696-.3967.11114s-.2315.1533-.3183.26166c-.0868.10837-.15.23362-.1857.36778-.0358.13415-.0431.27428-.0217.41144.0214.13717.0711.26838.146.38528s.1733.21692.289.2937c.1156.07678.246.12863.3828.15226z" fill="url(#c)"/><path d="m18.6384 9.82525c.8461.23165 1.6173.67965 2.2376 1.29995s1.0683 1.3914 1.2999 2.2376c.0532.2147.177.4054.3515.5414.1746.136.3897.2094.611.2086.0848.0008.1692-.0119.25-.0375.1282-.0319.2488-.0892.3545-.1686.1057-.0793.1944-.179.2608-.2933.0664-.1142.1093-.2406.126-.3717s.0069-.2642-.0288-.3914c-.3157-1.1882-.9398-2.2717-1.809-3.14101-.8693-.86927-1.9529-1.49336-3.141-1.80904-.1304-.04752-.2694-.06736-.4079-.05825-.1385.0091-.2736.04695-.3967.11113-.1231.06419-.2315.1533-.3183.26167s-.15.23362-.1857.36777c-.0358.13416-.0432.27428-.0218.41145.0215.13717.0712.26838.1461.38527.0749.1169.1733.21692.2889.2937.1157.07678.2461.12863.3829.15226z" fill="url(#d)"/></g></svg>