<svg fill="none" height="40" viewBox="0 0 40 40" width="40" xmlns="http://www.w3.org/2000/svg" xmlns:xlink="http://www.w3.org/1999/xlink"><linearGradient id="a"><stop offset="0" stop-color="#04d99c"/><stop offset=".275084" stop-color="#07bd89"/><stop offset=".891281" stop-color="#006e8c"/></linearGradient><linearGradient id="b" gradientUnits="userSpaceOnUse" x1="1.15385" x2="92.4518" xlink:href="#a" y1="25.7641" y2="28.7933"/><linearGradient id="c" gradientUnits="userSpaceOnUse" x1="21.7252" x2="46.1798" xlink:href="#a" y1="5.91184" y2="6.73206"/><mask id="d" fill="#fff"><path d="m32.1306 4.84193c0 2.67442-2.3988 4.84223-5.3574 4.84223s-5.3571-2.16781-5.3571-4.84223c0-2.67412 2.3985-4.84193 5.3571-4.84193s5.3574 2.16781 5.3574 4.84193z" fill="#fff"/></mask><path d="m33.7088 7.07176c.272-.69953.4299-1.44839.4299-2.22917 0-.14898-.0037-.29361-.0123-.43606.9239.22111 1.8961.54647 2.745 1.02209 1.1707.65596 2.0348 1.55333 2.3034 2.80109.2341 1.24256-.0741 2.38489-.9753 3.34039l-.0014.0015c-.7939.8463-1.9147 1.4465-3.1258 1.8614-1.2053.4129-2.4501.6252-3.4381.7267l-.4784.0491-.1549.4553c-.9383 2.7562-3.4389 9.9507-4.4894 12.2214l-.0046.0098-.0042.01c-.4557 1.0643-1.615 2.256-3.9211 3.1778l-.0208.0083-.0203.0096-18.95992 8.9262-.02519.0119-.02425.0137c-.23586.1332-.52111.1979-.84221.1979-.75537 0-1.40823-.3559-1.719514-.9184l-.005364-.0097-.005647-.0095c-.450266-.7598-.152901-1.7539.781765-2.1763h.00002l.00858-.004 4.14602-1.937.43255-.202v-.4775c0-2.7944.18515-5.0325.5374-6.7203.35677-1.7095.86232-2.7401 1.4095-3.2536.51926-.4674 1.1784-.7286 1.86826-.7286h.01l.0099-.0003c1.3883-.0368 4.8688.0251 7.3371.069.3099.0055.6038.0107.8756.0154l.5529.0096.1726-.5254c.8797-2.6779 2.0388-5.779 2.6394-7.2821l.3537-.8851-.9434-.1356c-2.0205-.2903-4.444-.9782-5.8409-2.4989-.8763-.9734-1.2096-2.11869-.9407-3.33318v.00001l.0014-.00644c.2659-1.25354 1.1317-2.15419 2.3057-2.81199.8492-.4758 1.8219-.80119 2.7461-1.02227-.0094.14735-.0135.29291-.0135.43636 0 .7942.1518 1.54249.419 2.22765-.3942.11104-.7666.23802-1.0897.38066-.2823.12459-.5593.27506-.7848.45952-.2047.16737-.4449.42686-.5256.79121-.0689.23829-.0879.4945-.0025.75696.0761.23385.2189.40513.2846.48388.0031.00371.006.00722.0088.01052l.0089.01079.0094.01045c.297.33167.7176.58637 1.1488.78457.4429.2035.9553.3736 1.4891.5102 1.0655.2728 2.2809.4287 3.3247.4287l6.149-.0003c1.0438 0 2.2592-.1559 3.3247-.4287.5338-.1366 1.0462-.3067 1.4891-.5102.4198-.193.8295-.4395 1.1249-.7584.1576-.15232.2757-.34484.3332-.57903.0563-.22892.0439-.45482.0126-.65366l-.0015-.0095-.0018-.00946c-.0717-.39008-.3359-.66035-.5395-.82414-.221-.17789-.4932-.32807-.7742-.45505-.3268-.14768-.7049-.28142-1.1068-.3978zm-23.4293 23.87774-.0678 1.255 1.1367-.5362 8.4785-3.9999-.2982-1.428c-.8917-.026-2.7932-.0521-4.6853-.078-1.1832-.0163-2.3628-.0325-3.2896-.0485l-.5951-.0104-.1452.5773c-.2503.995-.4398 2.5239-.534 4.2687z" stroke="url(#b)" stroke-width="1.5"/><path d="m30.6306 4.84193c0 1.70686-1.5809 3.34223-3.8574 3.34223v3.00004c3.6407 0 6.8574-2.70029 6.8574-6.34227zm-3.8574 3.34223c-2.2764 0-3.8571-1.63525-3.8571-3.34223h-3c0 3.64187 3.2163 6.34227 6.8571 6.34227zm-3.8571-3.34223c0-1.70662 1.5806-3.34193 3.8571-3.34193v-3c-3.6408 0-6.8571 2.70031-6.8571 6.34193zm3.8571-3.34193c2.2766 0 3.8574 1.63543 3.8574 3.34193h3c0-3.64174-3.2168-6.34193-6.8574-6.34193z" fill="url(#c)" mask="url(#d)"/></svg>