<svg width="60" height="60" viewBox="0 0 60 60" fill="none" xmlns="http://www.w3.org/2000/svg">
  <g filter="url(#filter0_dd_1374_5785)">
    <path
      d="M43.7088 13.0718C43.9808 12.3722 44.1387 11.6234 44.1387 10.8426C44.1387 10.6936 44.135 10.549 44.1264 10.4065C45.0503 10.6276 46.0225 10.953 46.8714 11.4286C48.0421 12.0846 48.9062 12.982 49.1748 14.2297C49.4089 15.4723 49.1007 16.6146 48.1995 17.5701L48.1981 17.5716C47.4042 18.4179 46.2834 19.0181 45.0723 19.433C43.867 19.8459 42.6222 20.0582 41.6342 20.1597L41.1558 20.2088L41.0009 20.6641C40.0626 23.4203 37.562 30.6148 36.5115 32.8855L36.5069 32.8953L36.5027 32.9053C36.047 33.9696 34.8877 35.1613 32.5816 36.0831L32.5608 36.0914L32.5405 36.101L13.5806 45.0272L13.5554 45.0391L13.5311 45.0528C13.2953 45.186 13.01 45.2507 12.6889 45.2507C11.9336 45.2507 11.2807 44.8948 10.9694 44.3323L10.9641 44.3226L10.9584 44.3131C10.5081 43.5533 10.8055 42.5592 11.7402 42.1368L11.7402 42.1368L11.7488 42.1328L15.8948 40.1958L16.3273 39.9938V39.5163C16.3273 36.7219 16.5125 34.4838 16.8647 32.796C17.2215 31.0865 17.7271 30.0559 18.2742 29.5424C18.7935 29.075 19.4526 28.8138 20.1425 28.8138H20.1525L20.1624 28.8135C21.5507 28.7767 25.0312 28.8386 27.4995 28.8825C27.8094 28.888 28.1033 28.8932 28.3751 28.8979L28.928 28.9075L29.1006 28.3821C29.9803 25.7042 31.1394 22.6031 31.74 21.1L32.0937 20.2149L31.1503 20.0793C29.1298 19.789 26.7063 19.1011 25.3094 17.5804C24.4331 16.607 24.0998 15.4617 24.3687 14.2472L24.3687 14.2472L24.3701 14.2408C24.636 12.9873 25.5018 12.0866 26.6758 11.4288C27.525 10.953 28.4977 10.6276 29.4219 10.4065C29.4125 10.5539 29.4084 10.6994 29.4084 10.8429C29.4084 11.6371 29.5602 12.3854 29.8274 13.0705C29.4332 13.1816 29.0608 13.3086 28.7377 13.4512C28.4554 13.5758 28.1784 13.7263 27.9529 13.9107C27.7482 14.0781 27.508 14.3376 27.4273 14.7019C27.3584 14.9402 27.3394 15.1964 27.4248 15.4589C27.5009 15.6927 27.6437 15.864 27.7094 15.9428C27.7125 15.9465 27.7154 15.95 27.7182 15.9533L27.7271 15.9641L27.7365 15.9745C28.0335 16.3062 28.4541 16.5609 28.8853 16.7591C29.3282 16.9626 29.8406 17.1327 30.3744 17.2693C31.4399 17.5421 32.6553 17.698 33.6991 17.698H33.6991L39.8481 17.6977C39.8481 17.6977 39.8481 17.6977 39.8481 17.6977C40.8919 17.6977 42.1073 17.5418 43.1728 17.269C43.7066 17.1324 44.219 16.9623 44.6619 16.7588C45.0817 16.5658 45.4914 16.3193 45.7868 16.0004C45.9444 15.8481 46.0625 15.6556 46.12 15.4214C46.1763 15.1924 46.1639 14.9666 46.1326 14.7677L46.1311 14.7582L46.1293 14.7488C46.0576 14.3587 45.7934 14.0884 45.5898 13.9246C45.3688 13.7467 45.0966 13.5965 44.8156 13.4696C44.4888 13.3219 44.1107 13.1881 43.7088 13.0718ZM20.2795 36.9495L20.2117 38.2045L21.3484 37.6683L29.8269 33.6684L29.5287 32.2404C28.637 32.2144 26.7355 32.1883 24.8434 32.1624C23.6602 32.1461 22.4806 32.1299 21.5538 32.1139L20.9587 32.1035L20.8135 32.6808C20.5632 33.6758 20.3737 35.2047 20.2795 36.9495Z"
      stroke="currentColor" stroke-width="1.5" />
    <mask id="path-2-inside-1_1374_5785" fill="currentColor">
      <path
        d="M42.1324 10.8419C42.1324 13.5164 39.7336 15.6842 36.775 15.6842C33.8164 15.6842 31.418 13.5164 31.418 10.8419C31.418 8.16781 33.8164 6 36.775 6C39.7336 6 42.1324 8.16781 42.1324 10.8419Z" />
    </mask>
    <path
      d="M40.6324 10.8419C40.6324 12.5488 39.0516 14.1842 36.775 14.1842V17.1842C40.4157 17.1842 43.6324 14.4839 43.6324 10.8419H40.6324ZM36.775 14.1842C34.4986 14.1842 32.918 12.5489 32.918 10.8419H29.918C29.918 14.4838 33.1342 17.1842 36.775 17.1842V14.1842ZM32.918 10.8419C32.918 9.13531 34.4986 7.5 36.775 7.5V4.5C33.1343 4.5 29.918 7.20031 29.918 10.8419H32.918ZM36.775 7.5C39.0516 7.5 40.6324 9.13543 40.6324 10.8419H43.6324C43.6324 7.20019 40.4157 4.5 36.775 4.5V7.5Z"
      fill="currentColor" mask="url(#path-2-inside-1_1374_5785)" />
  </g>
  <defs>
    <filter id="filter0_dd_1374_5785" x="0" y="0" width="60" height="60" filterUnits="userSpaceOnUse"
      color-interpolation-filters="sRGB">
      <feFlood flood-opacity="0" result="BackgroundImageFix" />
      <feColorMatrix in="SourceAlpha" type="matrix" values="0 0 0 0 0 0 0 0 0 0 0 0 0 0 0 0 0 0 127 0"
        result="hardAlpha" />
      <feOffset dy="4" />
      <feGaussianBlur stdDeviation="5" />
      <feComposite in2="hardAlpha" operator="out" />
      <feColorMatrix type="matrix" values="0 0 0 0 1 0 0 0 0 1 0 0 0 0 1 0 0 0 1 0" />
      <feBlend mode="normal" in2="BackgroundImageFix" result="effect1_dropShadow_1374_5785" />
      <feColorMatrix in="SourceAlpha" type="matrix" values="0 0 0 0 0 0 0 0 0 0 0 0 0 0 0 0 0 0 127 0"
        result="hardAlpha" />
      <feOffset dy="1" />
      <feComposite in2="hardAlpha" operator="out" />
      <feColorMatrix type="matrix" values="0 0 0 0 0 0 0 0 0 0 0 0 0 0 0 0 0 0 0.25 0" />
      <feBlend mode="normal" in2="effect1_dropShadow_1374_5785" result="effect2_dropShadow_1374_5785" />
      <feBlend mode="normal" in="SourceGraphic" in2="effect2_dropShadow_1374_5785" result="shape" />
    </filter>
  </defs>
</svg>
