<svg fill="none" height="56" viewBox="0 0 56 56" width="56" xmlns="http://www.w3.org/2000/svg"><g fill="#fff"><path d="m50.0913 13.1051c-.7368-3.84203-4.7896-5.26317-7.579-5.78967.1578.57896.2103 1.10545.2103 1.73683 0 1.21044-.3157 2.36834-.8422 3.42084 1.5791.3686 3.0002 1.0001 3.1052 1.6315.0525.3686 0 .5789-.1579.7368-.8946 1.1055-3.8948 1.8423-6.1053 1.8423l-6.9471.0004c-2.2105 0-5.2106-.7369-6.1054-1.8423-.1578-.2104-.2632-.3686-.1578-.7368.1053-.6844 1.5261-1.2633 3.1051-1.6315-.5264-1.0001-.8422-2.158-.8422-3.42087 0-.57896.0525-1.15789.2104-1.73683-2.7895.52646-6.8422 1.94726-7.579 5.7896-.3686 1.8423.1054 3.5788 1.2633 4.9999 1.7893 2.158 4.7895 3.0526 7.1054 3.4209-.6844 1.8947-2.0001 5.7896-3.0002 9.1579-2.7369-.0525-7.5261-.1579-9.3158-.1054-1.0001 0-1.9473.4211-2.6841 1.1579-1.6315 1.6844-2.4737 6.1053-2.4737 13.1578l-4.6842 2.4213c-1.47368.7368-2.05262 2.579-1.26325 4.0527.52647 1.0525 1.57904 1.6315 2.6841 1.6315.4736 0 .94718-.1054 1.36833-.3686l21.42092-11.1579c2.7369-1.2104 4.2631-2.8419 4.8945-4.4738 1.2105-2.8948 4.0527-11.9473 5.1053-15.3684 2.3158-.2632 5.8946-1.1054 7.9472-3.5263 1.2116-1.4211 1.6326-3.158 1.3169-5.0002zm-32.6314 28.6314c.1053-2.158.3157-3.9999.5789-5.1578 2.7369.0525 7.3682.1054 9.0002.1579z"/><path d="m41.301 9.05241c0 3.34299-2.7101 6.05279-6.0528 6.05279-3.3426 0-6.0524-2.7098-6.0524-6.05279 0-3.34265 2.7098-6.05241 6.0524-6.05241 3.3427 0 6.0528 2.70976 6.0528 6.05241z"/></g></svg>