<svg width="48" height="49" viewBox="0 0 48 49" fill="none" xmlns="http://www.w3.org/2000/svg">
  <path
    d="M25.8546 11.8837H31.5991L34.6881 5.84477C33.4179 4.40705 32.3442 4.97286 31.2875 6.28374C29.5843 8.47181 27.6387 8.70295 25.9122 6.37597C24.9364 5.07115 23.9952 4.48802 22.7656 5.8504L25.8546 11.8837Z"
    fill="currentColor" />
  <path
    d="M21.2748 32.0564C22.6087 32.0274 23.9482 31.9296 25.2815 31.9296C27.7527 31.9296 29.8022 32.2876 30.42 34.083C34.167 32.0045 37.1286 30.7919 39.5076 30.4629V20.6653C39.5076 16.5312 36.1126 13.1367 31.979 13.1367H25.0738C20.9397 13.1367 17.5508 16.5318 17.5508 20.6653V28.0381C19.3405 28.7771 20.7029 30.1859 21.2748 32.0566V32.0564ZM26.6613 23.5347C25.0331 21.9065 25.8994 19.1583 28.0757 18.679V17.4261C28.0757 16.6005 29.3286 16.6005 29.3286 17.4261V18.679C30.6391 18.9677 31.5859 20.1397 31.5859 21.4964C31.5859 22.3164 30.3331 22.3164 30.3331 21.4964C30.3331 18.3097 25.3275 20.4284 27.5502 22.6455C28.4451 23.5403 31.586 22.9052 31.586 26.0114C31.586 27.3566 30.6392 28.5346 29.3287 28.8289V30.1567C29.3287 30.9823 28.0758 30.9823 28.0758 30.1567V28.8289C26.7593 28.5345 25.8125 27.3626 25.8125 26.0114C25.8125 25.1858 27.071 25.1858 27.071 26.0114C27.071 26.912 27.7984 27.6397 28.6993 27.6397C29.6058 27.6397 30.3332 26.9124 30.3332 26.0114C30.3332 23.9273 27.8966 24.7702 26.6611 23.5347H26.6613Z"
    fill="currentColor" />
  <path
    d="M20.8315 33.3151C20.5254 33.3324 20.2484 33.1303 20.1791 32.8186C19.0938 27.8762 11.7093 27.2472 9.60733 31.8601C9.50343 32.0908 9.2783 32.2237 9.04149 32.2237L3.94336 32.2294V41.3862L11.2988 41.3399L22.5748 45.0003L44.1276 32.9336C43.0189 31.8483 41.5816 31.4439 39.6706 31.7036C37.3726 32.021 34.4166 33.2626 30.606 35.4103C30.5657 38.2741 28.0253 38.7993 24.6765 38.7993C22.8002 38.7993 20.9179 38.6551 19.0359 38.6551C18.2159 38.6551 18.2159 37.4023 19.0359 37.4023C20.9183 37.4023 22.7946 37.5465 24.6765 37.5465C27.3381 37.5465 29.353 37.2057 29.353 35.3411C29.353 33.5106 27.546 33.1817 25.2827 33.1817C23.799 33.1817 22.315 33.3029 20.8313 33.3146L20.8315 33.3151Z"
    fill="currentColor" />
</svg>
