
<svg width="48" height="49" viewBox="0 0 48 49" fill="none" xmlns="http://www.w3.org/2000/svg">
  <path
    d="M39 8.06055H9C8.20435 8.06055 7.44129 8.37662 6.87868 8.93923C6.31607 9.50184 6 10.2649 6 11.0605V22.0668C6 38.8293 20.2125 44.398 23.0625 45.3355C23.6714 45.5359 24.3286 45.5359 24.9375 45.3355C27.7875 44.398 42 38.8293 42 22.0668V11.0605C42 10.2649 41.6839 9.50184 41.1213 8.93923C40.5587 8.37662 39.7957 8.06055 39 8.06055ZM33.2812 21.148L22.2938 31.648C22.0097 31.9153 21.6337 32.063 21.2438 32.0605C20.8595 32.062 20.4897 31.9141 20.2125 31.648L14.7188 26.398C14.5664 26.2651 14.4425 26.1027 14.3544 25.9207C14.2664 25.7386 14.2161 25.5406 14.2066 25.3386C14.197 25.1367 14.2284 24.9348 14.2988 24.7453C14.3693 24.5557 14.4773 24.3824 14.6164 24.2356C14.7556 24.0889 14.923 23.9718 15.1085 23.8914C15.2941 23.811 15.4939 23.769 15.6962 23.7678C15.8984 23.7666 16.0987 23.8063 16.2852 23.8846C16.4717 23.9628 16.6404 24.0779 16.7812 24.223L21.2438 28.4793L31.2188 18.973C31.5104 18.7186 31.8891 18.5867 32.2758 18.605C32.6624 18.6233 33.027 18.7903 33.2933 19.0712C33.5596 19.3521 33.7071 19.725 33.7048 20.112C33.7026 20.4991 33.5508 20.8703 33.2812 21.148Z"
    fill="currentColor" />

</svg>
