<svg fill="none" height="58" viewBox="0 0 58 58" width="58" xmlns="http://www.w3.org/2000/svg" xmlns:xlink="http://www.w3.org/1999/xlink"><filter id="a" color-interpolation-filters="sRGB" filterUnits="userSpaceOnUse" height="57" width="57" x=".5" y=".5"><feFlood flood-opacity="0" result="BackgroundImageFix"/><feColorMatrix in="SourceAlpha" result="hardAlpha" type="matrix" values="0 0 0 0 0 0 0 0 0 0 0 0 0 0 0 0 0 0 127 0"/><feOffset dy="4"/><feGaussianBlur stdDeviation="5"/><feComposite in2="hardAlpha" operator="out"/><feColorMatrix type="matrix" values="0 0 0 0 1 0 0 0 0 1 0 0 0 0 1 0 0 0 1 0"/><feBlend in2="BackgroundImageFix" mode="normal" result="effect1_dropShadow_1375_6229"/><feBlend in="SourceGraphic" in2="effect1_dropShadow_1375_6229" mode="normal" result="shape"/></filter><linearGradient id="b"><stop offset="0" stop-color="#04d99c"/><stop offset=".275084" stop-color="#07bd89"/><stop offset=".891281" stop-color="#006e8c"/></linearGradient><linearGradient id="c" gradientUnits="userSpaceOnUse" x1="20.1659" x2="62.9696" xlink:href="#b" y1="27.0712" y2="28.3688"/><linearGradient id="d" gradientUnits="userSpaceOnUse" x1="29.0288" x2="31.3136" xlink:href="#b" y1="9.4077" y2="9.42987"/><linearGradient id="e" gradientUnits="userSpaceOnUse" x1="16.6907" x2="21.7352" xlink:href="#b" y1="13.9739" y2="14.1269"/><linearGradient id="f" gradientUnits="userSpaceOnUse" x1="11.5901" x2="18.6671" xlink:href="#b" y1="25.6105" y2="26.2809"/><linearGradient id="g" gradientUnits="userSpaceOnUse" x1="16.6907" x2="21.7352" xlink:href="#b" y1="36.513" y2="36.6659"/><linearGradient id="h" gradientUnits="userSpaceOnUse" x1="29.0288" x2="31.3136" xlink:href="#b" y1="41.2827" y2="41.3049"/><linearGradient id="i" gradientUnits="userSpaceOnUse" x1="39.2298" x2="44.2742" xlink:href="#b" y1="36.513" y2="36.6659"/><linearGradient id="j" gradientUnits="userSpaceOnUse" x1="43.4651" x2="50.5421" xlink:href="#b" y1="25.6105" y2="26.2809"/><linearGradient id="k" gradientUnits="userSpaceOnUse" x1="39.2298" x2="44.2742" xlink:href="#b" y1="13.9739" y2="14.1269"/><g stroke-linecap="round" stroke-linejoin="round" stroke-width="2"><g filter="url(#a)"><path d="m29 34.375c5.1777 0 9.375-4.1973 9.375-9.375s-4.1973-9.375-9.375-9.375-9.375 4.1973-9.375 9.375 4.1973 9.375 9.375 9.375z" stroke="url(#c)"/><path d="m29 10.625v-3.125" stroke="url(#d)"/><path d="m18.8367 14.8347-2.2097-2.2097" stroke="url(#e)"/><path d="m14.625 25h-3.125" stroke="url(#f)"/><path d="m18.8367 35.1641-2.2097 2.2097" stroke="url(#g)"/><path d="m29 39.375v3.125" stroke="url(#h)"/><path d="m39.166 35.1641 2.2097 2.2097" stroke="url(#i)"/><path d="m43.375 25h3.125" stroke="url(#j)"/><path d="m39.166 14.8347 2.2097-2.2097" stroke="url(#k)"/></g><path d="m29 34.375c5.1777 0 9.375-4.1973 9.375-9.375s-4.1973-9.375-9.375-9.375-9.375 4.1973-9.375 9.375 4.1973 9.375 9.375 9.375z" stroke="url(#c)"/><path d="m29 10.625v-3.125" stroke="url(#d)"/><path d="m18.8367 14.8347-2.2097-2.2097" stroke="url(#e)"/><path d="m14.625 25h-3.125" stroke="url(#f)"/><path d="m18.8367 35.1641-2.2097 2.2097" stroke="url(#g)"/><path d="m29 39.375v3.125" stroke="url(#h)"/><path d="m39.166 35.1641 2.2097 2.2097" stroke="url(#i)"/><path d="m43.375 25h3.125" stroke="url(#j)"/><path d="m39.166 14.8347 2.2097-2.2097" stroke="url(#k)"/></g></svg>