<svg fill="none" height="502" viewBox="0 0 1440 502" width="1440" xmlns="http://www.w3.org/2000/svg" xmlns:xlink="http://www.w3.org/1999/xlink"><filter id="a" color-interpolation-filters="sRGB" filterUnits="userSpaceOnUse" height="104" width="104" x="1235" y="262.167"><feFlood flood-opacity="0" result="BackgroundImageFix"/><feBlend in="SourceGraphic" in2="BackgroundImageFix" mode="normal" result="shape"/><feGaussianBlur result="effect1_foregroundBlur_1618_7162" stdDeviation="10"/></filter><filter id="b" color-interpolation-filters="sRGB" filterUnits="userSpaceOnUse" height="64.6152" width="64.7004" x="1254.66" y="281.824"><feFlood flood-opacity="0" result="BackgroundImageFix"/><feColorMatrix in="SourceAlpha" result="hardAlpha" type="matrix" values="0 0 0 0 0 0 0 0 0 0 0 0 0 0 0 0 0 0 127 0"/><feOffset/><feGaussianBlur stdDeviation="2"/><feComposite in2="hardAlpha" operator="out"/><feColorMatrix type="matrix" values="0 0 0 0 1 0 0 0 0 1 0 0 0 0 1 0 0 0 0.25 0"/><feBlend in2="BackgroundImageFix" mode="normal" result="effect1_dropShadow_1618_7162"/><feBlend in="SourceGraphic" in2="effect1_dropShadow_1618_7162" mode="normal" result="shape"/></filter><filter id="c" color-interpolation-filters="sRGB" filterUnits="userSpaceOnUse" height="104" width="104" x="896.5" y="77.167"><feFlood flood-opacity="0" result="BackgroundImageFix"/><feBlend in="SourceGraphic" in2="BackgroundImageFix" mode="normal" result="shape"/><feGaussianBlur result="effect1_foregroundBlur_1618_7162" stdDeviation="10"/></filter><filter id="d" color-interpolation-filters="sRGB" filterUnits="userSpaceOnUse" height="64.6152" width="64.7004" x="916.156" y="96.8242"><feFlood flood-opacity="0" result="BackgroundImageFix"/><feColorMatrix in="SourceAlpha" result="hardAlpha" type="matrix" values="0 0 0 0 0 0 0 0 0 0 0 0 0 0 0 0 0 0 127 0"/><feOffset/><feGaussianBlur stdDeviation="2"/><feComposite in2="hardAlpha" operator="out"/><feColorMatrix type="matrix" values="0 0 0 0 1 0 0 0 0 1 0 0 0 0 1 0 0 0 0.25 0"/><feBlend in2="BackgroundImageFix" mode="normal" result="effect1_dropShadow_1618_7162"/><feBlend in="SourceGraphic" in2="effect1_dropShadow_1618_7162" mode="normal" result="shape"/></filter><filter id="e" color-interpolation-filters="sRGB" filterUnits="userSpaceOnUse" height="104" width="104" x="325.5" y="97.167"><feFlood flood-opacity="0" result="BackgroundImageFix"/><feBlend in="SourceGraphic" in2="BackgroundImageFix" mode="normal" result="shape"/><feGaussianBlur result="effect1_foregroundBlur_1618_7162" stdDeviation="10"/></filter><filter id="f" color-interpolation-filters="sRGB" filterUnits="userSpaceOnUse" height="64.6152" width="64.7004" x="345.156" y="116.824"><feFlood flood-opacity="0" result="BackgroundImageFix"/><feColorMatrix in="SourceAlpha" result="hardAlpha" type="matrix" values="0 0 0 0 0 0 0 0 0 0 0 0 0 0 0 0 0 0 127 0"/><feOffset/><feGaussianBlur stdDeviation="2"/><feComposite in2="hardAlpha" operator="out"/><feColorMatrix type="matrix" values="0 0 0 0 1 0 0 0 0 1 0 0 0 0 1 0 0 0 0.25 0"/><feBlend in2="BackgroundImageFix" mode="normal" result="effect1_dropShadow_1618_7162"/><feBlend in="SourceGraphic" in2="effect1_dropShadow_1618_7162" mode="normal" result="shape"/></filter><filter id="g" color-interpolation-filters="sRGB" filterUnits="userSpaceOnUse" height="104" width="104" x="589" y="7.16699"><feFlood flood-opacity="0" result="BackgroundImageFix"/><feBlend in="SourceGraphic" in2="BackgroundImageFix" mode="normal" result="shape"/><feGaussianBlur result="effect1_foregroundBlur_1618_7162" stdDeviation="10"/></filter><filter id="h" color-interpolation-filters="sRGB" filterUnits="userSpaceOnUse" height="64.6152" width="64.7004" x="608.656" y="26.8242"><feFlood flood-opacity="0" result="BackgroundImageFix"/><feColorMatrix in="SourceAlpha" result="hardAlpha" type="matrix" values="0 0 0 0 0 0 0 0 0 0 0 0 0 0 0 0 0 0 127 0"/><feOffset/><feGaussianBlur stdDeviation="2"/><feComposite in2="hardAlpha" operator="out"/><feColorMatrix type="matrix" values="0 0 0 0 1 0 0 0 0 1 0 0 0 0 1 0 0 0 0.25 0"/><feBlend in2="BackgroundImageFix" mode="normal" result="effect1_dropShadow_1618_7162"/><feBlend in="SourceGraphic" in2="effect1_dropShadow_1618_7162" mode="normal" result="shape"/></filter><filter id="i" color-interpolation-filters="sRGB" filterUnits="userSpaceOnUse" height="46.918" width="57" x="1120.5" y="150.167"><feFlood flood-opacity="0" result="BackgroundImageFix"/><feColorMatrix in="SourceAlpha" result="hardAlpha" type="matrix" values="0 0 0 0 0 0 0 0 0 0 0 0 0 0 0 0 0 0 127 0"/><feOffset dy="4"/><feGaussianBlur stdDeviation="5"/><feComposite in2="hardAlpha" operator="out"/><feColorMatrix type="matrix" values="0 0 0 0 1 0 0 0 0 1 0 0 0 0 1 0 0 0 1 0"/><feBlend in2="BackgroundImageFix" mode="normal" result="effect1_dropShadow_1618_7162"/><feColorMatrix in="SourceAlpha" result="hardAlpha" type="matrix" values="0 0 0 0 0 0 0 0 0 0 0 0 0 0 0 0 0 0 127 0"/><feOffset dy="1"/><feComposite in2="hardAlpha" operator="out"/><feColorMatrix type="matrix" values="0 0 0 0 0 0 0 0 0 0 0 0 0 0 0 0 0 0 0.25 0"/><feBlend in2="effect1_dropShadow_1618_7162" mode="normal" result="effect2_dropShadow_1618_7162"/><feBlend in="SourceGraphic" in2="effect2_dropShadow_1618_7162" mode="normal" result="shape"/></filter><filter id="j" color-interpolation-filters="sRGB" filterUnits="userSpaceOnUse" height="57" width="57" x="123.5" y="238.667"><feFlood flood-opacity="0" result="BackgroundImageFix"/><feColorMatrix in="SourceAlpha" result="hardAlpha" type="matrix" values="0 0 0 0 0 0 0 0 0 0 0 0 0 0 0 0 0 0 127 0"/><feOffset dy="4"/><feGaussianBlur stdDeviation="5"/><feComposite in2="hardAlpha" operator="out"/><feColorMatrix type="matrix" values="0 0 0 0 1 0 0 0 0 1 0 0 0 0 1 0 0 0 1 0"/><feBlend in2="BackgroundImageFix" mode="normal" result="effect1_dropShadow_1618_7162"/><feBlend in="SourceGraphic" in2="effect1_dropShadow_1618_7162" mode="normal" result="shape"/></filter><filter id="k" color-interpolation-filters="sRGB" filterUnits="userSpaceOnUse" height="57" width="57" x="123.5" y="238.667"><feFlood flood-opacity="0" result="BackgroundImageFix"/><feColorMatrix in="SourceAlpha" result="hardAlpha" type="matrix" values="0 0 0 0 0 0 0 0 0 0 0 0 0 0 0 0 0 0 127 0"/><feOffset dy="4"/><feGaussianBlur stdDeviation="5"/><feComposite in2="hardAlpha" operator="out"/><feColorMatrix type="matrix" values="0 0 0 0 1 0 0 0 0 1 0 0 0 0 1 0 0 0 0.2 0"/><feBlend in2="BackgroundImageFix" mode="normal" result="effect1_dropShadow_1618_7162"/><feColorMatrix in="SourceAlpha" result="hardAlpha" type="matrix" values="0 0 0 0 0 0 0 0 0 0 0 0 0 0 0 0 0 0 127 0"/><feOffset dy="1"/><feComposite in2="hardAlpha" operator="out"/><feColorMatrix type="matrix" values="0 0 0 0 0 0 0 0 0 0 0 0 0 0 0 0 0 0 0.25 0"/><feBlend in2="effect1_dropShadow_1618_7162" mode="normal" result="effect2_dropShadow_1618_7162"/><feBlend in="SourceGraphic" in2="effect2_dropShadow_1618_7162" mode="normal" result="shape"/></filter><linearGradient id="l" gradientUnits="userSpaceOnUse" x1="735.5" x2="735.5" y1="60.167" y2="351.819"><stop offset=".156676" stop-color="#011336"/><stop offset=".560417" stop-color="#011b4b" stop-opacity=".5"/><stop offset="1" stop-color="#002b7d" stop-opacity="0"/></linearGradient><linearGradient id="m" gradientUnits="userSpaceOnUse" x1="149" x2="249.016" y1="466.167" y2="465.839"><stop offset="0" stop-color="#fff" stop-opacity="0"/><stop offset=".344308" stop-color="#ded5d5"/><stop offset=".885417" stop-color="#fff"/><stop offset="1" stop-color="#fff" stop-opacity="0"/></linearGradient><linearGradient id="n" gradientUnits="userSpaceOnUse" x1="1146" x2="1346.85" y1="459.167" y2="457.845"><stop offset="0" stop-color="#fff" stop-opacity="0"/><stop offset=".344308" stop-color="#ded5d5"/><stop offset=".83125" stop-color="#fff"/><stop offset="1" stop-color="#fff" stop-opacity="0"/></linearGradient><linearGradient id="o"><stop offset="0" stop-color="#04d99c"/><stop offset=".275084" stop-color="#07bd89"/><stop offset=".891281" stop-color="#006e8c"/></linearGradient><linearGradient id="p" gradientUnits="userSpaceOnUse" x1="1256.85" x2="1402.95" xlink:href="#o" y1="321.237" y2="325.666"/><linearGradient id="q" gradientUnits="userSpaceOnUse" x1="1298.07" x2="1300.36" xlink:href="#o" y1="310.663" y2="310.674"/><linearGradient id="r" gradientUnits="userSpaceOnUse" x1="1295.22" x2="1308.49" xlink:href="#o" y1="310.61" y2="313.024"/><linearGradient id="s" gradientUnits="userSpaceOnUse" x1="1292.07" x2="1294.36" xlink:href="#o" y1="304.442" y2="304.459"/><linearGradient id="t" gradientUnits="userSpaceOnUse" x1="1290.16" x2="1299.17" xlink:href="#o" y1="304.61" y2="305.703"/><linearGradient id="u" gradientUnits="userSpaceOnUse" x1="1276.2" x2="1327.75" xlink:href="#o" y1="317.696" y2="319.258"/><linearGradient id="v" gradientUnits="userSpaceOnUse" x1="918.346" x2="1064.45" xlink:href="#o" y1="136.237" y2="140.666"/><linearGradient id="w" gradientUnits="userSpaceOnUse" x1="931.871" x2="1012.54" xlink:href="#o" y1="132.183" y2="135.138"/><linearGradient id="x" gradientUnits="userSpaceOnUse" x1="347.346" x2="493.449" xlink:href="#o" y1="156.237" y2="160.666"/><linearGradient id="y" gradientUnits="userSpaceOnUse" x1="370.494" x2="405.558" xlink:href="#o" y1="152.9" y2="153.361"/><linearGradient id="z" gradientUnits="userSpaceOnUse" x1="379.23" x2="412.949" xlink:href="#o" y1="153.034" y2="153.524"/><linearGradient id="A" gradientUnits="userSpaceOnUse" x1="362.292" x2="395.971" xlink:href="#o" y1="151.634" y2="152.129"/><linearGradient id="B" gradientUnits="userSpaceOnUse" x1="610.846" x2="756.949" xlink:href="#o" y1="66.2367" y2="70.6659"/><linearGradient id="C" gradientUnits="userSpaceOnUse" x1="640.164" x2="645.691" xlink:href="#o" y1="49.8333" y2="49.8667"/><linearGradient id="D" gradientUnits="userSpaceOnUse" x1="624.589" x2="651.759" xlink:href="#o" y1="59.7386" y2="63.8895"/><linearGradient id="E" gradientUnits="userSpaceOnUse" x1="646.554" x2="673.723" xlink:href="#o" y1="59.7377" y2="63.8882"/><linearGradient id="F" gradientUnits="userSpaceOnUse" x1="640.164" x2="645.691" xlink:href="#o" y1="71.7992" y2="71.8326"/><linearGradient id="G" gradientUnits="userSpaceOnUse" x1="629.69" x2="648.454" xlink:href="#o" y1="67.4219" y2="67.9423"/><linearGradient id="H" gradientUnits="userSpaceOnUse" x1="645.234" x2="663.763" xlink:href="#o" y1="67.4057" y2="67.9138"/><linearGradient id="I" gradientUnits="userSpaceOnUse" x1="629.696" x2="648.336" xlink:href="#o" y1="53.5088" y2="54.022"/><linearGradient id="J" gradientUnits="userSpaceOnUse" x1="645.224" x2="663.866" xlink:href="#o" y1="53.5179" y2="54.0319"/><clipPath id="K"><path d="m0 31h1440v471h-1440z"/></clipPath><clipPath id="L"><path d="m1270.99 298.676h32.9143v31.6952h-32.9143z"/></clipPath><clipPath id="M"><path d="m930.852 114.322h35.3524v29.2571h-35.3524z"/></clipPath><clipPath id="N"><path d="m361.867 131.318h31.6952v35.3524h-31.6952z"/></clipPath><clipPath id="O"><path d="m624.238 42.4053h34.1333v34.1333h-34.1333z"/></clipPath><g clip-path="url(#K)"><path d="m0 435.167c65.6405-31.652 192.359-90.231 296.853-207.178 66.461-74.382 141.493-169.822 350.723-169.822 209.229 0 284.687 72.732 404.964 139.752 73.85 41.148 233.85 113.947 418.46 175.668" stroke="#fff" stroke-width="8"/><path d="m301.624 229.093c-103.357 116.331-228.6975 174.601-293.624 206.086v33.137c61.7326-38.425 209.506 136.259 302.833 105.675 64.167-21.029 250.667-103.047 537.167-69.324 273.59 32.203 556.62-80.688 615-23.5v-107.243c-182.61-61.396-340.86-133.811-413.91-174.742-118.968-66.666-193.604-139.015-400.558-139.015s-281.169 94.937-346.908 168.926z" fill="url(#l)" fill-opacity=".63"/></g><path d="m149 463.167h121v6.00001h-121z" fill="url(#m)" transform="matrix(0 -1 1 0 -314.167 612.167)"/><path d="m1146 456.167h243v6.00001h-243z" fill="url(#n)" transform="matrix(0 -1 1 0 689.833 1602.167)"/><path d="m1268.57 266.479v-.028c0-1.316-.7-1.974-1.84-2.408.7-.392 1.29-1.008 1.29-2.114v-.028c0-1.54-1.23-2.534-3.23-2.534h-4.55v9.8h4.66c2.21 0 3.67-.896 3.67-2.688zm-2.69-4.186c0 .728-.6 1.036-1.55 1.036h-1.99v-2.072h2.13c.91 0 1.41.364 1.41 1.008zm.55 3.92c0 .728-.58 1.064-1.53 1.064h-2.56v-2.156h2.49c1.11 0 1.6.406 1.6 1.064zm10.51 2.954v-7.504h-2.13v4.186c0 1.008-.52 1.526-1.33 1.526s-1.29-.518-1.29-1.526v-4.186h-2.13v4.858c0 1.722.94 2.786 2.55 2.786 1.08 0 1.71-.574 2.2-1.204v1.064zm9.66-3.738v-.028c0-2.156-1.73-3.878-4.05-3.878-2.34 0-4.07 1.75-4.07 3.906v.028c0 2.156 1.72 3.878 4.04 3.878 2.34 0 4.08-1.75 4.08-3.906zm-2.1.028c0 1.106-.73 2.044-1.95 2.044-1.18 0-1.97-.966-1.97-2.072v-.028c0-1.106.72-2.044 1.94-2.044 1.18 0 1.98.966 1.98 2.072zm-1.98-5.278.83.686h1.23l-1.29-1.638h-1.51l-1.29 1.638h1.21zm-.26-3.472c.26.014.44.07.54.224.24.378-.04 1.162-.61 1.666h.77c1.02-.868 1.24-1.666.68-2.296-.14-.154-.66-.35-1.27-.238zm7.88 4.2v-1.414h-1.68v1.414zm.22 8.26v-7.504h-2.13v7.504zm10.41-.308v-1.708c-.31.168-.66.266-1.05.266-.47 0-.68-.238-.68-.728v-3.206h1.76v-1.82h-1.76v-1.918h-2.13v1.918h-.9v1.82h.9v3.556c0 1.736.88 2.254 2.18 2.254.72 0 1.23-.168 1.68-.434zm9.35-3.43v-.028c0-2.156-1.72-3.878-4.04-3.878-2.34 0-4.08 1.75-4.08 3.906v.028c0 2.156 1.73 3.878 4.05 3.878 2.34 0 4.07-1.75 4.07-3.906zm-2.1.028c0 1.106-.72 2.044-1.94 2.044-1.18 0-1.98-.966-1.98-2.072v-.028c0-1.106.73-2.044 1.95-2.044 1.18 0 1.97.966 1.97 2.072zm-1.97-5.278.83.686h1.23l-1.29-1.638h-1.51l-1.29 1.638h1.2zm.69-1.582 1.34-1.26-1.37-.602-1.19 1.862zm6.93 2.31v-1.414h-1.68v1.414zm.22 8.26v-7.504h-2.13v7.504z" fill="#fff"/><g filter="url(#a)"><circle cx="1287" cy="314.167" fill="url(#p)" r="32"/></g><g filter="url(#b)"><ellipse cx="1287.01" cy="314.132" fill="#fff" rx="28.3502" ry="28.3076"/></g><g clip-path="url(#L)" stroke-linecap="round" stroke-linejoin="round" stroke-width="2"><path d="m1298.04 313v-6" stroke="url(#q)"/><path d="m1301.04 310h-6" stroke="url(#r)"/><path d="m1292.04 302v4" stroke="url(#s)"/><path d="m1294.04 304h-4" stroke="url(#t)"/><path d="m1298.13 318.075c-1.96.55-4.04.568-6.01.052s-3.77-1.549-5.21-2.99c-1.45-1.442-2.48-3.242-3-5.214-.51-1.973-.49-4.048.06-6.011-1.94.539-3.7 1.575-5.11 3.006s-2.42 3.207-2.93 5.15c-.51 1.944-.5 3.987.02 5.926.52 1.94 1.55 3.708 2.97 5.129 1.42 1.42 3.19 2.444 5.13 2.969s3.98.532 5.92.021c1.95-.51 3.72-1.521 5.15-2.932 1.43-1.41 2.47-3.171 3.01-5.106z" stroke="url(#u)"/></g><path d="m920.607 81.479v-.028c0-1.316-.7-1.974-1.834-2.408.7-.392 1.288-1.008 1.288-2.114v-.028c0-1.54-1.232-2.534-3.234-2.534h-4.55v9.8h4.662c2.212 0 3.668-.896 3.668-2.688zm-2.688-4.186c0 .728-.602 1.036-1.554 1.036h-1.988v-2.072h2.128c.91 0 1.414.364 1.414 1.008zm.546 3.92c0 .728-.574 1.064-1.526 1.064h-2.562v-2.156h2.492c1.106 0 1.596.406 1.596 1.064zm10.509 2.954v-7.504h-2.128v4.186c0 1.008-.518 1.526-1.33 1.526s-1.288-.518-1.288-1.526v-4.186h-2.128v4.858c0 1.722.938 2.786 2.548 2.786 1.078 0 1.708-.574 2.198-1.204v1.064zm9.661-3.738v-.028c0-2.156-1.722-3.878-4.046-3.878-2.338 0-4.074 1.75-4.074 3.906v.028c0 2.156 1.722 3.878 4.046 3.878 2.338 0 4.074-1.75 4.074-3.906zm-2.1.028c0 1.106-.728 2.044-1.946 2.044-1.176 0-1.974-.966-1.974-2.072v-.028c0-1.106.728-2.044 1.946-2.044 1.176 0 1.974.966 1.974 2.072zm-1.974-5.278.826.686h1.232l-1.288-1.638h-1.512l-1.288 1.638h1.204zm-.266-3.472c.266.014.448.07.546.224.238.378-.042 1.162-.616 1.666h.77c1.022-.868 1.246-1.666.686-2.296-.14-.154-.658-.35-1.274-.238zm7.883 4.2v-1.414h-1.68v1.414zm.224 8.26v-7.504h-2.128v7.504zm12.804-1.204-1.246-1.26c-.518.49-1.008.798-1.722.798-1.162 0-1.904-.924-1.904-2.072v-.028c0-1.106.756-2.044 1.82-2.044.756 0 1.232.322 1.708.826l1.302-1.4c-.7-.784-1.582-1.26-2.996-1.26-2.296 0-3.934 1.764-3.934 3.906v.028c0 2.142 1.652 3.878 3.906 3.878 1.498 0 2.338-.574 3.066-1.372zm8.264 1.204v-4.858c0-1.722-.938-2.786-2.548-2.786-1.078 0-1.708.574-2.198 1.204v-3.78h-2.128v10.22h2.128v-4.186c0-1.008.518-1.526 1.33-1.526s1.288.518 1.288 1.526v4.186zm3.85-8.26v-1.414h-1.68v1.414zm.224 8.26v-7.504h-2.128v7.504zm8.999-3.542v-.028c0-2.128-1.148-4.074-3.654-4.074-2.184 0-3.71 1.764-3.71 3.906v.028c0 2.296 1.666 3.878 3.92 3.878 1.358 0 2.366-.532 3.066-1.4l-1.218-1.078c-.588.546-1.106.77-1.82.77-.952 0-1.624-.504-1.834-1.47h5.222c.014-.196.028-.322.028-.532zm-2.072-.798h-3.206c.168-.966.742-1.596 1.624-1.596.896 0 1.456.644 1.582 1.596zm-1.47-4.648.826.686h1.232l-1.288-1.638h-1.512l-1.288 1.638h1.204zm.532-1.582-1.176-1.862-1.386.602 1.344 1.26zm11.414 10.57v-7.504h-2.128v4.186c0 1.008-.518 1.526-1.33 1.526s-1.288-.518-1.288-1.526v-4.186h-2.128v4.858c0 1.722.938 2.786 2.548 2.786 1.078 0 1.708-.574 2.198-1.204v1.064z" fill="#fff"/><g filter="url(#c)"><circle cx="948.5" cy="129.167" fill="url(#v)" r="32"/></g><g filter="url(#d)"><ellipse cx="948.506" cy="129.132" fill="#fff" rx="28.3502" ry="28.3076"/></g><g clip-path="url(#M)"><path d="m948.727 143.579c-.114 0-.23 0-.345 0-.104-.045-.21-.087-.313-.134-3.079-1.404-6.31-1.844-9.662-1.556-2.116.183-4.177.636-6.218 1.208-.769.216-1.335-.213-1.336-1.012-.002-7.393-.002-14.786 0-22.178 0-.682.392-1.077 1.07-1.085.76-.008 1.519-.002 2.279-.002h.411c0-1.043-.004-2.034.001-3.024.002-.78.263-1.074 1.027-1.214 2.006-.369 4.008-.346 5.999.079 2.464.525 4.649 1.582 6.379 3.469.191.209.37.429.496.575.359-.321.696-.634 1.046-.933.35-.298.694-.609 1.073-.867 3.4-2.317 7.177-2.802 11.154-2.27.527.071.813.453.818.995.006.83.001 1.661.001 2.491v.699c.876 0 1.704-.006 2.532.002.673.007 1.063.39 1.063 1.047.002 7.416.002 14.832 0 22.247 0 .761-.559 1.182-1.291.99-.066-.018-.133-.036-.2-.055-2.365-.66-4.759-1.149-7.222-1.232-3.059-.103-5.993.419-8.762 1.76zm.788-4.485c1.707-1.124 3.425-2.066 5.293-2.703 1.89-.645 3.829-.944 5.839-.798 0-6.394 0-12.763 0-19.159-2.999-.216-5.85.159-8.449 1.755-.982.604-1.818 1.375-2.464 2.334-.126.186-.21.44-.211.664-.011 5.823-.009 11.645-.009 17.468.001.121.001.243.001.439zm-1.964-.209c.01-.116.02-.172.02-.228.001-5.882.002-11.763-.005-17.645 0-.15-.06-.316-.139-.447-.547-.913-1.272-1.664-2.135-2.278-1.717-1.222-3.661-1.79-5.735-1.972-.998-.087-1.994-.067-3.02.095-.036 6.42-.071 12.825-.106 19.247 4.061-.104 7.769.848 11.12 3.228zm-.66 1.941c-.127-.097-.251-.198-.379-.292-3.227-2.356-6.87-3.153-10.795-2.887-.827.056-1.224-.307-1.219-1.14.026-5.098.052-10.194.079-15.292 0-.136 0-.271 0-.416-.611 0-1.188 0-1.756 0v20.114c2.335-.598 4.665-.996 7.043-1.044 2.383-.049 4.72.268 7.027.957zm15.716-20.041v.454 15.225c0 .901-.406 1.282-1.284 1.161-1.229-.171-2.453-.163-3.676.043-2.546.43-4.793 1.558-6.923 2.962-.028.019-.049.051-.125.132 4.609-1.396 9.13-1.003 13.645.149 0-6.742 0-13.426 0-20.126-.546 0-1.07 0-1.637 0z" fill="url(#w)"/></g><path d="m351.992 101.479v-.028c0-1.316-.7-1.974-1.834-2.408.7-.392 1.288-1.008 1.288-2.114v-.028c0-1.54-1.232-2.534-3.234-2.534h-4.55v9.8h4.662c2.212 0 3.668-.896 3.668-2.688zm-2.688-4.186c0 .728-.602 1.036-1.554 1.036h-1.988v-2.072h2.128c.91 0 1.414.364 1.414 1.008zm.546 3.92c0 .728-.574 1.064-1.526 1.064h-2.562v-2.156h2.492c1.106 0 1.596.406 1.596 1.064zm10.51 2.954v-7.504h-2.128v4.186c0 1.008-.518 1.526-1.33 1.526s-1.288-.518-1.288-1.526v-4.186h-2.128v4.858c0 1.722.938 2.786 2.548 2.786 1.078 0 1.708-.574 2.198-1.204v1.064zm9.661-3.738v-.028c0-2.156-1.722-3.878-4.046-3.878-2.338 0-4.074 1.75-4.074 3.906v.028c0 2.156 1.722 3.878 4.046 3.878 2.338 0 4.074-1.75 4.074-3.906zm-2.1.028c0 1.106-.728 2.044-1.946 2.044-1.176 0-1.974-.966-1.974-2.072v-.028c0-1.106.728-2.044 1.946-2.044 1.176 0 1.974.966 1.974 2.072zm-1.974-5.278.826.686h1.232l-1.288-1.638h-1.512l-1.288 1.638h1.204zm-.266-3.472c.266.014.448.07.546.224.238.378-.042 1.162-.616 1.666h.77c1.022-.868 1.246-1.666.686-2.296-.14-.154-.658-.35-1.274-.238zm7.882 4.2v-1.414h-1.68v1.414zm.224 8.26v-7.504h-2.128v7.504zm11.698-2.282v-.028c0-1.372-1.218-1.876-2.268-2.226-.812-.28-1.526-.476-1.526-.896v-.028c0-.294.266-.518.784-.518.546 0 1.288.266 2.03.7l.812-1.47c-.812-.546-1.848-.868-2.8-.868-1.512 0-2.744.854-2.744 2.38v.028c0 1.456 1.19 1.946 2.24 2.254.826.252 1.554.406 1.554.868v.028c0 .336-.28.56-.896.56-.7 0-1.554-.308-2.366-.896l-.91 1.4c.994.784 2.17 1.134 3.22 1.134 1.624 0 2.87-.756 2.87-2.422zm7.98 2.282v-4.354c0-2.03-1.022-3.234-3.346-3.234-1.274 0-2.086.238-2.912.602l.532 1.624c.686-.252 1.26-.406 2.072-.406 1.064 0 1.61.49 1.61 1.372v.126c-.532-.182-1.078-.308-1.834-.308-1.778 0-3.024.756-3.024 2.394v.028c0 1.484 1.162 2.296 2.576 2.296 1.036 0 1.75-.378 2.268-.952v.812zm-2.016-2.646c0 .77-.672 1.316-1.666 1.316-.686 0-1.162-.336-1.162-.91v-.028c0-.672.56-1.036 1.47-1.036.518 0 .994.112 1.358.28zm-.574-5.684 1.344-1.26-1.372-.602-1.19 1.862zm11.295 8.33v-4.858c0-1.722-.938-2.786-2.548-2.786-1.078 0-1.708.574-2.198 1.204v-1.064h-2.128v7.504h2.128v-4.186c0-1.008.518-1.526 1.33-1.526s1.288.518 1.288 1.526v4.186zm9.394-1.694v-5.81h-2.128v.98c-.574-.63-1.26-1.12-2.422-1.12-1.722 0-3.332 1.26-3.332 3.5v.028c0 2.226 1.582 3.5 3.332 3.5 1.134 0 1.82-.462 2.45-1.218v.364c0 1.344-.686 2.044-2.142 2.044-.994 0-1.764-.252-2.534-.686l-.728 1.596c.952.504 2.1.784 3.318.784 2.786 0 4.186-1.134 4.186-3.962zm-2.1-2.422c0 1.022-.798 1.736-1.834 1.736s-1.82-.7-1.82-1.736v-.028c0-1.022.784-1.736 1.82-1.736s1.834.714 1.834 1.736z" fill="#fff"/><g filter="url(#e)"><circle cx="377.5" cy="149.167" fill="url(#x)" r="32"/></g><g filter="url(#f)"><ellipse cx="377.506" cy="149.132" fill="#fff" rx="28.3502" ry="28.3076"/></g><g clip-path="url(#N)"><path d="m375.011 166.614c.773-5.162 1.546-10.325 2.339-15.625-2.427.212-4.78.417-7.299.637 3.454-6.875 6.829-13.591 10.204-20.308.059.012.118.024.176.036-.778 5.196-1.556 10.391-2.354 15.72 2.44-.227 4.796-.446 7.322-.681-3.437 6.847-6.808 13.563-10.179 20.278-.07-.019-.139-.038-.209-.057z" fill="url(#y)"/><path d="m385.029 137.696c-.156.219-.282.396-.407.573-.127.181-.254.362-.442.63-.976-1.548-1.92-3.045-2.936-4.657h5.871c-.253.461-.473.862-.691 1.26 7.335 5.204 8.261 13.563 6.154 19.175-2.211 5.89-8.003 10.304-13.773 10.348.404-.806.731-1.591 1.182-2.294.168-.261.611-.381.952-.482 5.335-1.579 8.796-5.063 9.882-10.597 1.064-5.423-.779-9.917-4.995-13.408-.238-.197-.51-.352-.797-.548z" fill="url(#z)"/><path d="m369.883 160.047c.393-.525.747-.999 1.177-1.573.705 1.74 1.369 3.379 2.024 4.995-1.821 0-3.558 0-5.469 0 .344-.55.573-.916.802-1.282-7.362-5.752-7.556-14.353-5.24-19.62 2.384-5.421 8.292-9.665 13.433-9.475-.384.767-.702 1.531-1.14 2.216-.169.266-.588.421-.924.518-5.156 1.481-8.585 4.792-9.831 10.083-1.258 5.34.365 9.88 4.394 13.533.229.208.487.382.774.605z" fill="url(#A)"/></g><path d="m617.899 11.479v-.028c0-1.316-.7-1.97401-1.834-2.40801.7-.392 1.288-1.008 1.288-2.114v-.028c0-1.54-1.232-2.534-3.234-2.534h-4.55v9.80001h4.662c2.212 0 3.668-.896 3.668-2.688zm-2.688-4.18601c0 .728-.602 1.036-1.554 1.036h-1.988v-2.072h2.128c.91 0 1.414.364 1.414 1.008zm.546 3.92001c0 .728-.574 1.064-1.526 1.064h-2.562v-2.156h2.492c1.106 0 1.596.406 1.596 1.064zm10.509 2.954v-7.50401h-2.128v4.18601c0 1.008-.518 1.526-1.33 1.526s-1.288-.518-1.288-1.526v-4.18601h-2.128v4.85801c0 1.722.938 2.786 2.548 2.786 1.078 0 1.708-.574 2.198-1.204v1.064zm9.661-3.738v-.028c0-2.15601-1.722-3.87801-4.046-3.87801-2.338 0-4.074 1.75-4.074 3.90601v.028c0 2.156 1.722 3.878 4.046 3.878 2.338 0 4.074-1.75 4.074-3.906zm-2.1.028c0 1.106-.728 2.044-1.946 2.044-1.176 0-1.974-.966-1.974-2.072v-.028c0-1.10601.728-2.04401 1.946-2.04401 1.176 0 1.974.966 1.974 2.07201zm-1.974-5.27801.826.686h1.232l-1.288-1.638h-1.512l-1.288 1.638h1.204zm-.266-3.472c.266.014.448.07.546.224.238.378-.042 1.162-.616 1.666h.77c1.022-.868 1.246-1.666.686-2.296-.14-.154-.658-.349999-1.274-.238zm7.883 4.2v-1.414h-1.68v1.414zm.224 8.26001v-7.50401h-2.128v7.50401zm10.41-.308v-1.708c-.308.168-.658.266-1.051.266-.475 0-.685-.238-.685-.728v-3.20601h1.764v-1.82h-1.764v-1.918h-2.128v1.918h-.896v1.82h.896v3.55601c0 1.736.882 2.254 2.184 2.254.714 0 1.232-.168 1.68-.434zm6.118-5.11001v-2.226c-1.26-.056-1.96.616-2.394 1.652v-1.512h-2.128v7.50401h2.128v-2.772c0-1.79201.868-2.64601 2.282-2.64601zm8.428-2.338c.042.154.07.28.07.406 0 .28-.112.476-.35.588v-.742h-2.128v4.18601c0 1.008-.518 1.526-1.33 1.526s-1.288-.518-1.288-1.526v-4.18601h-2.128v4.85801c0 1.722.938 2.786 2.548 2.786 1.078 0 1.708-.574 2.198-1.204v1.064h2.128v-5.90801c.98-.042 1.54-.448 1.54-1.162 0-.238-.07-.49-.168-.686zm8.078 7.75601v-4.35401c0-2.03-1.022-3.234-3.346-3.234-1.274 0-2.086.238-2.912.602l.532 1.624c.686-.252 1.26-.406 2.072-.406 1.064 0 1.61.49 1.61 1.372v.126c-.532-.182-1.078-.308-1.834-.308-1.778 0-3.024.75601-3.024 2.39401v.028c0 1.484 1.162 2.296 2.576 2.296 1.036 0 1.75-.378 2.268-.952v.812zm-2.016-2.646c0 .77-.672 1.316-1.666 1.316-.686 0-1.162-.336-1.162-.91v-.028c0-.672.56-1.036 1.47-1.036.518 0 .994.112 1.358.28z" fill="#fff"/><g filter="url(#g)"><circle cx="641" cy="59.167" fill="url(#B)" r="32"/></g><g filter="url(#h)"><ellipse cx="641.006" cy="59.1318" fill="#fff" rx="28.3502" ry="28.3076"/></g><g clip-path="url(#O)"><path d="m641.683 42.4053c.639.3629.836.9136.83 1.6372-.027 3.0331-.007 6.0662-.015 9.0993-.003.8312-.348 1.3078-.968 1.4106-.798.132-1.398-.3755-1.415-1.259-.025-1.3393-.009-2.6794-.009-4.0186-.001-1.744.023-3.4883-.012-5.2319-.014-.7245.192-1.2747.83-1.6376z" fill="url(#C)"/><path d="m624.238 59.0926c.364-.6383.913-.8343 1.638-.8278 3.032.0279 6.065.0078 9.098.0148.832.0018 1.308.3442 1.411.9646.133.7985-.376 1.3993-1.259 1.4141-1.389.0236-2.78.0083-4.17.0083-1.693.0004-3.387-.0253-5.08.0118-.725.0157-1.274-.1908-1.637-.8278-.001-.2522-.001-.5049-.001-.758z" fill="url(#D)"/><path d="m658.371 59.8504c-.363.6369-.911.8343-1.636.8277-3.033-.0278-6.067-.0078-9.1-.0148-.832-.0017-1.308-.3446-1.411-.9654-.132-.7986.377-1.3993 1.259-1.4133 1.441-.0231 2.882-.0083 4.323-.0083 1.643-.0004 3.287.0257 4.929-.0117.725-.0166 1.273.1908 1.636.8277z" fill="url(#E)"/><path d="m640.924 76.5391c-.637-.3629-.836-.9118-.83-1.6355.026-3.0335.007-6.067.015-9.1005.002-.8313.347-1.3079.966-1.4111.799-.1325 1.399.3751 1.416 1.259.026 1.2887.009 2.5783.01 3.8678 0 1.795-.023 3.5903.011 5.3844.014.7241-.192 1.273-.83 1.6355-.252.0004-.505.0004-.758.0004z" fill="url(#F)"/><path d="m637.666 70.9215c-3.028-.609-7.334-4.0538-8.213-8.979.734 0 1.451-.0192 2.166.0174.131.0066.316.2166.368.3691.933 2.7725 2.688 4.8049 5.354 6.0426.144.0667.304.2766.311.4269.033.6988.014 1.4003.014 2.123z" fill="url(#G)"/><path d="m645 70.9005c0-.7807 0-1.5553 0-2.1103 1.244-.9872 2.545-1.7719 3.509-2.8562.879-.989 1.424-2.286 2.046-3.484.172-.3316.27-.5381.675-.5202.626.0279 1.254.0074 1.885.0074-.282 3.6635-4.727 8.573-8.115 8.9633z" fill="url(#H)"/><path d="m637.616 48.0215c0 .7241.028 1.3802-.018 2.0306-.014.1956-.194.464-.371.5503-2.584 1.2638-4.318 3.257-5.236 5.9786-.057.1686-.267.3942-.418.4034-.698.0431-1.399.0191-2.112.0191.787-4.723 4.966-8.2845 8.155-8.982z" fill="url(#I)"/><path d="m653.153 57.0065c-.716 0-1.372.0288-2.021-.0183-.182-.013-.448-.2165-.506-.389-.914-2.7246-2.648-4.7178-5.225-5.9899-.169-.0837-.377-.2976-.387-.4623-.043-.6979-.019-1.4002-.019-2.1099 3.457.4653 7.52 4.9256 8.158 8.9694z" fill="url(#J)"/></g><g filter="url(#i)"><g stroke="#fff" stroke-linecap="round" stroke-linejoin="round" stroke-width="2"><path d="m1143.5 160.054-1.2-2.887"/><path d="m1135.72 167.834-2.89-1.196"/><path d="m1162.28 167.834 2.89-1.196"/><path d="m1154.5 160.054 1.2-2.887"/><path d="m1166.5 175.835h-35"/><path d="m1161.5 182.085h-25"/></g><path d="m1139.96 175.835c-.38-1.392-.44-2.853-.16-4.271.27-1.417.87-2.752 1.74-3.901.88-1.148 2-2.079 3.3-2.72 1.29-.641 2.72-.974 4.16-.974s2.87.333 4.16.974c1.3.641 2.42 1.572 3.3 2.72.87 1.149 1.47 2.484 1.74 3.901.28 1.418.22 2.879-.16 4.271" fill="#fff"/><path d="m1139.96 175.835c-.38-1.392-.44-2.853-.16-4.271.27-1.417.87-2.752 1.74-3.901.88-1.148 2-2.079 3.3-2.72 1.29-.641 2.72-.974 4.16-.974s2.87.333 4.16.974c1.3.641 2.42 1.572 3.3 2.72.87 1.149 1.47 2.484 1.74 3.901.28 1.418.22 2.879-.16 4.271" stroke="#fff" stroke-linecap="round" stroke-linejoin="round" stroke-width="2"/></g><path d="m1114.76 203.045v5.04h1.26v-11.2h-1.26v4.976h-6.47v-4.976h-1.26v11.2h1.26v-5.04zm12.33.896c0-2.352-1.82-4.304-4.3-4.304-2.5 0-4.32 1.984-4.32 4.336s1.8 4.304 4.28 4.304c2.5 0 4.34-1.984 4.34-4.336zm-1.26.032c0 1.776-1.25 3.2-3.04 3.2-1.75 0-3.06-1.44-3.06-3.232s1.23-3.216 3.02-3.216c1.75 0 3.08 1.44 3.08 3.248zm6.48-3.184c1.56 0 2.47.768 2.47 2.256v.288c-.74-.208-1.49-.352-2.55-.352-2.09 0-3.53.928-3.53 2.688 0 1.728 1.55 2.592 3.09 2.592 1.45 0 2.41-.672 2.99-1.424v1.248h1.18v-5.056c0-2.176-1.26-3.328-3.52-3.328-1.2 0-2.09.272-3.01.688l.37 1.008c.77-.352 1.54-.608 2.51-.608zm.05 3.104c1.01 0 1.83.176 2.43.352v.8c0 1.312-1.24 2.24-2.76 2.24-1.12 0-2.08-.608-2.08-1.664s.86-1.728 2.41-1.728zm.03-5.264h.74l-1.14-1.744-.96.448zm7.43 4.72c0-1.552 1.05-2.592 2.48-2.592 1.45 0 2.29.96 2.29 2.496v4.832h1.23v-5.136c0-1.968-1.17-3.312-3.17-3.312-1.42 0-2.29.72-2.83 1.616v-1.44h-1.23v8.272h1.23zm16.5 3.296v-6.832h-1.23v1.488c-.68-.896-1.68-1.664-3.24-1.664-1.96 0-3.88 1.488-3.88 3.92 0 2.416 1.9 3.888 3.88 3.888 1.52 0 2.53-.784 3.25-1.744v.976c0 1.936-1.18 2.944-3.01 2.944-1.18 0-2.24-.368-3.18-1.056l-.56.96c1.1.768 2.38 1.152 3.76 1.152 2.54 0 4.21-1.36 4.21-4.032zm-1.19-3.104c0 1.696-1.47 2.816-3.04 2.816-1.53 0-2.86-1.136-2.86-2.832 0-1.728 1.3-2.8 2.86-2.8 1.57 0 3.04 1.104 3.04 2.816zm9.97-.192c0-1.552 1.06-2.592 2.48-2.592 1.46 0 2.29.96 2.29 2.496v4.832h1.23v-5.136c0-1.968-1.17-3.312-3.17-3.312-1.42 0-2.29.72-2.83 1.616v-4.848h-1.23v11.68h1.23zm16.74.592c0-2.352-1.82-4.304-4.3-4.304-2.5 0-4.32 1.984-4.32 4.336s1.8 4.304 4.28 4.304c2.5 0 4.34-1.984 4.34-4.336zm-1.26.032c0 1.776-1.25 3.2-3.04 3.2-1.75 0-3.06-1.44-3.06-3.232s1.23-3.216 3.02-3.216c1.75 0 3.08 1.44 3.08 3.248zm-3-6.16.9.816h.8l-1.28-1.584h-.82l-1.26 1.584h.77zm7.72 5.536c0-1.552 1.06-2.592 2.48-2.592 1.46 0 2.29.96 2.29 2.496v4.832h1.23v-5.136c0-1.968-1.16-3.312-3.16-3.312-1.43 0-2.29.72-2.84 1.616v-1.44h-1.23v8.272h1.23z" fill="#fff"/><g filter="url(#j)" stroke="#fff" stroke-linecap="round" stroke-linejoin="round" stroke-width="2"><path d="m152 272.542c5.178 0 9.375-4.197 9.375-9.375s-4.197-9.375-9.375-9.375-9.375 4.197-9.375 9.375 4.197 9.375 9.375 9.375z"/><path d="m152 248.792v-3.125"/><path d="m141.835 253.003-2.21-2.21"/><path d="m137.625 263.167h-3.125"/><path d="m141.835 273.332-2.21 2.21"/><path d="m152 277.542v3.125"/><path d="m162.164 273.332 2.21 2.21"/><path d="m166.375 263.167h3.125"/><path d="m162.164 253.003 2.21-2.21"/></g><g filter="url(#k)" stroke="#fff" stroke-linecap="round" stroke-linejoin="round" stroke-width="2"><path d="m152 272.542c5.178 0 9.375-4.197 9.375-9.375s-4.197-9.375-9.375-9.375-9.375 4.197-9.375 9.375 4.197 9.375 9.375 9.375z" fill="#fff"/><path d="m152 248.792v-3.125"/><path d="m141.835 253.003-2.21-2.21"/><path d="m137.625 263.167h-3.125"/><path d="m141.835 273.332-2.21 2.21"/><path d="m152 277.542v3.125"/><path d="m162.164 273.332 2.21 2.21"/><path d="m166.375 263.167h3.125"/><path d="m162.164 253.003 2.21-2.21"/></g><path d="m118.649 297.967h-4.768v11.2h4.976c2.448 0 4.064-1.136 4.064-3.072 0-1.552-1.072-2.32-2.4-2.72.88-.384 1.776-1.136 1.776-2.608 0-1.712-1.44-2.8-3.648-2.8zm-.208 4.992h-3.312v-3.856h3.408c1.6 0 2.48.72 2.48 1.84 0 1.328-1.056 2.016-2.576 2.016zm.448 5.072h-3.76v-3.952h3.536c1.952 0 2.976.704 2.976 1.936 0 1.264-1.056 2.016-2.752 2.016zm7.675 1.136v-8.272h-1.232v8.272zm-.992-9.456h.736l-1.136-1.744-.96.448zm5.083 4.72c0-1.552 1.056-2.592 2.48-2.592 1.456 0 2.288.96 2.288 2.496v4.832h1.232v-5.136c0-1.968-1.168-3.312-3.168-3.312-1.424 0-2.288.72-2.832 1.616v-1.44h-1.232v8.272h1.232zm9.859 0c0-1.552 1.056-2.592 2.48-2.592 1.456 0 2.288.96 2.288 2.496v4.832h1.232v-5.136c0-1.968-1.168-3.312-3.168-3.312-1.424 0-2.288.72-2.832 1.616v-4.848h-1.232v11.68h1.232zm19.985-2.064c-.448-.928-1.312-1.648-2.656-1.648-1.392 0-2.128.752-2.672 1.568v-1.392h-1.232v8.272h1.232v-4.72c0-1.52.992-2.608 2.304-2.608s2.128.912 2.128 2.464v4.864h1.216v-4.768c0-1.632 1.04-2.56 2.288-2.56 1.344 0 2.144.896 2.144 2.496v4.832h1.232v-5.12c0-2.048-1.168-3.328-3.072-3.328-1.441 0-2.32.736-2.912 1.648zm9.922-2.656v-1.008h-1.056v1.008zm.08 9.456v-8.272h-1.232v8.272zm4.091-4.736c0-1.552 1.056-2.592 2.48-2.592 1.456 0 2.288.96 2.288 2.496v4.832h1.232v-5.136c0-1.968-1.168-3.312-3.168-3.312-1.424 0-2.288.72-2.832 1.616v-1.44h-1.232v8.272h1.232zm9.86 0c0-1.552 1.056-2.592 2.48-2.592 1.456 0 2.288.96 2.288 2.496v4.832h1.232v-5.136c0-1.968-1.168-3.312-3.168-3.312-1.424 0-2.288.72-2.832 1.616v-4.848h-1.232v11.68h1.232z" fill="#fff"/></svg>