<svg width="48" height="49" viewBox="0 0 48 49" fill="none" xmlns="http://www.w3.org/2000/svg">
  <path
    d="M19.5373 18.1246C19.5549 17.0905 19.5764 16.0902 19.5998 15.1508C18.634 14.0867 18.1207 12.6887 18.1679 11.2526C18.2154 9.81683 18.8199 8.45557 19.8536 7.45755C20.8871 6.45952 22.2688 5.90296 23.7057 5.90621C25.1424 5.90914 26.5216 6.47162 27.5511 7.4738C28.5804 8.47632 29.1793 9.83991 29.2203 11.2763C29.2616 12.7124 28.7421 14.1082 27.7721 15.168C27.7864 16.1224 27.7982 17.1396 27.8053 18.152C29.7678 16.9505 31.1069 14.9506 31.4699 12.6783C31.8331 10.4059 31.1841 8.08868 29.694 6.33519C28.2035 4.5817 26.0207 3.56809 23.7197 3.56059C21.4184 3.55278 19.229 4.55204 17.7272 6.29544C16.2254 8.03885 15.561 10.3522 15.909 12.6268C16.2573 14.9014 17.5827 16.91 19.5374 18.1245L19.5373 18.1246Z"
    fill="currentColor" />
  <path
    d="M10.0786 33.7345C10.8275 33.6024 11.5918 33.5802 12.3473 33.6684C13.8768 34.3979 15.1939 35.5072 16.1726 36.8906C17.8828 39.4478 19.967 41.0225 22.6905 42.5547C23.0001 42.7432 23.2543 43.0104 23.4271 43.3291C23.6 43.6474 23.6859 44.0061 23.6755 44.3688C23.6801 44.6891 23.8103 44.9947 24.0384 45.2196C24.2666 45.4446 24.5742 45.5709 24.8945 45.5709H35.1664C35.4896 45.5709 35.7998 45.4423 36.0287 45.2138C36.2572 44.9849 36.3858 44.6751 36.3858 44.3515V42.4619C36.3858 40.2889 38.0266 38.2757 38.4485 35.8979V35.8975C38.9839 33.01 38.8306 30.0369 38.0016 27.2197C37.6735 26.0586 37.1087 25.1211 36.1108 25.1211H35.7009V25.1208C35.2273 25.1153 34.771 25.2979 34.4321 25.6289C34.0933 25.9596 33.8996 26.4114 33.8937 26.885V25.3832C33.8882 24.9096 33.6945 24.4578 33.3557 24.1268C33.0168 23.796 32.5605 23.6134 32.0868 23.619H31.677C31.2034 23.6134 30.7471 23.796 30.4082 24.1268C30.0693 24.4578 29.8756 24.9096 29.8698 25.3832V24.1541C29.8639 23.6805 29.6703 23.2287 29.3314 22.898C28.9926 22.567 28.5362 22.3844 28.0626 22.3899H27.6528C27.2537 22.3733 26.8608 22.4957 26.5418 22.7362C26.2225 22.9768 25.9969 23.3205 25.9028 23.7092C25.9657 21.209 25.9276 16.6805 25.8654 13.5764C25.8495 12.8134 25.4344 12.1146 24.7721 11.7353C24.11 11.3564 23.2972 11.3522 22.6309 11.7249C21.9649 12.0973 21.5431 12.7919 21.5193 13.5549C21.3881 17.9189 21.2736 25.0101 21.4497 29.6973C21.5942 33.5425 20.2501 32.2223 19.4407 31.6207C17.6039 30.456 17.0401 29.7439 14.603 29.5496C13.1513 29.451 11.7015 29.7634 10.4194 30.4509C9.74914 30.7878 9.28792 31.4322 9.18509 32.1754C9.11934 32.8133 9.36314 33.5848 10.0783 33.7345L10.0786 33.7345Z"
    fill="currentColor" />
</svg>
