<svg fill="none" height="40" viewBox="0 0 40 40" width="40" xmlns="http://www.w3.org/2000/svg"><path d="m19.5284 14.4135c3.4718 0 6.2962-2.7843 6.2962-6.20676 0-3.42241-2.8244-6.20674-6.2962-6.20674-3.4717 0-6.2961 2.78426-6.2961 6.20674 0 3.42236 2.8244 6.20676 6.2961 6.20676zm0-11.17208c2.7775 0 5.0373 2.22769 5.0373 4.96567 0 2.73801-2.2598 4.96571-5.0373 4.96571-2.7774 0-5.0372-2.2277-5.0372-4.96571.0003-2.73798 2.2598-4.96567 5.0372-4.96567zm16.8427 33.51758h-4.7805c.0334-.0924.06-.1883.0784-.2877l.0569-.3072 2.2869-2.2544c.827-.8152 1.1268-2.0055.7823-3.1062l-1.3076-4.19.2425-1.3147c.0977-.5287-.041-1.0731-.3809-1.4933-.2415-.2982-.5672-.5131-.931-.6211l-.8457-2.7092c-.439-1.4052-1.3054-2.6099-2.5054-3.4836-1.2003-.8735-2.6232-1.3356-4.1148-1.3356h-10.8475c-1.4916 0-2.9148.4621-4.11481 1.3356-1.20032.8736-2.06647 2.0784-2.50542 3.4841l-.84572 2.7092c-.36313.108-.68947.3229-.93093.6217-.33992.4205-.4789.9648-.38096 1.4933l.24228 1.3147-1.30735 4.1891c-.34445 1.1013-.04472 2.2915.78232 3.1068l2.2869 2.2544.05689.3069c.01839.0996.04557.1953.07868.288l-3.83683-.0006c-.34785 0-.62975.2779-.62975.6208s.28218.62.62975.62h32.74045c.3479 0 .6298-.2779.6298-.6208s-.2816-.6203-.6292-.6203zm-2.7797-5.5904c.2067.6605.0269 1.3744-.4695 1.8633l-1.0006.9863.8766-4.7516zm-19.4866-14.272h10.8468c2.5035 0 4.6806 1.5848 5.4165 3.943l.7067 2.2637h-23.0935l.70646-2.2637c.73703-2.3582 2.91324-3.943 5.41704-3.943zm-8.63906 14.2713.59352-1.9012.87601 4.7511-1.00027-.9861c-.49645-.4891-.67645-1.2031-.46928-1.8638zm3.78023 5.5909c-.30426 0-.56494-.2143-.61928-.5103l-1.79187-9.7164c-.00028-.0017-.00028-.0036-.00085-.0053l-.26775-1.4511c-.0334-.1783.01189-.3549.12652-.4969.11519-.1423.27992-.2258.46163-.2333.01019-.0003.02066-.0008.03085-.0008h24.68618c.0105 0 .0206.0008.0291.0008.1834.0081.3482.0907.4634.2333.1149.142.1599.3183.1265.4969v.0003l-.2675 1.45c-.0003.0025-.0008.0048-.0011.0073l-1.6983 9.2085c0 .0003 0 .0011-.0003.0017l-.0011.0061-.092.4989c-.0543.2952-.3144.5095-.6193.5095h-20.56475zm10.28243-8.6899c-1.7359 0-3.1482 1.1135-3.1482 2.4827 0 1.3691 1.4123 2.4826 3.1482 2.4826 1.7358 0 3.1482-1.1135 3.1482-2.4826.0002-1.3692-1.4124-2.4827-3.1482-2.4827zm0 3.7243c-1.0238 0-1.8887-.5684-1.8887-1.2411s.865-1.241 1.8887-1.241 1.8886.5683 1.8886 1.241c.0003.6727-.8644 1.2411-1.8886 1.2411z" fill="#079b71" stroke="#079b71"/></svg>