<svg width="56" height="58" viewBox="0 0 56 58" fill="none" xmlns="http://www.w3.org/2000/svg">
  <g filter="url(#filter0_dd_1374_5791)">
    <path
      d="M27.5284 19.4135C31.0002 19.4135 33.8246 16.6292 33.8246 13.2067C33.8246 9.78433 31.0002 7 27.5284 7C24.0567 7 21.2323 9.78426 21.2323 13.2067C21.2323 16.6291 24.0567 19.4135 27.5284 19.4135ZM27.5284 8.24142C30.3059 8.24142 32.5657 10.4691 32.5657 13.2071C32.5657 15.9451 30.3059 18.1728 27.5284 18.1728C24.751 18.1728 22.4912 15.9451 22.4912 13.2071C22.4915 10.4691 24.751 8.24142 27.5284 8.24142ZM44.3711 41.759H39.5906C39.624 41.6666 39.6506 41.5707 39.669 41.4713L39.7259 41.1641L42.0128 38.9097C42.8398 38.0945 43.1396 36.9042 42.7951 35.8035L41.4875 31.6135L41.73 30.2988C41.8277 29.7701 41.689 29.2257 41.3491 28.8055C41.1076 28.5073 40.7819 28.2924 40.4181 28.1844L39.5724 25.4752C39.1334 24.07 38.267 22.8653 37.067 21.9916C35.8667 21.1181 34.4438 20.656 32.9522 20.656H22.1047C20.6131 20.656 19.1899 21.1181 17.9899 21.9916C16.7896 22.8652 15.9234 24.07 15.4845 25.4757L14.6388 28.1849C14.2756 28.2929 13.9493 28.5078 13.7078 28.8066C13.3679 29.2271 13.2289 29.7714 13.3269 30.2999L13.5691 31.6146L12.2618 35.8037C11.9173 36.905 12.2171 38.0952 13.0441 38.9105L15.331 41.1649L15.3879 41.4718C15.4063 41.5714 15.4335 41.6671 15.4666 41.7598L11.6298 41.7592C11.2819 41.7592 11 42.0371 11 42.38C11 42.7229 11.2822 43 11.6298 43H44.3702C44.7181 43 45 42.7221 45 42.3792C45 42.0363 44.7184 41.7589 44.3708 41.7589L44.3711 41.759ZM41.5914 36.1686C41.7981 36.8291 41.6183 37.543 41.1219 38.0319L40.1213 39.0182L40.9979 34.2666L41.5914 36.1686ZM22.1048 21.8966H32.9516C35.4551 21.8966 37.6322 23.4814 38.3681 25.8396L39.0748 28.1033H15.9813L16.6878 25.8396C17.4248 23.4814 19.601 21.8966 22.1048 21.8966H22.1048ZM13.4657 36.1679L14.0593 34.2667L14.9353 39.0178L13.935 38.0317C13.4386 37.5426 13.2585 36.8286 13.4657 36.1679H13.4657ZM17.246 41.7588C16.9417 41.7588 16.681 41.5445 16.6267 41.2485L14.8348 31.5321C14.8345 31.5304 14.8345 31.5285 14.834 31.5268L14.5662 30.0757C14.5328 29.8974 14.5781 29.7208 14.6927 29.5788C14.8079 29.4365 14.9727 29.353 15.1544 29.3455C15.1646 29.3452 15.175 29.3447 15.1852 29.3447H39.8714C39.8819 29.3447 39.892 29.3455 39.9005 29.3455C40.0839 29.3536 40.2487 29.4362 40.3639 29.5788C40.4788 29.7208 40.5238 29.8971 40.4904 30.0757V30.076L40.2229 31.526C40.2226 31.5285 40.2221 31.5308 40.2218 31.5333L38.5235 40.7418C38.5235 40.7421 38.5235 40.7429 38.5232 40.7435L38.5221 40.7496L38.4301 41.2485C38.3758 41.5437 38.1157 41.758 37.8108 41.758H17.246L17.246 41.7588ZM27.5284 33.0689C25.7925 33.0689 24.3802 34.1824 24.3802 35.5516C24.3802 36.9207 25.7925 38.0342 27.5284 38.0342C29.2642 38.0342 30.6766 36.9207 30.6766 35.5516C30.6768 34.1824 29.2642 33.0689 27.5284 33.0689ZM27.5284 36.7932C26.5046 36.7932 25.6397 36.2248 25.6397 35.5521C25.6397 34.8794 26.5047 34.3111 27.5284 34.3111C28.5521 34.3111 29.417 34.8794 29.417 35.5521C29.4173 36.2248 28.5526 36.7932 27.5284 36.7932Z"
      fill="currentColor" stroke="currentColor" />
  </g>
  <defs>
    <filter id="filter0_dd_1374_5791" x="0.5" y="0.5" width="55" height="57" filterUnits="userSpaceOnUse"
      color-interpolation-filters="sRGB">
      <feFlood flood-opacity="0" result="BackgroundImageFix" />
      <feColorMatrix in="SourceAlpha" type="matrix" values="0 0 0 0 0 0 0 0 0 0 0 0 0 0 0 0 0 0 127 0"
        result="hardAlpha" />
      <feOffset dy="4" />
      <feGaussianBlur stdDeviation="5" />
      <feComposite in2="hardAlpha" operator="out" />
      <feColorMatrix type="matrix" values="0 0 0 0 1 0 0 0 0 1 0 0 0 0 1 0 0 0 1 0" />
      <feBlend mode="normal" in2="BackgroundImageFix" result="effect1_dropShadow_1374_5791" />
      <feColorMatrix in="SourceAlpha" type="matrix" values="0 0 0 0 0 0 0 0 0 0 0 0 0 0 0 0 0 0 127 0"
        result="hardAlpha" />
      <feOffset dy="1" />
      <feComposite in2="hardAlpha" operator="out" />
      <feColorMatrix type="matrix" values="0 0 0 0 0 0 0 0 0 0 0 0 0 0 0 0 0 0 0.25 0" />
      <feBlend mode="normal" in2="effect1_dropShadow_1374_5791" result="effect2_dropShadow_1374_5791" />
      <feBlend mode="normal" in="SourceGraphic" in2="effect2_dropShadow_1374_5791" result="shape" />
    </filter>
  </defs>
</svg>
